<?xml version="1.0" encoding="utf-8"?>
<!-- Generator: Adobe Illustrator 19.0.0, SVG Export Plug-In . SVG Version: 6.00 Build 0)  -->
<svg version="1.1" id="Layer_1" xmlns="http://www.w3.org/2000/svg" xmlns:xlink="http://www.w3.org/1999/xlink" x="0px" y="0px"
	 viewBox="134 -166 448 512" style="enable-background:new 134 -166 448 512;" xml:space="preserve">
<style type="text/css">
	.st0{fill:#3C3C3C;}
</style>
<path class="st0" d="M534-134H182c-26.5,0-48,21.5-48,48v352c0,26.5,21.5,48,48,48h137.2V161.7h-63V90h63V35.4
	c0-62.2,37-96.5,93.7-96.5c27.1,0,55.5,4.8,55.5,4.8v61h-31.3c-30.8,0-40.4,19.1-40.4,38.7V90h68.8l-11,71.7h-57.8V314H534
	c26.5,0,48-21.5,48-48V-86C582-112.5,560.5-134,534-134z"/>
</svg>
