<?xml version="1.0" encoding="utf-8"?>
<!-- Generator: Adobe Illustrator 19.0.0, SVG Export Plug-In . SVG Version: 6.00 Build 0)  -->
<svg version="1.1" id="Layer_1" xmlns="http://www.w3.org/2000/svg" xmlns:xlink="http://www.w3.org/1999/xlink" x="0px" y="0px"
	 viewBox="134 -166 448 512" style="enable-background:new 134 -166 448 512;" xml:space="preserve">
<style type="text/css">
	.st0{fill:#3C3C3C;}
</style>
<path class="st0" d="M358.1-25c-63.6,0-114.9,51.3-114.9,114.9s51.3,114.9,114.9,114.9S473,153.5,473,89.9S421.7-25,358.1-25z
	 M358.1,164.6c-41.1,0-74.7-33.5-74.7-74.7s33.5-74.7,74.7-74.7s74.7,33.5,74.7,74.7S399.2,164.6,358.1,164.6L358.1,164.6z
	 M504.5-29.7c0,14.9-12,26.8-26.8,26.8c-14.9,0-26.8-12-26.8-26.8s12-26.8,26.8-26.8S504.5-44.5,504.5-29.7z M580.6-2.5
	c-1.7-35.9-9.9-67.7-36.2-93.9c-26.2-26.2-58-34.4-93.9-36.2c-37-2.1-147.9-2.1-184.9,0c-35.8,1.7-67.6,9.9-93.9,36.1
	c-26.3,26.2-34.4,58-36.2,93.9c-2.1,37-2.1,147.9,0,184.9c1.7,35.9,9.9,67.7,36.2,93.9s58,34.4,93.9,36.2c37,2.1,147.9,2.1,184.9,0
	c35.9-1.7,67.7-9.9,93.9-36.2c26.2-26.2,34.4-58,36.2-93.9C582.7,145.3,582.7,34.5,580.6-2.5L580.6-2.5z M532.8,222
	c-7.8,19.6-22.9,34.7-42.6,42.6c-29.5,11.7-99.5,9-132.1,9s-102.7,2.6-132.1-9c-19.6-7.8-34.7-22.9-42.6-42.6
	c-11.7-29.5-9-99.5-9-132.1s-2.6-102.7,9-132.1c7.8-19.6,22.9-34.7,42.6-42.6c29.5-11.7,99.5-9,132.1-9s102.7-2.6,132.1,9
	c19.6,7.8,34.7,22.9,42.6,42.6c11.7,29.5,9,99.5,9,132.1S544.5,192.6,532.8,222z"/>
</svg>
