<?xml version="1.0" encoding="utf-8"?>
<!-- Generator: Adobe Illustrator 19.0.0, SVG Export Plug-In . SVG Version: 6.00 Build 0)  -->
<svg version="1.1" id="Layer_1" xmlns="http://www.w3.org/2000/svg" xmlns:xlink="http://www.w3.org/1999/xlink" x="0px" y="0px"
	 viewBox="-87 36.6 123.7 228.4" style="enable-background:new -87 36.6 123.7 228.4;" xml:space="preserve">
<style type="text/css">
	.st0{fill:#FFFFFF;}
</style>
<g>
	<ellipse class="st0" cx="12.7" cy="59.1" rx="22.5" ry="22.5"/>
	<path class="st0" d="M3.9,146.7c-7.6-5.6-12-12-14.4-16.4c-4.4-8.2-6.8-17.7-6.8-27.5c0-2.5,0.2-4.1,0.2-4.4c0.6-5.1,4.9-9,10.1-9
		c0.4,0,0.8,0,1.2,0.1c5.6,0.6,9.6,5.7,9,11.2l0,0.1l0,0.3c0,0.4-0.1,1-0.1,1.7c0,2.2,0.3,9.9,4,17.1c0.9-4.8,1.9-9.3,2.6-13.3
		c2.9-10-0.9-21.9-9.4-24c-4.1-1-9-0.5-13.6,1.9c-5.7-10.2-27.3-43.1-56-15.8c-16,15.2-1.6,30.8,3.1,30.8s-32,12.7-17.3,48
		c14.7,35.3,44.6,30.9,48.6,22.2c0.8-1.8,2.3-6.3,4.1-12.4c1.7,6.6,4.9,10.5,8.7,12.7c0.7,4.2,1.3,9.4,1.3,15.1
		c0,8.8-1.3,18.7-5.3,28.6c-4,9.9-10.5,19.9-21.7,29.1c-5.3,4.4-6.1,12.3-1.7,17.6c2.5,3,6.1,4.6,9.7,4.6c2.8,0,5.6-0.9,7.9-2.8v0
		c14.4-11.8,23.7-25.6,29-39.1c1.8-4.6,3.2-9.1,4.3-13.5c3.8,12.2,6.9,26.9,8.3,43.9c0.5,6.9,6.5,12,13.4,11.5
		c6.9-0.5,12-6.5,11.5-13.4c-3.7-47.5-20-79-30.1-94.2C4,153.9,3.8,150.3,3.9,146.7z M-45.8,95.4c-4.6,0-8.4-3.8-8.4-8.4
		s3.8-8.4,8.4-8.4c4.6,0,8.4,3.8,8.4,8.4C-37.4,91.7-41.1,95.4-45.8,95.4z M-35,86.2c0-0.3,0-0.5,0-0.8c0-6.7-5.5-12.2-12.2-12.2
		c-6.7,0-12.2,5.5-12.2,12.2c0,5.9,4.1,10.8,9.7,11.9c-7.7-0.3-13.9-6.6-13.9-14.4c0-8,6.5-14.5,14.5-14.5c8,0,14.5,6.5,14.5,14.5
		C-34.6,84.1-34.7,85.2-35,86.2z"/>
	<path class="st0" d="M1,100.8c0-0.2,0-0.3,0-0.4l0,0c0.5-4.4-2.7-8.4-7-8.9c-4.4-0.5-8.4,2.7-8.9,7v0c0,0.3-0.2,1.7-0.2,4.1
		c0,5.5,0.8,15.9,6.5,26.5c5.7,10.7,17,21.2,35.4,25.4c0.6,0.1,1.2,0.2,1.8,0.2c3.6,0,6.9-2.5,7.8-6.2c1-4.3-1.7-8.6-6-9.6
		c-14.4-3.5-21-10.3-25-17.5c-3.9-7.1-4.6-15-4.6-18.9C0.9,101.9,0.9,101.2,1,100.8z"/>
</g>
</svg>
