<svg xmlns="http://www.w3.org/2000/svg" viewBox="0 0 123.727 228.424"  xmlns:v="https://vecta.io/nano"><circle cx="99.686" cy="22.5" transform="matrix(.2268 -.9739 .9739 .2268 55.1606 114.4834)" r="22.495"/><path d="M90.867 110.139c-7.597-5.618-11.995-12.019-14.354-16.443-4.409-8.153-6.764-17.682-6.802-27.542 0-2.509.168-4.097.203-4.392a10.19 10.19 0 0 1 10.124-9.039 10.17 10.17 0 0 1 1.164.066c5.561.635 9.576 5.654 8.985 11.212l-.01.142-.019.261c-.023.373-.05.971-.05 1.741-.013 2.246.257 9.927 3.98 17.133l2.647-13.274c2.869-9.951-.885-21.863-9.42-23.992-4.055-1.01-8.976-.491-13.564 1.897-5.671-10.17-27.256-43.117-56.023-15.775-15.999 15.206-1.577 30.754 3.09 30.754s-32 12.667-17.333 48 44.576 30.91 48.576 22.246c.823-1.783 2.288-6.323 4.095-12.404 1.703 6.633 4.895 10.499 8.71 12.719.703 4.198 1.272 9.37 1.268 15.092.002 8.759-1.313 18.725-5.29 28.637-3.996 9.92-10.549 19.869-21.725 29.094-5.331 4.387-6.098 12.265-1.71 17.596a12.48 12.48 0 0 0 9.659 4.558 12.45 12.45 0 0 0 7.937-2.849v-.002c14.423-11.843 23.657-25.593 29.046-39.098 1.83-4.57 3.231-9.102 4.286-13.534 3.813 12.212 6.948 26.855 8.262 43.939.528 6.883 6.538 12.034 13.421 11.505s12.035-6.538 11.507-13.421c-3.66-47.533-20.019-78.965-30.141-94.237-.431-3.444-.578-6.996-.519-10.59zM41.218 58.842a8.401 8.401 0 1 1 0-16.801 8.401 8.401 0 1 1 0 16.801zm10.813-9.202c.016-.258.039-.515.039-.777a12.2 12.2 0 0 0-12.193-12.192 12.2 12.2 0 0 0-12.192 12.192c0 5.872 4.146 10.767 9.669 11.929-7.711-.315-13.869-6.646-13.869-14.436 0-7.993 6.476-14.465 14.467-14.465s14.469 6.472 14.469 14.465c-.001 1.131-.144 2.228-.39 3.284zm35.934 14.629l.029-.418.002-.022a8 8 0 0 0-7.042-8.854c-4.391-.499-8.355 2.653-8.855 7.044v-.002c-.029.251-.187 1.746-.187 4.13.019 5.497.784 15.865 6.545 26.515 5.683 10.665 16.986 21.185 35.449 25.387a8.01 8.01 0 0 0 1.825.211c3.634 0 6.923-2.492 7.785-6.183 1.004-4.302-1.67-8.605-5.972-9.61-14.431-3.476-21.034-10.326-25.034-17.455-3.925-7.142-4.62-14.991-4.6-18.866a31.19 31.19 0 0 1 .055-1.877z"/></svg>