<?xml version="1.0" encoding="utf-8"?>
<!-- Generator: Adobe Illustrator 19.0.0, SVG Export Plug-In . SVG Version: 6.00 Build 0)  -->
<svg version="1.1" id="Layer_1" xmlns:v="https://vecta.io/nano"
	 xmlns="http://www.w3.org/2000/svg" xmlns:xlink="http://www.w3.org/1999/xlink" x="0px" y="0px" viewBox="-39 41 100 100"
	 style="enable-background:new -39 41 100 100;" xml:space="preserve">
<style type="text/css">
	.st0{fill:#555555;}
</style>
<path class="st0" d="M51.6,67.1C46,54,28.4,46.7,14.4,48.3c5,0.6,9.4,2.2,12.8,5.2c17.3,14.9-11.2,65.1-12.8,67.9
	c0,0.1,0.1,0.1,0.1,0.1S61.4,90.4,51.6,67.1z M-5.3,53.5c3.4-2.9,7.9-4.7,12.8-5.2C-6.4,46.7-24.1,54-29.5,67.1
	c-10.1,23.3,37,54.5,37,54.5l0.1-0.1C5.9,118.6-22.5,68.6-5.3,53.5z M22.8,53.5c-3.1-2.8-7.2-4.6-11.8-5.2C6.5,49,2.3,50.6-0.8,53.5
	c-15.7,15,10.3,65.1,11.8,68C12.6,118.6,38.5,68.6,22.8,53.5z"/>
<path class="st0" d="M17.6,133.9H4c-2.5,0-4.6-2-4.6-4.6v-0.5c0-2.5,2-4.6,4.6-4.6h13.7c2.5,0,4.6,2,4.6,4.6v0.5
	C22.2,131.8,20.2,133.9,17.6,133.9z"/>
</svg>
