<?xml version="1.0" encoding="utf-8"?>
<!-- Generator: Adobe Illustrator 19.0.0, SVG Export Plug-In . SVG Version: 6.00 Build 0)  -->
<svg version="1.1" id="Layer_1" xmlns:v="https://vecta.io/nano"
	 xmlns="http://www.w3.org/2000/svg" xmlns:xlink="http://www.w3.org/1999/xlink" x="0px" y="0px" viewBox="70 -70 300 300"
	 style="enable-background:new 70 -70 300 300;" xml:space="preserve">
<style type="text/css">
	.st0{fill:#272727;}
</style>
<path class="st0" d="M237.2-45.5c3.7-15.7,19-25.4,34.4-21.8c15.6,3.7,25.1,19.1,21.3,34.9c-3.7,15.7-19,25.4-34.4,21.8
	C243.3-14.3,233.6-29.7,237.2-45.5z M253.9,74.6c-7.6-5.7-13.9-12.9-18.4-21.3c-5.6-10.6-8.7-22.9-8.7-35.6c0-3.2,0.3-5.3,0.3-5.7
	c0.7-6.6,6.3-11.6,12.8-11.6c0.6,0,1,0,1.6,0.1c7.1,0.7,12.2,7.2,11.5,14.6v0.5c0,0.6-0.1,1.3-0.1,2.3c0,2.9,0.4,12.8,5,22.2
	l3.5-17.2c3.7-12.8-1.2-28.3-11.9-31.2C244.4-9.7,238-9,232.3-5.9c-7.2-13.1-34.7-55.8-71.7-20.3c-20.3,19.6-2,39.8,3.8,39.8
	c6,0-40.9,16.5-22.2,62.2s56.9,40,62.1,28.8c1-2.3,2.9-8.2,5.2-16c2.2,8.5,6.2,13.7,11.1,16.5c0.9,5.5,1.6,12.1,1.6,19.4
	c0,11.3-1.6,24.3-6.8,37.1c-5.2,12.8-13.5,25.9-27.8,37.8c-6.8,5.7-7.8,15.9-2.2,22.8c3.2,3.8,7.8,5.9,12.4,5.9
	c3.7,0,7.1-1.2,10.3-3.7l0,0c18.5-15.3,30.2-33.2,37.1-50.6c2.2-5.7,4-11.5,5.5-17.5c4.9,15.9,9,34.7,10.6,56.8
	c0.6,9,8.4,15.6,17.2,14.9c8.8-0.6,15.4-8.4,14.7-17.3c-4.7-61.6-25.7-102.2-38.5-122.1C254,83.8,253.9,79.1,253.9,74.6L253.9,74.6z
	 M190.5,8.2c-6,0-10.7-4.9-10.7-10.9s4.9-10.9,10.7-10.9c6,0,10.7,4.9,10.7,10.9C201.2,3.2,196.5,8.2,190.5,8.2z M204.3-3.7v-1
	c0-8.7-7.1-15.9-15.6-15.9c-8.7,0-15.6,7.1-15.6,15.9c0,7.6,5.3,13.8,12.4,15.4c-9.8-0.4-17.8-8.5-17.8-18.6
	c0-10.4,8.2-18.7,18.5-18.7s18.5,8.4,18.5,18.7C204.7-6.6,204.6-5.2,204.3-3.7L204.3-3.7z M250.3,15.1v-0.6
	c0.6-5.7-3.5-10.9-9.1-11.5c-5.6-0.6-10.7,3.5-11.3,9.3l0,0c0,0.4-0.3,2.3-0.3,5.3c0,7.1,1,20.5,8.4,34.3
	c7.2,13.7,21.6,27.4,45.3,32.9c0.7,0.1,1.6,0.3,2.3,0.3c4.6,0,8.8-3.2,10-8.1c1.3-5.6-2.2-11.1-7.6-12.5C269.4,60,261,51,255.8,41.9
	c-4.9-9.4-5.9-19.3-5.9-24.6C250.2,16.5,250.2,15.7,250.3,15.1z"/>
</svg>
