<?xml version="1.0" encoding="utf-8"?>
<!-- Generator: Adobe Illustrator 19.0.0, SVG Export Plug-In . SVG Version: 6.00 Build 0)  -->
<svg version="1.1" id="Layer_1" xmlns="http://www.w3.org/2000/svg" xmlns:xlink="http://www.w3.org/1999/xlink" x="0px" y="0px"
	 viewBox="66 -60.4 162.6 170.4" style="enable-background:new 66 -60.4 162.6 170.4;" xml:space="preserve">
<style type="text/css">
	.st0{fill:#FFFFFF;}
</style>
<g>
	<ellipse class="st0" cx="163.9" cy="-37.9" rx="22.5" ry="22.5"/>
	<path class="st0" d="M171.3,101.1c2-4.5,1.3-9.6-1.9-13.4l-14.9-17.3c0.1-0.6,0.2-1.2,0.3-1.8L172,57l14.7,44.4
		c1.7,5.3,6.6,8.6,11.9,8.6c1.3,0,2.6-0.2,3.9-0.6c6.6-2.2,10.1-9.2,7.9-15.8l-19.8-60c-0.9-2.6-2.5-4.7-4.6-6.2
		c-0.6,0.1-1.2,0.2-1.7,0.2c-1.1,0-2.1-0.2-3.2-0.5l-5.1-1.7c-1.5,0.3-2.9,0.9-4.2,1.8l-16.5,11.1c0.8-6.5,2-12.9,3.1-18.7
		l-15.3-5.1c-2.5-0.8-4.6-2.6-5.8-5c-1.2-2.4-1.4-5.1-0.5-7.6c1.4-4.1,5.2-6.8,9.5-6.8c1.1,0,2.1,0.2,3.2,0.5l11.4,3.8
		c-1.1-6.2-4.6-11.6-10-12.9c-3.1-0.8-6.6-0.7-10.1,0.5c-3.6-7-26.2-46.8-57-17.6c-16,15.2-1.6,30.8,3.1,30.8s-32,12.7-17.3,48
		c14.7,35.3,44.6,30.9,48.6,22.2c0.3-0.6,0.6-1.5,1-2.7c0,0.1,0.1,0.1,0.1,0.2l13.5,15.7h-24.5c-6.9,0-12.5,5.6-12.5,12.5
		c0,6.9,5.6,12.5,12.5,12.5l51.7,0C164.8,108.3,169.2,105.5,171.3,101.1z M98.8-12.5c0-4.6,3.8-8.4,8.4-8.4c4.6,0,8.4,3.8,8.4,8.4
		c0,4.6-3.8,8.4-8.4,8.4C102.6-4.1,98.8-7.9,98.8-12.5z M89.5-16.6c0-8,6.5-14.5,14.5-14.5c5.9,0,11,3.5,13.2,8.6l-1.3,1.4
		c-2.2-3.1-5.8-5.2-10-5.2c-6.7,0-12.2,5.5-12.2,12.2c0,4.2,2.1,7.8,5.3,10l-0.7,0.7C93.1-5.5,89.5-10.7,89.5-16.6z"/>
	<path class="st0" d="M202.2-24.4c2.5,1,4.4,3,5.3,5.5c0.5,1.3,0.7,2.6,0.7,4h2.7c1.1,0,2-0.9,2-2v-28.9c0-1.1-0.9-2-2-2h-15.3
		c-1.1,0-2,0.9-2,2V-24c1.4-0.7,3-1.2,4.7-1.2C199.6-25.2,200.9-24.9,202.2-24.4z M197.2-40.8c0-1.4,1.1-2.5,2.5-2.5
		s2.5,1.1,2.5,2.5s-1.1,2.5-2.5,2.5S197.2-39.5,197.2-40.8z"/>
	<path class="st0" d="M228.6-23.2v-16.3c0-1.1-0.9-2-2-2h-11.2v20.3h11.2C227.7-21.2,228.6-22.1,228.6-23.2z"/>
	<path class="st0" d="M138.7,2.3c-1.4,4.2,0.9,8.7,5.1,10.1l37.9,12.6c0.8,0.3,1.7,0.4,2.5,0.4c3.1,0,6.1-1.8,7.4-4.8l14-32.7
		c1.7-4.1-0.1-8.8-4.2-10.5c-4.1-1.7-8.8,0.1-10.5,4.2L179.8,7.6L148.8-2.7C144.6-4.1,140.1-1.9,138.7,2.3z"/>
</g>
</svg>
