<?xml version="1.0" encoding="utf-8"?>
<!-- Generator: Adobe Illustrator 19.0.0, SVG Export Plug-In . SVG Version: 6.00 Build 0)  -->
<svg version="1.1" id="Layer_1" xmlns="http://www.w3.org/2000/svg" xmlns:xlink="http://www.w3.org/1999/xlink" x="0px" y="0px"
	 viewBox="0 0 180 180" style="enable-background:new 0 0 180 180;" xml:space="preserve">
<style type="text/css">
	.st0{fill:none;stroke:#000000;stroke-width:5;stroke-miterlimit:10;}
	.st1{fill:none;stroke:#555655;stroke-width:5;stroke-miterlimit:10;}
	.st2{fill:none;}
	.st3{fill:#555655;}
</style>
<path id="XMLID_6_" class="st0" d="M92.1,123.8"/>
<path id="XMLID_5_" class="st0" d="M48.4,80"/>
<path id="XMLID_9_" class="st1" d="M88.8,121.1"/>
<path id="XMLID_3_" class="st1" d="M48.4,80.3"/>
<path id="XMLID_8_" class="st1" d="M48.4,56.1"/>
<path id="XMLID_11_" class="st2" d="M48.2,78.5"/>
<g id="XMLID_7_">
	<circle id="XMLID_1_" class="st3" cx="53.6" cy="129.2" r="15.7"/>
	<g id="XMLID_10_">
		<g id="XMLID_29_">
			<path id="XMLID_33_" class="st3" d="M118.3,129.8C117.8,94.2,89,65.4,53.4,65c-16.1-0.2-16.1,24.8,0,25
				c21.9,0.3,39.6,17.9,39.9,39.9C93.5,145.9,118.5,146,118.3,129.8L118.3,129.8z"/>
		</g>
	</g>
	<g id="XMLID_12_">
		<g id="XMLID_23_">
			<path id="XMLID_27_" class="st3" d="M165,129.8c-0.2-29.5-11.8-58-32.7-78.9C111.4,30,82.8,18.4,53.4,18.2
				c-16.1-0.1-16.1,24.9,0,25c47.5,0.3,86.3,39.1,86.6,86.6C140.1,145.9,165.1,145.9,165,129.8L165,129.8z"/>
		</g>
	</g>
</g>
</svg>
