<?xml version="1.0" encoding="utf-8"?>
<!-- Generator: Adobe Illustrator 19.0.0, SVG Export Plug-In . SVG Version: 6.00 Build 0)  -->
<svg version="1.1" id="Layer_1" xmlns="http://www.w3.org/2000/svg" xmlns:xlink="http://www.w3.org/1999/xlink" x="0px" y="0px"
	 viewBox="0 0 1920 1080" style="enable-background:new 0 0 1920 1080;" xml:space="preserve">
<style type="text/css">
	.st0{fill:#acc957;}
	.st1{fill:#FFFFFF;}
</style>
<g id="图层_x0020_1">
	<circle class="st0" cx="960" cy="540" r="540"/>
	<path class="st1" d="M829.2,691.6L1209.8,311c11.2-11.2,29.6-11.1,40.7,0l36.7,36.7c11.1,11.1,11.1,29.6,0,40.7L906.6,769
		c-11.1,11.1-29.5,11.2-40.7,0l-36.7-36.7C817.9,721.1,817.9,702.8,829.2,691.6L829.2,691.6z"/>
	<path class="st1" d="M710.3,459.6l231.8,231.8c11.2,11.2,11.1,29.6,0,40.7l-36.7,36.7c-11.1,11.1-29.6,11.1-40.7,0L632.8,537.1
		c-11.1-11.1-11.2-29.5,0-40.7l36.7-36.7C680.8,448.4,699.1,448.4,710.3,459.6L710.3,459.6z"/>
</g>
</svg>
