<?xml version="1.0" encoding="utf-8"?>
<!-- Generator: Adobe Illustrator 19.0.0, SVG Export Plug-In . SVG Version: 6.00 Build 0)  -->
<svg version="1.1" id="Layer_1" xmlns="http://www.w3.org/2000/svg" xmlns:xlink="http://www.w3.org/1999/xlink" x="0px" y="0px"
	 viewBox="-99 101 100 100" style="enable-background:new -99 101 100 100;" xml:space="preserve">
<style type="text/css">
	.st0{fill:#333333;}
</style>
<path class="st0" d="M-49,196c-24.8,0-45-20.2-45-45s20.2-45,45-45c12,0,23.3,4.7,31.8,13.2c1.6,1.6,1.6,4.2,0,5.8
	c-1.6,1.6-4.2,1.6-5.8,0c-7-7-16.2-10.8-26-10.8c-20.3,0-36.8,16.5-36.8,36.8s16.5,36.8,36.8,36.8s36.8-16.5,36.8-36.8
	c0-2.3,1.8-4.1,4.1-4.1S-4,148.7-4,151C-4,175.8-24.2,196-49,196z"/>
<g>
	<path class="st0" d="M-30.5,129.9l22.3,6c1.5,0.4,2.3-0.5,1.9-1.9l-6-22.3c-0.4-1.5-1.6-1.8-2.6-0.7l-16.3,16.3
		C-32.3,128.4-31.9,129.5-30.5,129.9z"/>
</g>
<path class="st0" d="M-30.5,162.4h-23c-2.3,0-4.1-1.8-4.1-4.1v-29.7c0-2.3,1.8-4.1,4.1-4.1c2.3,0,4.1,1.8,4.1,4.1v25.6h18.9
	c2.3,0,4.1,1.8,4.1,4.1C-26.4,160.5-28.3,162.4-30.5,162.4z"/>
</svg>
