<?xml version="1.0" encoding="utf-8"?>
<!-- Generator: Adobe Illustrator 19.0.0, SVG Export Plug-In . SVG Version: 6.00 Build 0)  -->
<svg version="1.1" id="Layer_1" xmlns="http://www.w3.org/2000/svg" xmlns:xlink="http://www.w3.org/1999/xlink" x="0px" y="0px"
	 viewBox="144 -182 512 512" style="enable-background:new 144 -182 512 512;" xml:space="preserve">
<style type="text/css">
	.st0{fill:#FFFFFF;}
</style>
<g id="XMLID_345_">
	<path id="XMLID_358_" class="st0" d="M399.4,74"/>
	<g id="XMLID_347_">
		<path id="XMLID_355_" class="st0" d="M399.4-176c-138.1,0-250,111.9-250,250s111.9,250,250,250s250-111.9,250-250
			S537.5-176,399.4-176z M558,232.6c-42.4,42.4-98.7,65.7-158.6,65.7S283.2,275,240.8,232.6c-42.3-42.4-65.6-98.7-65.6-158.6
			s23.3-116.2,65.6-158.6c42.4-42.4,98.7-65.7,158.6-65.7S515.6-127,558-84.6S623.7,14.1,623.7,74S600.3,190.2,558,232.6z"/>
		<path id="XMLID_348_" class="st0" d="M386.7-105.6h25.4v6.9h-16.4v8.3h13.7v6.9h-13.7v9.7h16.4v6.9h-25.4V-105.6L386.7-105.6z
			 M260.4,89.9h-9l-14.2-24.4l-0.2,0.1v24.3h-9V51.1h9l14.2,24.4l0.2-0.1V51.1h9V89.9z M413.8,253.6h-8.4l-6.5-23.9h-0.2l-6.5,23.9
			h-8.5l-8.9-38.8h9.1l4.7,25.2h0.2l6.6-25.2h6.8l6.6,25.1h0.2l4.7-25.1h9.1L413.8,253.6z M416.3,90.9L311.4,162l71.1-105l104.9-71
			L416.3,90.9z M566.7,87.6c-2.7,1.9-6.2,2.9-10.6,2.9s-8.1-1-11.1-3.1s-4.5-5.3-4.4-9.8l0.1-0.2h8.8c0,2.3,0.6,3.9,1.7,4.8
			c1.1,0.9,2.8,1.4,5.1,1.4c1.9,0,3.3-0.4,4.2-1.1c0.9-0.7,1.4-1.7,1.4-2.9c0-1.4-0.5-2.4-1.4-3.2c-0.9-0.7-2.5-1.5-4.9-2.4
			c-4.8-1.6-8.4-3.2-10.7-5c-2.3-1.8-3.5-4.3-3.5-7.6c0-3.2,1.4-5.9,4.1-7.9s6.2-3,10.4-3c4.4,0,8,1,10.7,3.1c2.7,2.1,4,5,3.9,8.7
			l-0.1,0.2h-8.7c0-1.8-0.5-3.2-1.5-4s-2.5-1.2-4.5-1.2c-1.6,0-2.9,0.4-3.9,1.2c-0.9,0.8-1.4,1.8-1.4,3c0,1.1,0.5,2,1.5,2.7
			s2.8,1.5,5.4,2.6c4.5,1.3,7.9,3,10.2,4.9c2.3,1.9,3.5,4.5,3.5,7.9C570.7,83,569.4,85.7,566.7,87.6z"/>
	</g>
	<circle id="XMLID_346_" class="st0" cx="399.4" cy="74" r="11.4"/>
</g>
</svg>
