<?xml version="1.0" encoding="utf-8"?>
<!-- Generator: Adobe Illustrator 19.0.0, SVG Export Plug-In . SVG Version: 6.00 Build 0)  -->
<svg version="1.1" id="Layer_1" xmlns="http://www.w3.org/2000/svg" xmlns:xlink="http://www.w3.org/1999/xlink" x="0px" y="0px"
	 viewBox="76 -76 512 512" style="enable-background:new 76 -76 512 512;" xml:space="preserve">
<style type="text/css">
	.st0{fill:#555555;}
</style>
<g id="XMLID_345_">
	<path id="XMLID_358_" class="st0" d="M332,180"/>
	<g id="XMLID_347_">
		<path id="XMLID_355_" class="st0" d="M332-70C193.9-70,82,41.9,82,180s111.9,250,250,250s250-111.9,250-250S470.1-70,332-70z
			 M490.6,338.6c-42.4,42.4-98.7,65.7-158.6,65.7S215.8,381,173.4,338.6c-42.3-42.4-65.6-98.7-65.6-158.6s23.3-116.2,65.6-158.6
			C215.8-21,272.1-44.3,332-44.3S448.2-21,490.6,21.4s65.7,98.7,65.7,158.6S532.9,296.2,490.6,338.6z"/>
		<path id="XMLID_348_" class="st0" d="M476.1,35.9C437.6-2.6,386.4-23.8,332-23.8S226.4-2.6,187.9,35.9s-59.7,89.7-59.7,144.1
			s21.2,105.6,59.7,144.1s89.7,59.7,144.1,59.7s105.6-21.2,144.1-59.7s59.7-89.7,59.7-144.1S514.6,74.4,476.1,35.9z M319.3,0.4h25.4
			v6.9h-16.4v8.3H342v6.9h-13.7v9.7h16.4v6.9h-25.4L319.3,0.4L319.3,0.4z M193,195.9h-9l-14.2-24.4l-0.2,0.1v24.3h-9v-38.8h9
			l14.2,24.4l0.2-0.1v-24.3h9V195.9z M346.4,359.6H338l-6.5-23.9h-0.2l-6.5,23.9h-8.5l-8.9-38.8h9.1l4.7,25.2h0.2l6.6-25.2h6.8
			l6.6,25.1h0.2l4.7-25.1h9.1L346.4,359.6z M348.9,196.9L244,268l71.1-105L420,92L348.9,196.9z M499.3,193.6
			c-2.7,1.9-6.2,2.9-10.6,2.9s-8.1-1-11.1-3.1s-4.5-5.3-4.4-9.8l0.1-0.2h8.8c0,2.3,0.6,3.9,1.7,4.8s2.8,1.4,5.1,1.4
			c1.9,0,3.3-0.4,4.2-1.1c0.9-0.7,1.4-1.7,1.4-2.9c0-1.4-0.5-2.4-1.4-3.2c-0.9-0.7-2.5-1.5-4.9-2.4c-4.8-1.6-8.4-3.2-10.7-5
			c-2.3-1.8-3.5-4.3-3.5-7.6c0-3.2,1.4-5.9,4.1-7.9s6.2-3,10.4-3c4.4,0,8,1,10.7,3.1s4,5,3.9,8.7l-0.1,0.2h-8.7c0-1.8-0.5-3.2-1.5-4
			s-2.5-1.2-4.5-1.2c-1.6,0-2.9,0.4-3.9,1.2c-0.9,0.8-1.4,1.8-1.4,3c0,1.1,0.5,2,1.5,2.7s2.8,1.5,5.4,2.6c4.5,1.3,7.9,3,10.2,4.9
			c2.3,1.9,3.5,4.5,3.5,7.9C503.3,189,502,191.7,499.3,193.6z"/>
	</g>
	<circle id="XMLID_346_" class="st0" cx="332" cy="180" r="11.4"/>
</g>
</svg>
