<svg xmlns="http://www.w3.org/2000/svg" viewBox="49 -49 100 100"  xmlns:v="https://vecta.io/nano"><path d="M138.1-27.8c-5.5-12.9-22.8-20.1-36.6-18.5 4.9.6 9.3 2.2 12.6 5.1 17 14.7-11 64.1-12.6 66.9 0 .1.1.1.1.1s46.2-30.7 36.5-53.6zM83.9-41.2c3.3-2.9 7.8-4.6 12.6-5.1-13.7-1.6-31.1 5.6-36.5 18.5-9.9 22.9 36.4 53.7 36.4 53.7l.1-.1c-1.6-2.9-29.6-52.2-12.6-67zm26.7 0c-3.1-2.8-7.1-4.5-11.6-5.1-4.4.6-8.5 2.2-11.6 5.1-15.5 14.8 10.1 64.1 11.6 67 1.6-2.9 27.1-52.2 11.6-67zM89.4 29.2h19.3v19.3H89.4V29.2z" fill="#555"/></svg>