<?xml version="1.0" encoding="utf-8"?>
<!-- Generator: Adobe Illustrator 19.0.0, SVG Export Plug-In . SVG Version: 6.00 Build 0)  -->
<svg version="1.1" id="Layer_1" xmlns="http://www.w3.org/2000/svg" xmlns:xlink="http://www.w3.org/1999/xlink" x="0px" y="0px"
	 viewBox="-117 119 64 64" style="enable-background:new -117 119 64 64;" xml:space="preserve">
<style type="text/css">
	.st0{fill:#999999;}
</style>
<title></title>
<path class="st0" d="M-88.3,136.3c0,3.9,1.4,7.8,3.9,10.8h-17.8c-6,0.2-10.9-4.5-11.1-10.5c-0.2-6,4.5-10.9,10.5-11.1
	c0.2,0,0.4,0,0.7,0h17.8C-86.9,128.5-88.3,132.3-88.3,136.3z"/>
<path class="st0" d="M-71.3,150.6c-7.9,0-14.3-6.4-14.3-14.3c0-3.8,1.5-7.4,4.1-10c5.5-5.6,14.6-5.7,20.2-0.1
	c5.6,5.5,5.7,14.6,0.1,20.2C-63.8,149-67.5,150.5-71.3,150.6z M-71.3,125.3c-6.1,0-11,4.9-11,11c0,6.1,4.9,11,11,11
	c6.1,0,11-4.9,11-11c0-2.2-0.7-4.3-1.9-6.1C-64.2,127.1-67.6,125.3-71.3,125.3L-71.3,125.3z"/>
<path class="st0" d="M-81.7,165.7c0-3.9-1.4-7.8-3.9-10.8h17.8c6-0.2,10.9,4.5,11.1,10.5s-4.5,10.9-10.5,11.1c-0.2,0-0.4,0-0.7,0
	h-17.8C-83.1,173.5-81.7,169.7-81.7,165.7z"/>
<path class="st0" d="M-98.7,151.4c7.9,0,14.3,6.4,14.3,14.3S-90.8,180-98.7,180s-14.3-6.4-14.3-14.3c0-2.8,0.8-5.6,2.4-8
	C-107.9,153.8-103.5,151.4-98.7,151.4z M-98.7,176.7c6.1,0,11-4.9,11-11c0-6.1-4.9-11-11-11c-6.1,0-11,4.9-11,11
	c0,2.2,0.7,4.3,1.9,6.1C-105.8,174.9-102.4,176.7-98.7,176.7L-98.7,176.7z"/>
</svg>
