<?xml version="1.0" encoding="utf-8"?>
<!-- Generator: Adobe Illustrator 25.4.1, SVG Export Plug-In . SVG Version: 6.00 Build 0)  -->
<svg version="1.1" id="Layer_1" xmlns="http://www.w3.org/2000/svg" xmlns:xlink="http://www.w3.org/1999/xlink" x="0px" y="0px"
	 viewBox="0 0 64 64" style="enable-background:new 0 0 64 64;" xml:space="preserve">
<style type="text/css">
	.st0{fill:#666666;}
</style>
<path class="st0" d="M28.7,17.3c0,3.9,1.4,7.8,3.9,10.8H14.8c-6,0.2-10.9-4.5-11.1-10.5S8.2,6.7,14.2,6.5c0.2,0,0.4,0,0.7,0h17.8
	C30.1,9.5,28.7,13.3,28.7,17.3z"/>
<path class="st0" d="M45.7,31.6c-7.9,0-14.3-6.4-14.3-14.3c0-3.8,1.5-7.4,4.1-10C41,1.7,50.1,1.6,55.7,7.2
	c5.6,5.5,5.7,14.6,0.1,20.2C53.2,30,49.5,31.5,45.7,31.6z M45.7,6.3c-6.1,0-11,4.9-11,11s4.9,11,11,11s11-4.9,11-11
	c0-2.2-0.7-4.3-1.9-6.1C52.8,8.1,49.4,6.3,45.7,6.3L45.7,6.3z"/>
<path class="st0" d="M35.3,46.7c0-3.9-1.4-7.8-3.9-10.8h17.8c6-0.2,10.9,4.5,11.1,10.5s-4.5,10.9-10.5,11.1c-0.2,0-0.4,0-0.7,0H31.3
	C33.9,54.5,35.3,50.7,35.3,46.7z"/>
<path class="st0" d="M18.3,32.4c7.9,0,14.3,6.4,14.3,14.3S26.2,61,18.3,61S4,54.6,4,46.7c0-2.8,0.8-5.6,2.4-8
	C9.1,34.8,13.5,32.4,18.3,32.4z M18.3,57.7c6.1,0,11-4.9,11-11s-4.9-11-11-11s-11,4.9-11,11c0,2.2,0.7,4.3,1.9,6.1
	C11.2,55.9,14.6,57.7,18.3,57.7L18.3,57.7z"/>
</svg>
