<?xml version="1.0" encoding="utf-8"?>
<!-- Generator: Adobe Illustrator 19.0.0, SVG Export Plug-In . SVG Version: 6.00 Build 0)  -->
<svg version="1.1" id="Layer_1" xmlns="http://www.w3.org/2000/svg" xmlns:xlink="http://www.w3.org/1999/xlink" x="0px" y="0px"
	 viewBox="-4 6 40 40" style="enable-background:new -4 6 40 40;" xml:space="preserve">
<style type="text/css">
	.st0{fill:#3C3C3C;}
</style>
<path class="st0" d="M17.6,12.6l14.7,14.7c0.4,0.4,0.7,1,0.7,1.6v9.7c0,1.3-1,2.3-2.3,2.3h-7.6c-0.9,0-1.8-0.6-2.1-1.4L18.1,33
	c-0.8-1.9-3.5-1.9-4.3,0l-2.8,6.6C10.7,40.4,9.9,41,9,41H1.3C0,41-1,40-1,38.7V29c0-0.6,0.2-1.2,0.7-1.6l14.7-14.7
	C15.3,11.7,16.7,11.7,17.6,12.6z"/>
</svg>
