<svg xmlns="http://www.w3.org/2000/svg" viewBox="25 -25 100 100"  xmlns:v="https://vecta.io/nano"><path d="M118.4 6.2c-6.6-14.5-27.2-22.5-43.7-20.7 5.8.6 11.1 2.5 15.1 5.8C110 7.8 76.5 63.2 74.6 66.4l.1.1S130.1 32 118.4 6.2z" fill="#e25d98"/><path d="M59.6-8.7c4-3.2 9.3-5.1 15.1-5.8-16.5-1.8-37.2 6.2-43.8 20.7C19.2 32 74.7 66.5 74.7 66.5l.1-.1c-2-3.2-35.5-58.6-15.2-75.1z" fill="#b4d677"/><path d="M90.4-8.7c-4.2-3.2-9.7-5.1-15.7-5.8-6 .6-11.6 2.5-15.7 5.8-21.1 16.5 13.7 72 15.7 75.2 2-3.2 36.8-58.7 15.7-75.2z" fill="#25bcbd"/><circle cx="74.7" cy="7.7" r="9.4" fill="#fff"/></svg>