<?xml version="1.0" encoding="utf-8"?>
<!-- Generator: Adobe Illustrator 19.0.0, SVG Export Plug-In . SVG Version: 6.00 Build 0)  -->
<svg version="1.1" id="Layer_1" xmlns="http://www.w3.org/2000/svg" xmlns:xlink="http://www.w3.org/1999/xlink" x="0px" y="0px"
	 viewBox="138 -176 500 500" style="enable-background:new 138 -176 500 500;" xml:space="preserve">
<style type="text/css">
	.st0{fill:#FFFFFF;}
</style>
<g>
	<path class="st0" d="M388,106.7c0,0,46.6-54.2,69.4-82.5c22.7-28.3,35.5-54.7,35.5-80c0-57.8-47-104.7-104.9-104.7
		S283.1-113.6,283.1-55.8c0,25.8,7.9,50.6,31.3,80C334.7,49.8,388,106.7,388,106.7z M388-105.1c28.4,0,51.5,23.1,51.5,51.5
		S416.4-2.1,388-2.1s-51.5-23.1-51.5-51.5S359.5-105.1,388-105.1z"/>
	<path class="st0" d="M628.9,80.7c-0.3-3.1-2.1-5.7-4.9-7.1l-135.5-69c-2.9,5-6.1,10-9.7,15.1L603.4,83l-89.2,69.3l-82.9-73.6
		c-2,2.4-4.1,4.9-6.1,7.2l80,71L384,205.2L238.7,24.4l56.5-1c-4.2-6.1-7.8-12.1-10.9-17.9l-57.9,1c-2.1-0.2-4.2,0.3-6,1.5
		l-69.5,47.4c-4.1,2.8-5.1,8.3-2.4,12.4l161,236.8c1.6,2.3,4.2,3.8,7,3.9c0.1,0,0.3,0,0.4,0c2.7,0,5.2-1.2,6.9-3.3l68.7-84.2
		l126.6-50.5c0.8-0.3,1.5-0.7,2.2-1.2l104.2-80.8C627.9,86.7,629.2,83.7,628.9,80.7z M317.6,284.7L168.4,65.2l58.7-40.1l150,186.7
		L317.6,284.7z"/>
</g>
</svg>
