<svg enable-background="new 225 -225 500 500" viewBox="225 -225 500 500" xmlns="http://www.w3.org/2000/svg"><g fill="#666"><path d="m475.1 57.4s46.6-54.2 69.4-82.5c22.7-28.3 35.5-54.7 35.5-80 0-57.8-47-104.7-104.9-104.7s-104.9 46.9-104.9 104.7c0 25.8 7.9 50.6 31.3 80 20.3 25.6 73.6 82.5 73.6 82.5zm0-211.8c28.4 0 51.5 23.1 51.5 51.5s-23.1 51.5-51.5 51.5-51.5-23.1-51.5-51.5 23-51.5 51.5-51.5z"/><path d="m716 31.4c-.3-3.1-2.1-5.7-4.9-7.1l-135.5-69c-2.9 5-6.1 10-9.7 15.1l124.6 63.3-89.2 69.3-82.9-73.6c-2 2.4-4.1 4.9-6.1 7.2l80 71-121.2 48.3-145.3-180.8 56.5-1c-4.2-6.1-7.8-12.1-10.9-17.9l-57.9 1c-2.1-.2-4.2.3-6 1.5l-69.5 47.4c-4.1 2.8-5.1 8.3-2.4 12.4l161 236.8c1.6 2.3 4.2 3.8 7 3.9h.4c2.7 0 5.2-1.2 6.9-3.3l68.7-84.2 126.6-50.5c.8-.3 1.5-.7 2.2-1.2l104.2-80.8c2.4-1.8 3.7-4.8 3.4-7.8zm-311.3 204-149.2-219.5 58.7-40.1 150 186.7z"/></g></svg>