<?xml version="1.0" encoding="utf-8"?>
<!-- Generator: Adobe Illustrator 19.0.0, SVG Export Plug-In . SVG Version: 6.00 Build 0)  -->
<svg version="1.1" id="Layer_1" xmlns="http://www.w3.org/2000/svg" xmlns:xlink="http://www.w3.org/1999/xlink" x="0px" y="0px"
	 viewBox="75 -75 180 180" style="enable-background:new 75 -75 180 180;" xml:space="preserve">
<style type="text/css">
	.st0{fill:#FFFFFF;}
</style>
<path class="st0" d="M165-64.7c-9.6,0-19.1,1.8-28,5.4c-8.5,3.4-16.4,8.4-23.1,14.7s-12.3,13.8-16.4,22c-4.2,8.5-6.7,17.8-7.4,27.2
	c-0.3,4-0.4,8,0.3,12c0.6,3.5,1.6,6.8,3,10.1c3,7.1,7.3,13.6,12.2,19.5c5.2,6.3,11,12.1,17.1,17.5c5.7,5.1,11.7,9.8,17.9,14.3
	c7.2,5.3,14.7,10.3,22.5,14.8c0.1,0.1,0.2,0.1,0.3,0.2c1.8-1,3.6-2.1,5.4-3.1c4.6-2.7,9.2-5.6,13.7-8.6c6.2-4.1,12.2-8.5,18-13.2
	c6.4-5.1,12.5-10.6,18.2-16.5c5.4-5.7,10.5-11.9,14.4-18.8c3.5-6.1,6.1-12.9,6.6-20c0.6-9.2-1.2-18.9-4.3-27.6
	c-3.2-8.9-8-17.1-14.2-24.2c-6.1-7-13.6-12.9-21.8-17.2c-8.5-4.4-17.8-7.2-27.3-8.1C169.8-64.6,167.4-64.7,165-64.7z M164.5,39
	c-14.1,0-27.1-9-32-22.3c-5-13.4-0.7-28.9,10.3-38s27-10.3,39.3-2.9c12.2,7.4,18.6,22,15.8,36c-2.8,13.7-14.2,24.6-28.1,26.8
	C168,38.9,166.3,39,164.5,39z"/>
</svg>
