<?xml version="1.0" encoding="utf-8"?>
<!-- Generator: Adobe Illustrator 19.0.0, SVG Export Plug-In . SVG Version: 6.00 Build 0)  -->
<svg version="1.1"
	 id="svg8736" xmlns:svg="http://www.w3.org/2000/svg" xmlns:rdf="http://www.w3.org/1999/02/22-rdf-syntax-ns#" xmlns:cc="http://creativecommons.org/ns#" xmlns:inkscape="http://www.inkscape.org/namespaces/inkscape" xmlns:dc="http://purl.org/dc/elements/1.1/" xmlns:sodipodi="http://sodipodi.sourceforge.net/DTD/sodipodi-0.dtd"
	 xmlns="http://www.w3.org/2000/svg" xmlns:xlink="http://www.w3.org/1999/xlink" x="0px" y="0px" viewBox="-87 51 48 48"
	 style="enable-background:new -87 51 48 48;" xml:space="preserve">
<style type="text/css">
	.st0{fill:#FFFFFF;}
</style>
<g id="layer1">
	<path id="path9246" class="st0" d="M-73.2,55.2l18.7,1.7c2.8,0.3,4.7,2.8,4.7,5.3v27.3c0,0.7,0.1,1.4-0.2,2
		c2.1-0.1,3.5-1.9,3.5-4.1V59.3c0-2.3-1.8-4.1-4.1-4.1C-54.7,55.2-64.7,55.2-73.2,55.2z M-75.8,55.9c-2.1,0-3.7,1.6-3.7,3.8v28.6
		c0,2.3,1.9,4.3,4.2,4.6l20.1,1.8c2.3,0.2,4.2-1.5,4.2-3.8V62.4c0-2.4-1.9-4.3-4.2-4.6L-75.3,56C-75.5,56-75.6,55.9-75.8,55.9
		L-75.8,55.9z M-65.3,65c4.7,0.1,8.4,4,8.4,8.7c0,4.6-3.6,8.2-8.1,8.2c-0.1,0-0.1,0-0.2,0c0,0-0.1,0-0.1,0c-0.1,0-0.1,0-0.2,0
		c-0.1,0-0.1,0-0.2,0c-4.5-0.3-8.1-4.1-8.1-8.7C-73.8,68.5-70,64.8-65.3,65L-65.3,65z M-65.3,65.8c0,0-0.1,0-0.1,0
		c-1.2,0.8-2.2,2-2.9,3.3c1,0.4,2,0.6,3.1,0.6c1.1,0,2.1-0.1,3-0.4C-63,67.9-64,66.7-65.3,65.8C-65.2,65.8-65.3,65.8-65.3,65.8
		L-65.3,65.8z M-66.9,65.9c-1.4,0.3-2.7,0.9-3.7,1.9c0.5,0.4,1,0.7,1.6,0.9C-68.6,67.7-67.8,66.7-66.9,65.9z M-63.7,66
		c0.9,0.9,1.6,1.9,2.2,3c0.6-0.2,1.1-0.5,1.6-0.8C-60.9,67.1-62.2,66.4-63.7,66z M-71.2,68.4c-1,1.2-1.6,2.7-1.7,4.3l2.7,0.1
		c0.1-1.2,0.3-2.3,0.7-3.3C-70.1,69.2-70.7,68.9-71.2,68.4L-71.2,68.4z M-59.4,68.8c-0.6,0.4-1.2,0.7-1.8,1c0.4,1.1,0.7,2.2,0.7,3.4
		l2.8,0.1C-57.8,71.6-58.4,70-59.4,68.8z M-68.7,69.8c-0.4,0.9-0.6,2-0.6,3l8,0.3c0-1.1-0.3-2.1-0.6-3.1c-1.1,0.3-2.2,0.5-3.4,0.5
		C-66.5,70.5-67.6,70.3-68.7,69.8z M-72.9,73.6c0.1,1.7,0.7,3.2,1.7,4.5c0.5-0.4,1.1-0.7,1.8-1c-0.4-1.1-0.7-2.2-0.7-3.4
		C-70.2,73.7-72.9,73.6-72.9,73.6z M-69.3,73.7c0,1.1,0.3,2.1,0.7,3.1c1.1-0.3,2.2-0.5,3.4-0.5c1.2,0,2.3,0.3,3.3,0.7
		c0.4-0.9,0.6-2,0.6-3C-61.3,74-69.3,73.7-69.3,73.7z M-60.5,74c-0.1,1.2-0.3,2.3-0.7,3.3c0.6,0.3,1.2,0.7,1.8,1.1
		c1-1.2,1.6-2.7,1.7-4.3L-60.5,74z M-65.3,77.2c-1.1,0-2.1,0.1-3,0.4c0.7,1.4,1.7,2.6,2.9,3.5c0,0,0.1,0,0.1,0c0,0,0.1,0,0.1,0
		c1.2-0.8,2.2-2,2.9-3.3C-63.2,77.4-64.2,77.2-65.3,77.2L-65.3,77.2z M-69.1,77.9c-0.5,0.2-1.1,0.5-1.5,0.8c1,1,2.3,1.8,3.7,2.1
		C-67.8,80-68.6,79-69.1,77.9z M-61.5,78.1c-0.6,1.1-1.3,2.1-2.2,2.9c1.5-0.3,2.8-0.9,3.8-1.9C-60.4,78.6-61,78.3-61.5,78.1z
		 M-72.9,84.1l15.1,1.2c1.1,0.1,2,1.1,2,2.2c0,1.1-0.9,2-2,1.9l-15.1-1.2c-1.1-0.1-2-1.1-2-2.2C-74.9,84.9-74,84.1-72.9,84.1z"/>
</g>
</svg>
