<?xml version="1.0" encoding="utf-8"?>
<!-- Generator: Adobe Illustrator 19.0.0, SVG Export Plug-In . SVG Version: 6.00 Build 0)  -->
<svg version="1.1" id="Layer_1" xmlns="http://www.w3.org/2000/svg" xmlns:xlink="http://www.w3.org/1999/xlink" x="0px" y="0px"
	 viewBox="-83 46.3 56.7 56.7" style="enable-background:new -83 46.3 56.7 56.7;" xml:space="preserve">
<style type="text/css">
	.st0{fill:#FFFFFF;}
</style>
<g>
	<path class="st0" d="M-75.4,62.4l33.6-8.3l5.5,22.1c0.3,0.5,0.5,1.1,0.7,1.8h1.5h1c0.3,0,0.5,0,0.8,0.1V78l-6.6-26.4
		c-0.2-0.9-1.2-1.5-2.1-1.3l-37,9.2c-0.4,0.1-0.8,0.4-1.1,0.8c-0.3,0.4-0.2,0.8-0.1,1.3l6.6,26.4c0.2,0.8,0.9,1.3,1.7,1.3
		c0.1,0,0.3,0,0.4-0.1l7.3-1.8v-1.7v-1.8l-6.5,1.6L-75.4,62.4z"/>
	<circle class="st0" cx="-64.9" cy="67.8" r="3.3"/>
	<path class="st0" d="M-57.8,78h3.4c1-4.3,4.1-4.8,4.5-4.8h0.1h0.1h0.1h8.5c0.3,0,0.5,0,0.8,0.1l-4.8-7.5l-1.7,4.2l-6.7-5.8l-3.8,11
		c0,0-10.8,0-10.7,7.5l5.1-1.3C-62,79.3-59.9,78.1-57.8,78L-57.8,78z"/>
	<path class="st0" d="M-45.7,84.4c-2.7,0-5,2.2-5,5c0,2.7,2.2,5,5,5s5-2.2,5-5C-40.7,86.6-42.9,84.4-45.7,84.4z"/>
	<path class="st0" d="M-30,83.2c-0.1-1.1-0.8-3.1-3.1-3.1h-0.5h-3.8c0-0.3-0.1-0.5-0.1-0.8c-0.1-0.6-0.3-1.1-0.5-1.7
		c-0.3-0.8-0.8-1.5-1.6-1.9c-0.4-0.3-1-0.4-1.6-0.4h-8.5h-0.1c-0.2,0-2.1,0.3-2.7,3.6c-0.1,0.4-0.1,0.8-0.1,1.2h-4.9h-0.3
		c-0.5,0-1.1,0.2-1.7,0.5c-0.8,0.5-1.6,1.3-1.7,2.7c0,0.1,0,0.1,0,0.2v1.6v1.8V96c0,0.3,0,1.4,0.7,2.2c0.6,0.6,1.4,0.9,2.4,0.9h24.9
		l0,0c1.1-0.1,3.1-0.9,3.1-3.1L-30,83.2L-30,83.2z M-45.7,96.1c-3.7,0-6.8-3-6.8-6.8c0-2.1,0.9-3.9,2.4-5.2c1.2-1,2.7-1.6,4.3-1.6
		c0.5,0,1,0.1,1.4,0.2c3,0.7,5.3,3.4,5.3,6.6C-38.9,93.1-42,96.1-45.7,96.1z M-35.5,86.6c-0.7,0-1.3-0.6-1.3-1.3
		c0-0.7,0.6-1.3,1.3-1.3s1.3,0.6,1.3,1.3C-34.2,86-34.8,86.6-35.5,86.6z"/>
</g>
</svg>
