<svg enable-background="new 3 -3.7 56.7 56.7" viewBox="3 -3.7 56.7 56.7" xmlns="http://www.w3.org/2000/svg"><g fill="#666"><path d="m10.9 13.7 33.6-8.3 5.5 22.1c.3.5.5 1.1.7 1.8h1.5 1c.3 0 .5 0 .8.1v-.1l-6.6-26.4c-.2-.9-1.2-1.5-2.1-1.3l-37 9.2c-.4.1-.8.4-1.1.8s-.2.8-.1 1.3l6.6 26.4c.2.8.9 1.3 1.7 1.3.1 0 .3 0 .4-.1l7.3-1.8v-1.7-1.8l-6.5 1.6z"/><circle cx="21.4" cy="19.1" r="3.3"/><path d="m28.5 29.3h3.4c1-4.3 4.1-4.8 4.5-4.8h.1.1.1 8.5c.3 0 .5 0 .8.1l-4.8-7.5-1.7 4.2-6.7-5.8-3.8 11s-10.8 0-10.7 7.5l5.1-1.3c.9-2.1 3-3.3 5.1-3.4z"/><path d="m40.6 35.7c-2.7 0-5 2.2-5 5 0 2.7 2.2 5 5 5s5-2.2 5-5-2.2-5-5-5z"/><path d="m56.3 34.5c-.1-1.1-.8-3.1-3.1-3.1h-.5-3.8c0-.3-.1-.5-.1-.8-.1-.6-.3-1.1-.5-1.7-.3-.8-.8-1.5-1.6-1.9-.4-.3-1-.4-1.6-.4h-8.5-.1c-.2 0-2.1.3-2.7 3.6-.1.4-.1.8-.1 1.2h-4.9-.3c-.5 0-1.1.2-1.7.5-.8.5-1.6 1.3-1.7 2.7v.2 1.6 1.8 9.1c0 .3 0 1.4.7 2.2.6.6 1.4.9 2.4.9h24.9c1.1-.1 3.1-.9 3.1-3.1zm-15.7 12.9c-3.7 0-6.8-3-6.8-6.8 0-2.1.9-3.9 2.4-5.2 1.2-1 2.7-1.6 4.3-1.6.5 0 1 .1 1.4.2 3 .7 5.3 3.4 5.3 6.6.2 3.8-2.9 6.8-6.6 6.8zm10.2-9.5c-.7 0-1.3-.6-1.3-1.3s.6-1.3 1.3-1.3 1.3.6 1.3 1.3-.6 1.3-1.3 1.3z"/></g></svg>