<?xml version="1.0" encoding="utf-8"?>
<!-- Generator: Adobe Illustrator 25.4.1, SVG Export Plug-In . SVG Version: 6.00 Build 0)  -->
<svg version="1.1" id="Layer_1" xmlns="http://www.w3.org/2000/svg" xmlns:xlink="http://www.w3.org/1999/xlink" x="0px" y="0px"
	 viewBox="0 0 180 180" style="enable-background:new 0 0 180 180;" xml:space="preserve">
<style type="text/css">
	.st0{fill:none;stroke:#3C3C3C;stroke-width:17;stroke-miterlimit:10;}
	.st1{fill:#3C3C3C;}
</style>
<path class="st0" d="M165,85.3c0,41.4-76.4,82.6-76.4,82.6S15,126.7,15,85.3s33.6-75,75-75S165,43.9,165,85.3z"/>
<g>
	<path class="st1" d="M95.7,118.2H84.3c-1.1,0-2-0.9-2-2V49.8c0-1.1,0.9-2,2-2h11.4c1.1,0,2,0.9,2,2v66.3
		C97.7,117.3,96.8,118.2,95.7,118.2z"/>
	<path class="st1" d="M125.2,77.4v11.3c0,1.1-0.9,2-2,2H56.8c-1.1,0-2-0.9-2-2V77.4c0-1.1,0.9-2,2-2h66.3
		C124.3,75.4,125.2,76.3,125.2,77.4z"/>
</g>
</svg>
