<?xml version="1.0" encoding="utf-8"?>
<!-- Generator: Adobe Illustrator 19.0.0, SVG Export Plug-In . SVG Version: 6.00 Build 0)  -->
<svg version="1.1" id="Layer_1" xmlns="http://www.w3.org/2000/svg" xmlns:xlink="http://www.w3.org/1999/xlink" x="0px" y="0px"
	 viewBox="65 -65 180 180" style="enable-background:new 65 -65 180 180;" xml:space="preserve">
<style type="text/css">
	.st0{fill:none;stroke:#333333;stroke-width:20;stroke-miterlimit:10;}
	.st1{fill:#333333;}
</style>
<path class="st0" d="M230,20.3c0,41.4-76.4,82.6-76.4,82.6S80,61.7,80,20.3s33.6-75,75-75S230-21.1,230,20.3z"/>
<g>
	<path class="st1" d="M160.7,53.2h-11.4c-1.1,0-2-0.9-2-2v-66.4c0-1.1,0.9-2,2-2h11.4c1.1,0,2,0.9,2,2v66.3
		C162.7,52.3,161.8,53.2,160.7,53.2z"/>
	<path class="st1" d="M190.2,12.4v11.3c0,1.1-0.9,2-2,2h-66.4c-1.1,0-2-0.9-2-2V12.4c0-1.1,0.9-2,2-2h66.3
		C189.3,10.4,190.2,11.3,190.2,12.4z"/>
</g>
</svg>
