<svg enable-background="new 0 0 180 180" viewBox="0 0 180 180" xmlns="http://www.w3.org/2000/svg"><path d="m165 85.3c0 41.4-76.4 82.6-76.4 82.6s-73.6-41.2-73.6-82.6 33.6-75 75-75 75 33.6 75 75z" fill="none" stroke="#fff" stroke-miterlimit="10" stroke-width="20"/><g fill="#fff"><path d="m95.7 118.2h-11.4c-1.1 0-2-.9-2-2v-66.4c0-1.1.9-2 2-2h11.4c1.1 0 2 .9 2 2v66.3c0 1.2-.9 2.1-2 2.1z"/><path d="m125.2 77.4v11.3c0 1.1-.9 2-2 2h-66.4c-1.1 0-2-.9-2-2v-11.3c0-1.1.9-2 2-2h66.3c1.2 0 2.1.9 2.1 2z"/></g></svg>