<?xml version="1.0" encoding="utf-8"?>
<!-- Generator: Adobe Illustrator 19.0.0, SVG Export Plug-In . SVG Version: 6.00 Build 0)  -->
<svg version="1.1" id="Layer_1" xmlns="http://www.w3.org/2000/svg" xmlns:xlink="http://www.w3.org/1999/xlink" x="0px" y="0px"
	 viewBox="70 -70 300 300" style="enable-background:new 70 -70 300 300;" xml:space="preserve">
<style type="text/css">
	.st0{fill:#4D4D4D;}
</style>
<path class="st0" d="M338.5-20.6l-5.4-6.9l-7.5-5.7l-14.1-5.1l-9-2.1l-6.7-0.5l-8,1l-8.5,2.1l-8.7,5.7l-15.9,19.8l15.9-30.3
	L248.5-33l-9,5.9l-8,6.4l-7.7,10l-6.7,13.1L201,38.2l1.5-11.1l3.6-14.7l2.8-7.7l3.1-9.3l-9.5,3.9l-10.8,6.4L185,11l-10.5,9.3
	l-6.7,7.5l-5.7,8l-10.5,17l-6.7,17.2l-5.1,20.3l-3.6,26.5v-13.1l1.3-17.5l6.7-29L133.9,68l-2.6,4.4l-4.6,7.5l-4.1,10.5l-2.1,7.7
	l-0.8,12.3l1,8.2l-7.5-3.6l4.4,14.9l-12.9-1.8l7.5,9.3l7.2,12.3h0.3c-8.7,17.7-15.4,35.5-20.3,53l10.8-2.1
	c8.5-30.1,22.6-60.9,42.2-90.7C196.1,43.9,258.8-1.1,311.8-11.4c7.5-1,14.9-1.5,21.9-1c-55,12.1-110.5,38-169.7,117.7
	c-10.3,13.9-19.5,30.1-27.2,46l8.7,2.3l12.9,4.4l-8-6.7H183l-11.3-4.6l-7.2-2.8l-6.4-5.1l-3.3-3.1h8l13.9-0.3l14.1-2.6l8.7-2.1
	l14.7-4.6l21.3-9.5l8-5.7l-12.9-1.3l-10.5-2.6l11.1-4.4l10.5-4.1l8-4.4l9.3-6.4l9.3-7.2l7.2-5.9l6.9-4.6l8.7-5.9l12.3-10.3L291,56.5
	l-15.4,2.1l-14.7,0.8l-6.7,0.5l-9.8-0.5l-9.5-2.1l-8.5-3.1l24.4,0.5l16.7-0.5l12.9-2.1l4.6-0.8l10-3.1l10.8-5.1l8.2-5.1l8.2-6.7
	l2.8-3.3l10.5-12.3l3.6-9.3l1.3-8.7v-8L338.5-20.6L338.5-20.6z"/>
</svg>
