<svg xmlns="http://www.w3.org/2000/svg" viewBox="63 -63 128 128"  xmlns:v="https://vecta.io/nano"><path d="M173.1-35.1l-2.1-2.7-2.9-2.2-5.5-2-3.5-.8-2.6-.2-3.1.4-3.3.8-3.4 2.2-6.2 7.7 6.2-11.8-8.6 3.8-3.5 2.3-3.1 2.5-3 3.9-2.6 5.1-6.3 13.9.6-4.3 1.4-5.7 1.1-3 1.2-3.6-3.7 1.5-4.2 2.5-2.6 2-4.1 3.6-2.6 2.9-2.2 3.1-4.1 6.6L97.8.1l-2 7.9-1.4 10.3v-5.1l.5-6.8 2.6-11.3-4 4.3-1 1.7L90.7 4l-1.6 4.1-.8 3-.3 4.8.4 3.2-2.9-1.4 1.7 5.8-5-.7 2.9 3.6 2.8 4.8h.1c-3.4 6.9-6 13.8-7.9 20.6l4.2-.8c3.3-11.7 8.8-23.7 16.4-35.3 17-25.7 41.4-43.2 62-47.2 2.9-.4 5.8-.6 8.5-.4-21.4 4.7-43 14.8-66 45.8-4 5.4-7.6 11.7-10.6 17.9l3.4.9 5 1.7-3.1-2.6h12.7l-4.4-1.8-2.8-1.1-2.5-2-1.3-1.2h3.1l5.4-.1 5.5-1 3.4-.8 5.7-1.8 8.3-3.7 3.1-2.2-5-.5-4.1-1 4.3-1.7 4.1-1.6 3.1-1.7 3.6-2.5 3.6-2.8 2.8-2.3 2.7-1.8 3.4-2.3 4.8-4-4.8 1-6 .8-5.7.3-2.6.2-3.8-.2-3.7-.8-3.3-1.2 9.5.2 6.5-.2 5-.8 1.8-.3 3.9-1.2 4.2-2 3.2-2 3.2-2.6 1.1-1.3L172-21l1.4-3.6.5-3.4v-3.1l-.8-4z" fill="#555"/></svg>