<?xml version="1.0" encoding="utf-8"?>
<!-- Generator: Adobe Illustrator 19.0.0, SVG Export Plug-In . SVG Version: 6.00 Build 0)  -->
<svg version="1.1" id="Layer_1" xmlns="http://www.w3.org/2000/svg" xmlns:xlink="http://www.w3.org/1999/xlink" x="0px" y="0px"
	 viewBox="0 2 48 48" style="enable-background:new 0 2 48 48;" xml:space="preserve">
<style type="text/css">
	.st0{fill:#3C3C3C;}
</style>
<path class="st0" d="M47.5,26C47.5,13,37,2.5,24,2.5S0.5,13,0.5,26c0,12.6,10,22.9,22.5,23.5l0,0h24.5v-2H33.6
	C41.8,43.8,47.5,35.6,47.5,26z M36.2,20.8c2.8,0,5.2,2.3,5.2,5.2c0,2.8-2.3,5.2-5.2,5.2c-2.8,0-5.2-2.3-5.2-5.2
	C31,23.2,33.3,20.8,36.2,20.8z M24,8.7c2.8,0,5.2,2.3,5.2,5.2c0,2.8-2.3,5.2-5.2,5.2c-2.8,0-5.2-2.3-5.2-5.2S21.2,8.7,24,8.7z
	 M26.5,26c0,1.4-1.1,2.5-2.5,2.5s-2.5-1.1-2.5-2.5s1.1-2.5,2.5-2.5S26.5,24.6,26.5,26z M11.8,31.2c-2.8,0-5.2-2.3-5.2-5.2
	c0-2.8,2.3-5.2,5.2-5.2c2.8,0,5.2,2.3,5.2,5.2C17,28.8,14.7,31.2,11.8,31.2z M18.8,38.2c0-2.8,2.3-5.2,5.2-5.2
	c2.8,0,5.2,2.3,5.2,5.2s-2.3,5.2-5.2,5.2C21.2,43.3,18.8,41,18.8,38.2z"/>
</svg>
