<svg enable-background="new -137 139 24 24" viewBox="-137 139 24 24" xmlns="http://www.w3.org/2000/svg"><path d="m-137 139h24v24h-24z" fill="none"/><path d="m-129 146c-.6 0-1-.4-1-1s.4-1 1-1h8c2.2 0 4 1.8 4 4s-1.8 4-4 4h-8c-1.1 0-2 .9-2 2s.9 2 2 2h9c.6 0 1 .4 1 1s-.4 1-1 1h-9c-2.2 0-4-1.8-4-4s1.8-4 4-4h8c1.1 0 2-.9 2-2s-.9-2-2-2z" fill="#fe2905"/><path d="m-127.3 147.3c.4.4.4 1 0 1.4s-1 .4-1.4 0l-3-3c-.4-.4-.4-1 0-1.4l3-3c.4-.4 1-.4 1.4 0s.4 1 0 1.4l-2.3 2.3z" fill="#000333"/><path d="m-122.7 159.3c-.4.4-.4 1 0 1.4s1 .4 1.4 0l3-3c.4-.4.4-1 0-1.4l-3-3c-.4-.4-1-.4-1.4 0s-.4 1 0 1.4l2.3 2.3z" fill="#333"/></svg>