<?xml version="1.0" encoding="utf-8"?>
<!-- Generator: Adobe Illustrator 19.0.0, SVG Export Plug-In . SVG Version: 6.00 Build 0)  -->
<svg version="1.1" id="Layer_1" xmlns="http://www.w3.org/2000/svg" xmlns:xlink="http://www.w3.org/1999/xlink" x="0px" y="0px"
	 viewBox="-934 516 50 50" style="enable-background:new -934 516 50 50;" xml:space="preserve">
<style type="text/css">
	.st0{fill:#474747;stroke:#474747;stroke-miterlimit:10;}
</style>
<path class="st0" d="M-901.9,535.2c2.7,0,4.9-2.2,4.9-4.9c0-2.7-2.2-4.9-4.9-4.9c-2.7,0-4.9,2.2-4.9,4.9c0,0.6,0.1,1.2,0.4,1.8
	l-9.8,5.7c-0.9-0.9-2.1-1.5-3.5-1.5c-2.7,0-4.9,2.2-4.9,4.9c0,2.7,2.2,4.9,4.9,4.9c1.4,0,2.6-0.6,3.5-1.5l9.7,6.1
	c-0.2,0.5-0.3,1.1-0.3,1.7c0,2.7,2.2,4.9,4.9,4.9c2.7,0,4.9-2.2,4.9-4.9c0-2.7-2.2-4.9-4.9-4.9c-1.4,0-2.7,0.6-3.6,1.6l-9.7-6.1
	c0.2-0.5,0.3-1.1,0.3-1.7c0-0.6-0.1-1.2-0.3-1.8l9.8-5.7C-904.4,534.6-903.2,535.2-901.9,535.2z M-901.9,549.4
	c1.6,0,2.9,1.3,2.9,2.9c0,1.6-1.3,2.9-2.9,2.9c-1.6,0-2.9-1.3-2.9-2.9c0-0.5,0.2-1,0.4-1.5c0,0,0,0,0,0c0,0,0,0,0-0.1
	C-903.8,550-902.9,549.4-901.9,549.4z M-919.7,544.1c-1.6,0-2.9-1.3-2.9-2.9c0-1.6,1.3-2.9,2.9-2.9c1,0,1.8,0.5,2.3,1.2
	c0,0,0,0.1,0,0.1c0,0.1,0.1,0.2,0.2,0.2c0.2,0.4,0.4,0.9,0.4,1.4c0,0.6-0.2,1.1-0.5,1.6c0,0,0,0,0,0c0,0,0,0,0,0
	C-917.8,543.6-918.7,544.1-919.7,544.1z M-901.9,527.3c1.6,0,2.9,1.3,2.9,2.9c0,1.6-1.3,2.9-2.9,2.9c-1.6,0-2.9-1.3-2.9-2.9
	C-904.8,528.6-903.5,527.3-901.9,527.3z"/>
</svg>
