<?xml version="1.0" encoding="utf-8"?>
<!-- Generator: Adobe Illustrator 19.0.0, SVG Export Plug-In . SVG Version: 6.00 Build 0)  -->
<svg version="1.1" id="Layer_1" xmlns="http://www.w3.org/2000/svg" xmlns:xlink="http://www.w3.org/1999/xlink" x="0px" y="0px"
	 viewBox="-227 219 44 64" style="enable-background:new -227 219 44 64;" xml:space="preserve">
<style type="text/css">
	.st0{fill:#9AAF4F;stroke:#FFFFFF;stroke-width:2;stroke-miterlimit:10;}
	.st1{fill:#FFFEFD;}
	.st2{fill:#FF0051;}
	.st3{fill:#FFD700;stroke:#FFFFFF;stroke-width:2;stroke-miterlimit:10;}
	.st4{fill:#FFFFFF;}
	.st5{filter:url(#Adobe_OpacityMaskFilter);}
	.st6{opacity:0.38;mask:url(#SVGID_2_);}
	.st7{fill:#050505;}
	.st8{fill:none;stroke:#FFFFFF;stroke-width:2;stroke-miterlimit:10;}
</style>
<g>
	<g id="Shape_1_">
		<g>
			<circle class="st0" cx="-205" cy="240.7" r="20.8"/>
		</g>
	</g>
</g>
<g id="Shape_34_">
	<g>
		<polygon class="st1" points="-215,255.3 -215,282.7 -205,273.6 -195,282.7 -195,255.3 		"/>
	</g>
</g>
<g id="Shape_35_">
	<g>
		<polygon class="st2" points="-205,273.6 -201.1,277.2 -201,255.1 -209,255.1 -209,277.2 		"/>
	</g>
</g>
<g id="Shape_36_">
	<g>
		<circle class="st3" cx="-205" cy="240.7" r="20.8"/>
	</g>
</g>
<path class="st4" d="M-205.1,229.3l3.3,6.7c0,0.1,0.1,0.1,0.2,0.1l7.4,1.1c0.2,0,0.3,0.3,0.1,0.4l-5.3,5.2c-0.1,0.1-0.1,0.1-0.1,0.2
	l1.3,7.3c0,0.2-0.2,0.4-0.4,0.3l-6.6-3.5c-0.1,0-0.2,0-0.2,0l-6.6,3.5c-0.2,0.1-0.4-0.1-0.4-0.3l1.3-7.3c0-0.1,0-0.2-0.1-0.2
	l-5.3-5.2c-0.1-0.1-0.1-0.4,0.1-0.4l7.4-1.1c0.1,0,0.2-0.1,0.2-0.1l3.3-6.7C-205.5,229.1-205.2,229.1-205.1,229.3z"/>
<defs>
	<filter id="Adobe_OpacityMaskFilter" filterUnits="userSpaceOnUse" x="-216.6" y="229.2" width="53.1" height="43.1">
		<feColorMatrix  type="matrix" values="1 0 0 0 0  0 1 0 0 0  0 0 1 0 0  0 0 0 1 0"/>
	</filter>
</defs>
<mask maskUnits="userSpaceOnUse" x="-216.6" y="229.2" width="53.1" height="43.1" id="SVGID_2_">
	<g class="st5">
		<g id="Shape_3_">
			<g>
				<circle class="st0" cx="-205" cy="240.7" r="20.8"/>
			</g>
		</g>
	</g>
</mask>
<g class="st6">
	<path class="st7" d="M-205.1,229.3l3.3,6.7c0,0.1,0.1,0.1,0.2,0.1l7.4,1.1c0.2,0,0.3,0.3,0.1,0.4l-5.3,5.2
		c-0.1,0.1-0.1,0.1-0.1,0.2l1.3,7.3c0,0.2-0.2,0.4-0.4,0.3l-6.6-3.5c-0.1,0-0.2,0-0.2,0l-6.6,3.5c-0.2,0.1-0.4-0.1-0.4-0.3l1.3-7.3
		c0-0.1,0-0.2-0.1-0.2l-5.3-5.2c-0.1-0.1-0.1-0.4,0.1-0.4l7.4-1.1c0.1,0,0.2-0.1,0.2-0.1l3.3-6.7
		C-205.5,229.1-205.2,229.1-205.1,229.3z"/>
	<path class="st7" d="M-204.9,229.4l3.3,6.7c0,0.1,0.1,0.1,0.2,0.1l7.4,1.1c0.2,0,0.3,0.3,0.1,0.4l-5.3,5.2
		c-0.1,0.1-0.1,0.1-0.1,0.2l1.3,7.3c0,0.2-0.2,0.4-0.4,0.3l-6.6-3.5c-0.1,0-0.2,0-0.2,0l-6.6,3.5c-0.2,0.1-0.4-0.1-0.4-0.3l1.3-7.3
		c0-0.1,0-0.2-0.1-0.2l-5.3-5.2c-0.1-0.1-0.1-0.4,0.1-0.4l7.4-1.1c0.1,0,0.2-0.1,0.2-0.1l3.3-6.7
		C-205.3,229.2-205,229.2-204.9,229.4z"/>
	<path class="st7" d="M-204.8,229.6l3.3,6.7c0,0.1,0.1,0.1,0.2,0.1l7.4,1.1c0.2,0,0.3,0.3,0.1,0.4l-5.3,5.2
		c-0.1,0.1-0.1,0.1-0.1,0.2l1.3,7.3c0,0.2-0.2,0.4-0.4,0.3l-6.6-3.5c-0.1,0-0.2,0-0.2,0l-6.6,3.5c-0.2,0.1-0.4-0.1-0.4-0.3l1.3-7.3
		c0-0.1,0-0.2-0.1-0.2l-5.3-5.2c-0.1-0.1-0.1-0.4,0.1-0.4l7.4-1.1c0.1,0,0.2-0.1,0.2-0.1l3.3-6.7
		C-205.1,229.4-204.9,229.4-204.8,229.6z"/>
	<path class="st7" d="M-204.6,229.7l3.3,6.7c0,0.1,0.1,0.1,0.2,0.1l7.4,1.1c0.2,0,0.3,0.3,0.1,0.4l-5.3,5.2
		c-0.1,0.1-0.1,0.1-0.1,0.2l1.3,7.3c0,0.2-0.2,0.4-0.4,0.3l-6.6-3.5c-0.1,0-0.2,0-0.2,0l-6.6,3.5c-0.2,0.1-0.4-0.1-0.4-0.3l1.3-7.3
		c0-0.1,0-0.2-0.1-0.2l-5.3-5.2c-0.1-0.1-0.1-0.4,0.1-0.4l7.4-1.1c0.1,0,0.2-0.1,0.2-0.1l3.3-6.7
		C-204.9,229.5-204.7,229.5-204.6,229.7z"/>
	<path class="st7" d="M-204.4,229.8l3.3,6.7c0,0.1,0.1,0.1,0.2,0.1l7.4,1.1c0.2,0,0.3,0.3,0.1,0.4l-5.3,5.2
		c-0.1,0.1-0.1,0.1-0.1,0.2l1.3,7.3c0,0.2-0.2,0.4-0.4,0.3l-6.6-3.5c-0.1,0-0.2,0-0.2,0l-6.6,3.5c-0.2,0.1-0.4-0.1-0.4-0.3l1.3-7.3
		c0-0.1,0-0.2-0.1-0.2l-5.3-5.2c-0.1-0.1-0.1-0.4,0.1-0.4l7.4-1.1c0.1,0,0.2-0.1,0.2-0.1l3.3-6.7
		C-204.8,229.6-204.5,229.6-204.4,229.8z"/>
	<path class="st7" d="M-204.2,229.9l3.3,6.7c0,0.1,0.1,0.1,0.2,0.1l7.4,1.1c0.2,0,0.3,0.3,0.1,0.4l-5.3,5.2
		c-0.1,0.1-0.1,0.1-0.1,0.2l1.3,7.3c0,0.2-0.2,0.4-0.4,0.3l-6.6-3.5c-0.1,0-0.2,0-0.2,0l-6.6,3.5c-0.2,0.1-0.4-0.1-0.4-0.3l1.3-7.3
		c0-0.1,0-0.2-0.1-0.2l-5.3-5.2c-0.1-0.1-0.1-0.4,0.1-0.4l7.4-1.1c0.1,0,0.2-0.1,0.2-0.1l3.3-6.7
		C-204.6,229.8-204.3,229.8-204.2,229.9z"/>
	<path class="st7" d="M-204,230.1l3.3,6.7c0,0.1,0.1,0.1,0.2,0.1l7.4,1.1c0.2,0,0.3,0.3,0.1,0.4l-5.3,5.2c-0.1,0.1-0.1,0.1-0.1,0.2
		l1.3,7.3c0,0.2-0.2,0.4-0.4,0.3l-6.6-3.5c-0.1,0-0.2,0-0.2,0l-6.6,3.5c-0.2,0.1-0.4-0.1-0.4-0.3l1.3-7.3c0-0.1,0-0.2-0.1-0.2
		l-5.3-5.2c-0.1-0.1-0.1-0.4,0.1-0.4l7.4-1.1c0.1,0,0.2-0.1,0.2-0.1l3.3-6.7C-204.4,229.9-204.1,229.9-204,230.1z"/>
	<path class="st7" d="M-203.9,230.2l3.3,6.7c0,0.1,0.1,0.1,0.2,0.1l7.4,1.1c0.2,0,0.3,0.3,0.1,0.4l-5.3,5.2
		c-0.1,0.1-0.1,0.1-0.1,0.2l1.3,7.3c0,0.2-0.2,0.4-0.4,0.3l-6.6-3.5c-0.1,0-0.2,0-0.2,0l-6.6,3.5c-0.2,0.1-0.4-0.1-0.4-0.3l1.3-7.3
		c0-0.1,0-0.2-0.1-0.2l-5.3-5.2c-0.1-0.1-0.1-0.4,0.1-0.4l7.4-1.1c0.1,0,0.2-0.1,0.2-0.1l3.3-6.7C-204.2,230-204,230-203.9,230.2z"
		/>
	<path class="st7" d="M-203.7,230.3l3.3,6.7c0,0.1,0.1,0.1,0.2,0.1l7.4,1.1c0.2,0,0.3,0.3,0.1,0.4l-5.3,5.2
		c-0.1,0.1-0.1,0.1-0.1,0.2l1.3,7.3c0,0.2-0.2,0.4-0.4,0.3l-6.6-3.5c-0.1,0-0.2,0-0.2,0l-6.6,3.5c-0.2,0.1-0.4-0.1-0.4-0.3l1.3-7.3
		c0-0.1,0-0.2-0.1-0.2l-5.3-5.2c-0.1-0.1-0.1-0.4,0.1-0.4l7.4-1.1c0.1,0,0.2-0.1,0.2-0.1l3.3-6.7
		C-204,230.1-203.8,230.1-203.7,230.3z"/>
	<path class="st7" d="M-203.5,230.4l3.3,6.7c0,0.1,0.1,0.1,0.2,0.1l7.4,1.1c0.2,0,0.3,0.3,0.1,0.4l-5.3,5.2
		c-0.1,0.1-0.1,0.1-0.1,0.2l1.3,7.3c0,0.2-0.2,0.4-0.4,0.3l-6.6-3.5c-0.1,0-0.2,0-0.2,0l-6.6,3.5c-0.2,0.1-0.4-0.1-0.4-0.3l1.3-7.3
		c0-0.1,0-0.2-0.1-0.2l-5.3-5.2c-0.1-0.1-0.1-0.4,0.1-0.4l7.4-1.1c0.1,0,0.2-0.1,0.2-0.1l3.3-6.7
		C-203.9,230.3-203.6,230.3-203.5,230.4z"/>
	<path class="st7" d="M-203.3,230.6l3.3,6.7c0,0.1,0.1,0.1,0.2,0.1l7.4,1.1c0.2,0,0.3,0.3,0.1,0.4l-5.3,5.2
		c-0.1,0.1-0.1,0.1-0.1,0.2l1.3,7.3c0,0.2-0.2,0.4-0.4,0.3l-6.6-3.5c-0.1,0-0.2,0-0.2,0l-6.6,3.5c-0.2,0.1-0.4-0.1-0.4-0.3l1.3-7.3
		c0-0.1,0-0.2-0.1-0.2l-5.3-5.2c-0.1-0.1-0.1-0.4,0.1-0.4l7.4-1.1c0.1,0,0.2-0.1,0.2-0.1l3.3-6.7
		C-203.7,230.4-203.4,230.4-203.3,230.6z"/>
	<path class="st7" d="M-203.2,230.7l3.3,6.7c0,0.1,0.1,0.1,0.2,0.1l7.4,1.1c0.2,0,0.3,0.3,0.1,0.4l-5.3,5.2
		c-0.1,0.1-0.1,0.1-0.1,0.2l1.3,7.3c0,0.2-0.2,0.4-0.4,0.3l-6.6-3.5c-0.1,0-0.2,0-0.2,0l-6.6,3.5c-0.2,0.1-0.4-0.1-0.4-0.3l1.3-7.3
		c0-0.1,0-0.2-0.1-0.2l-5.3-5.2c-0.1-0.1-0.1-0.4,0.1-0.4l7.4-1.1c0.1,0,0.2-0.1,0.2-0.1l3.3-6.7
		C-203.5,230.5-203.2,230.5-203.2,230.7z"/>
	<path class="st7" d="M-203,230.8l3.3,6.7c0,0.1,0.1,0.1,0.2,0.1l7.4,1.1c0.2,0,0.3,0.3,0.1,0.4l-5.3,5.2c-0.1,0.1-0.1,0.1-0.1,0.2
		l1.3,7.3c0,0.2-0.2,0.4-0.4,0.3l-6.6-3.5c-0.1,0-0.2,0-0.2,0l-6.6,3.5c-0.2,0.1-0.4-0.1-0.4-0.3l1.3-7.3c0-0.1,0-0.2-0.1-0.2
		l-5.3-5.2c-0.1-0.1-0.1-0.4,0.1-0.4l7.4-1.1c0.1,0,0.2-0.1,0.2-0.1l3.3-6.7C-203.3,230.6-203.1,230.6-203,230.8z"/>
	<path class="st7" d="M-202.8,230.9l3.3,6.7c0,0.1,0.1,0.1,0.2,0.1l7.4,1.1c0.2,0,0.3,0.3,0.1,0.4l-5.3,5.2
		c-0.1,0.1-0.1,0.1-0.1,0.2l1.3,7.3c0,0.2-0.2,0.4-0.4,0.3l-6.6-3.5c-0.1,0-0.2,0-0.2,0l-6.6,3.5c-0.2,0.1-0.4-0.1-0.4-0.3l1.3-7.3
		c0-0.1,0-0.2-0.1-0.2l-5.3-5.2c-0.1-0.1-0.1-0.4,0.1-0.4l7.4-1.1c0.1,0,0.2-0.1,0.2-0.1l3.3-6.7
		C-203.2,230.8-202.9,230.8-202.8,230.9z"/>
	<path class="st7" d="M-202.6,231.1l3.3,6.7c0,0.1,0.1,0.1,0.2,0.1l7.4,1.1c0.2,0,0.3,0.3,0.1,0.4l-5.3,5.2
		c-0.1,0.1-0.1,0.1-0.1,0.2l1.3,7.3c0,0.2-0.2,0.4-0.4,0.3l-6.6-3.5c-0.1,0-0.2,0-0.2,0l-6.6,3.5c-0.2,0.1-0.4-0.1-0.4-0.3l1.3-7.3
		c0-0.1,0-0.2-0.1-0.2l-5.3-5.2c-0.1-0.1-0.1-0.4,0.1-0.4l7.4-1.1c0.1,0,0.2-0.1,0.2-0.1l3.3-6.7
		C-203,230.9-202.7,230.9-202.6,231.1z"/>
	<path class="st7" d="M-202.4,231.2l3.3,6.7c0,0.1,0.1,0.1,0.2,0.1l7.4,1.1c0.2,0,0.3,0.3,0.1,0.4l-5.3,5.2
		c-0.1,0.1-0.1,0.1-0.1,0.2l1.3,7.3c0,0.2-0.2,0.4-0.4,0.3l-6.6-3.5c-0.1,0-0.2,0-0.2,0l-6.6,3.5c-0.2,0.1-0.4-0.1-0.4-0.3l1.3-7.3
		c0-0.1,0-0.2-0.1-0.2l-5.3-5.2c-0.1-0.1-0.1-0.4,0.1-0.4l7.4-1.1c0.1,0,0.2-0.1,0.2-0.1l3.3-6.7C-202.8,231-202.5,231-202.4,231.2z
		"/>
	<path class="st7" d="M-202.3,231.3l3.3,6.7c0,0.1,0.1,0.1,0.2,0.1l7.4,1.1c0.2,0,0.3,0.3,0.1,0.4l-5.3,5.2
		c-0.1,0.1-0.1,0.1-0.1,0.2l1.3,7.3c0,0.2-0.2,0.4-0.4,0.3l-6.6-3.5c-0.1,0-0.2,0-0.2,0l-6.6,3.5c-0.2,0.1-0.4-0.1-0.4-0.3l1.3-7.3
		c0-0.1,0-0.2-0.1-0.2l-5.3-5.2c-0.1-0.1-0.1-0.4,0.1-0.4l7.4-1.1c0.1,0,0.2-0.1,0.2-0.1l3.3-6.7
		C-202.6,231.1-202.4,231.1-202.3,231.3z"/>
	<path class="st7" d="M-202.1,231.5l3.3,6.7c0,0.1,0.1,0.1,0.2,0.1l7.4,1.1c0.2,0,0.3,0.3,0.1,0.4l-5.3,5.2
		c-0.1,0.1-0.1,0.1-0.1,0.2l1.3,7.3c0,0.2-0.2,0.4-0.4,0.3l-6.6-3.5c-0.1,0-0.2,0-0.2,0l-6.6,3.5c-0.2,0.1-0.4-0.1-0.4-0.3l1.3-7.3
		c0-0.1,0-0.2-0.1-0.2l-5.3-5.2c-0.1-0.1-0.1-0.4,0.1-0.4l7.4-1.1c0.1,0,0.2-0.1,0.2-0.1l3.3-6.7
		C-202.4,231.3-202.2,231.3-202.1,231.5z"/>
	<path class="st7" d="M-201.9,231.6l3.3,6.7c0,0.1,0.1,0.1,0.2,0.1l7.4,1.1c0.2,0,0.3,0.3,0.1,0.4l-5.3,5.2
		c-0.1,0.1-0.1,0.1-0.1,0.2l1.3,7.3c0,0.2-0.2,0.4-0.4,0.3l-6.6-3.5c-0.1,0-0.2,0-0.2,0l-6.6,3.5c-0.2,0.1-0.4-0.1-0.4-0.3l1.3-7.3
		c0-0.1,0-0.2-0.1-0.2l-5.3-5.2c-0.1-0.1-0.1-0.4,0.1-0.4l7.4-1.1c0.1,0,0.2-0.1,0.2-0.1l3.3-6.7
		C-202.3,231.4-202,231.4-201.9,231.6z"/>
	<path class="st7" d="M-201.7,231.7l3.3,6.7c0,0.1,0.1,0.1,0.2,0.1l7.4,1.1c0.2,0,0.3,0.3,0.1,0.4l-5.3,5.2
		c-0.1,0.1-0.1,0.1-0.1,0.2l1.3,7.3c0,0.2-0.2,0.4-0.4,0.3l-6.6-3.5c-0.1,0-0.2,0-0.2,0l-6.6,3.5c-0.2,0.1-0.4-0.1-0.4-0.3l1.3-7.3
		c0-0.1,0-0.2-0.1-0.2l-5.3-5.2c-0.1-0.1-0.1-0.4,0.1-0.4l7.4-1.1c0.1,0,0.2-0.1,0.2-0.1l3.3-6.7
		C-202.1,231.5-201.8,231.5-201.7,231.7z"/>
	<path class="st7" d="M-201.5,231.8l3.3,6.7c0,0.1,0.1,0.1,0.2,0.1l7.4,1.1c0.2,0,0.3,0.3,0.1,0.4l-5.3,5.2
		c-0.1,0.1-0.1,0.1-0.1,0.2l1.3,7.3c0,0.2-0.2,0.4-0.4,0.3l-6.6-3.5c-0.1,0-0.2,0-0.2,0l-6.6,3.5c-0.2,0.1-0.4-0.1-0.4-0.3l1.3-7.3
		c0-0.1,0-0.2-0.1-0.2l-5.3-5.2c-0.1-0.1-0.1-0.4,0.1-0.4l7.4-1.1c0.1,0,0.2-0.1,0.2-0.1l3.3-6.7
		C-201.9,231.6-201.6,231.6-201.5,231.8z"/>
	<path class="st7" d="M-201.4,232l3.3,6.7c0,0.1,0.1,0.1,0.2,0.1l7.4,1.1c0.2,0,0.3,0.3,0.1,0.4l-5.3,5.2c-0.1,0.1-0.1,0.1-0.1,0.2
		l1.3,7.3c0,0.2-0.2,0.4-0.4,0.3l-6.6-3.5c-0.1,0-0.2,0-0.2,0l-6.6,3.5c-0.2,0.1-0.4-0.1-0.4-0.3l1.3-7.3c0-0.1,0-0.2-0.1-0.2
		l-5.3-5.2c-0.1-0.1-0.1-0.4,0.1-0.4l7.4-1.1c0.1,0,0.2-0.1,0.2-0.1l3.3-6.7C-201.7,231.8-201.5,231.8-201.4,232z"/>
	<path class="st7" d="M-201.2,232.1l3.3,6.7c0,0.1,0.1,0.1,0.2,0.1l7.4,1.1c0.2,0,0.3,0.3,0.1,0.4l-5.3,5.2
		c-0.1,0.1-0.1,0.1-0.1,0.2l1.3,7.3c0,0.2-0.2,0.4-0.4,0.3l-6.6-3.5c-0.1,0-0.2,0-0.2,0l-6.6,3.5c-0.2,0.1-0.4-0.1-0.4-0.3l1.3-7.3
		c0-0.1,0-0.2-0.1-0.2l-5.3-5.2c-0.1-0.1-0.1-0.4,0.1-0.4l7.4-1.1c0.1,0,0.2-0.1,0.2-0.1l3.3-6.7
		C-201.5,231.9-201.3,231.9-201.2,232.1z"/>
	<path class="st7" d="M-201,232.2l3.3,6.7c0,0.1,0.1,0.1,0.2,0.1l7.4,1.1c0.2,0,0.3,0.3,0.1,0.4l-5.3,5.2c-0.1,0.1-0.1,0.1-0.1,0.2
		l1.3,7.3c0,0.2-0.2,0.4-0.4,0.3l-6.6-3.5c-0.1,0-0.2,0-0.2,0l-6.6,3.5c-0.2,0.1-0.4-0.1-0.4-0.3l1.3-7.3c0-0.1,0-0.2-0.1-0.2
		l-5.3-5.2c-0.1-0.1-0.1-0.4,0.1-0.4l7.4-1.1c0.1,0,0.2-0.1,0.2-0.1l3.3-6.7C-201.4,232-201.1,232-201,232.2z"/>
	<path class="st7" d="M-200.8,232.3l3.3,6.7c0,0.1,0.1,0.1,0.2,0.1l7.4,1.1c0.2,0,0.3,0.3,0.1,0.4l-5.3,5.2
		c-0.1,0.1-0.1,0.1-0.1,0.2l1.3,7.3c0,0.2-0.2,0.4-0.4,0.3l-6.6-3.5c-0.1,0-0.2,0-0.2,0l-6.6,3.5c-0.2,0.1-0.4-0.1-0.4-0.3l1.3-7.3
		c0-0.1,0-0.2-0.1-0.2l-5.3-5.2c-0.1-0.1-0.1-0.4,0.1-0.4l7.4-1.1c0.1,0,0.2-0.1,0.2-0.1l3.3-6.7
		C-201.2,232.2-200.9,232.2-200.8,232.3z"/>
	<path class="st7" d="M-200.7,232.5l3.3,6.7c0,0.1,0.1,0.1,0.2,0.1l7.4,1.1c0.2,0,0.3,0.3,0.1,0.4l-5.3,5.2
		c-0.1,0.1-0.1,0.1-0.1,0.2l1.3,7.3c0,0.2-0.2,0.4-0.4,0.3l-6.6-3.5c-0.1,0-0.2,0-0.2,0l-6.6,3.5c-0.2,0.1-0.4-0.1-0.4-0.3l1.3-7.3
		c0-0.1,0-0.2-0.1-0.2l-5.3-5.2c-0.1-0.1-0.1-0.4,0.1-0.4l7.4-1.1c0.1,0,0.2-0.1,0.2-0.1l3.3-6.7
		C-201,232.3-200.7,232.3-200.7,232.5z"/>
	<path class="st7" d="M-200.5,232.6l3.3,6.7c0,0.1,0.1,0.1,0.2,0.1l7.4,1.1c0.2,0,0.3,0.3,0.1,0.4l-5.3,5.2
		c-0.1,0.1-0.1,0.1-0.1,0.2l1.3,7.3c0,0.2-0.2,0.4-0.4,0.3l-6.6-3.5c-0.1,0-0.2,0-0.2,0l-6.6,3.5c-0.2,0.1-0.4-0.1-0.4-0.3l1.3-7.3
		c0-0.1,0-0.2-0.1-0.2l-5.3-5.2c-0.1-0.1-0.1-0.4,0.1-0.4l7.4-1.1c0.1,0,0.2-0.1,0.2-0.1l3.3-6.7
		C-200.8,232.4-200.6,232.4-200.5,232.6z"/>
	<path class="st7" d="M-200.3,232.7l3.3,6.7c0,0.1,0.1,0.1,0.2,0.1l7.4,1.1c0.2,0,0.3,0.3,0.1,0.4l-5.3,5.2
		c-0.1,0.1-0.1,0.1-0.1,0.2l1.3,7.3c0,0.2-0.2,0.4-0.4,0.3l-6.6-3.5c-0.1,0-0.2,0-0.2,0l-6.6,3.5c-0.2,0.1-0.4-0.1-0.4-0.3l1.3-7.3
		c0-0.1,0-0.2-0.1-0.2l-5.3-5.2c-0.1-0.1-0.1-0.4,0.1-0.4l7.4-1.1c0.1,0,0.2-0.1,0.2-0.1l3.3-6.7
		C-200.7,232.5-200.4,232.5-200.3,232.7z"/>
	<path class="st7" d="M-200.1,232.8l3.3,6.7c0,0.1,0.1,0.1,0.2,0.1l7.4,1.1c0.2,0,0.3,0.3,0.1,0.4l-5.3,5.2
		c-0.1,0.1-0.1,0.1-0.1,0.2l1.3,7.3c0,0.2-0.2,0.4-0.4,0.3l-6.6-3.5c-0.1,0-0.2,0-0.2,0l-6.6,3.5c-0.2,0.1-0.4-0.1-0.4-0.3l1.3-7.3
		c0-0.1,0-0.2-0.1-0.2l-5.3-5.2c-0.1-0.1-0.1-0.4,0.1-0.4l7.4-1.1c0.1,0,0.2-0.1,0.2-0.1l3.3-6.7
		C-200.5,232.7-200.2,232.7-200.1,232.8z"/>
	<path class="st7" d="M-199.9,233l3.3,6.7c0,0.1,0.1,0.1,0.2,0.1l7.4,1.1c0.2,0,0.3,0.3,0.1,0.4l-5.3,5.2c-0.1,0.1-0.1,0.1-0.1,0.2
		l1.3,7.3c0,0.2-0.2,0.4-0.4,0.3l-6.6-3.5c-0.1,0-0.2,0-0.2,0l-6.6,3.5c-0.2,0.1-0.4-0.1-0.4-0.3l1.3-7.3c0-0.1,0-0.2-0.1-0.2
		l-5.3-5.2c-0.1-0.1-0.1-0.4,0.1-0.4l7.4-1.1c0.1,0,0.2-0.1,0.2-0.1l3.3-6.7C-200.3,232.8-200,232.8-199.9,233z"/>
	<path class="st7" d="M-199.8,233.1l3.3,6.7c0,0.1,0.1,0.1,0.2,0.1l7.4,1.1c0.2,0,0.3,0.3,0.1,0.4l-5.3,5.2
		c-0.1,0.1-0.1,0.1-0.1,0.2l1.3,7.3c0,0.2-0.2,0.4-0.4,0.3l-6.6-3.5c-0.1,0-0.2,0-0.2,0l-6.6,3.5c-0.2,0.1-0.4-0.1-0.4-0.3l1.3-7.3
		c0-0.1,0-0.2-0.1-0.2l-5.3-5.2c-0.1-0.1-0.1-0.4,0.1-0.4l7.4-1.1c0.1,0,0.2-0.1,0.2-0.1l3.3-6.7
		C-200.1,232.9-199.9,232.9-199.8,233.1z"/>
	<path class="st7" d="M-199.6,233.2l3.3,6.7c0,0.1,0.1,0.1,0.2,0.1l7.4,1.1c0.2,0,0.3,0.3,0.1,0.4l-5.3,5.2
		c-0.1,0.1-0.1,0.1-0.1,0.2l1.3,7.3c0,0.2-0.2,0.4-0.4,0.3l-6.6-3.5c-0.1,0-0.2,0-0.2,0l-6.6,3.5c-0.2,0.1-0.4-0.1-0.4-0.3l1.3-7.3
		c0-0.1,0-0.2-0.1-0.2l-5.3-5.2c-0.1-0.1-0.1-0.4,0.1-0.4l7.4-1.1c0.1,0,0.2-0.1,0.2-0.1l3.3-6.7C-199.9,233-199.7,233-199.6,233.2z
		"/>
	<path class="st7" d="M-199.4,233.3l3.3,6.7c0,0.1,0.1,0.1,0.2,0.1l7.4,1.1c0.2,0,0.3,0.3,0.1,0.4l-5.3,5.2
		c-0.1,0.1-0.1,0.1-0.1,0.2l1.3,7.3c0,0.2-0.2,0.4-0.4,0.3l-6.6-3.5c-0.1,0-0.2,0-0.2,0l-6.6,3.5c-0.2,0.1-0.4-0.1-0.4-0.3l1.3-7.3
		c0-0.1,0-0.2-0.1-0.2l-5.3-5.2c-0.1-0.1-0.1-0.4,0.1-0.4l7.4-1.1c0.1,0,0.2-0.1,0.2-0.1l3.3-6.7
		C-199.8,233.2-199.5,233.2-199.4,233.3z"/>
	<path class="st7" d="M-199.2,233.5l3.3,6.7c0,0.1,0.1,0.1,0.2,0.1l7.4,1.1c0.2,0,0.3,0.3,0.1,0.4l-5.3,5.2
		c-0.1,0.1-0.1,0.1-0.1,0.2l1.3,7.3c0,0.2-0.2,0.4-0.4,0.3l-6.6-3.5c-0.1,0-0.2,0-0.2,0l-6.6,3.5c-0.2,0.1-0.4-0.1-0.4-0.3l1.3-7.3
		c0-0.1,0-0.2-0.1-0.2l-5.3-5.2c-0.1-0.1-0.1-0.4,0.1-0.4l7.4-1.1c0.1,0,0.2-0.1,0.2-0.1l3.3-6.7
		C-199.6,233.3-199.3,233.3-199.2,233.5z"/>
	<path class="st7" d="M-199.1,233.6l3.3,6.7c0,0.1,0.1,0.1,0.2,0.1l7.4,1.1c0.2,0,0.3,0.3,0.1,0.4l-5.3,5.2
		c-0.1,0.1-0.1,0.1-0.1,0.2l1.3,7.3c0,0.2-0.2,0.4-0.4,0.3l-6.6-3.5c-0.1,0-0.2,0-0.2,0l-6.6,3.5c-0.2,0.1-0.4-0.1-0.4-0.3l1.3-7.3
		c0-0.1,0-0.2-0.1-0.2l-5.3-5.2c-0.1-0.1-0.1-0.4,0.1-0.4l7.4-1.1c0.1,0,0.2-0.1,0.2-0.1l3.3-6.7
		C-199.4,233.4-199.1,233.4-199.1,233.6z"/>
	<path class="st7" d="M-198.9,233.7l3.3,6.7c0,0.1,0.1,0.1,0.2,0.1l7.4,1.1c0.2,0,0.3,0.3,0.1,0.4l-5.3,5.2
		c-0.1,0.1-0.1,0.1-0.1,0.2l1.3,7.3c0,0.2-0.2,0.4-0.4,0.3l-6.6-3.5c-0.1,0-0.2,0-0.2,0l-6.6,3.5c-0.2,0.1-0.4-0.1-0.4-0.3l1.3-7.3
		c0-0.1,0-0.2-0.1-0.2l-5.3-5.2c-0.1-0.1-0.1-0.4,0.1-0.4l7.4-1.1c0.1,0,0.2-0.1,0.2-0.1l3.3-6.7
		C-199.2,233.5-199,233.5-198.9,233.7z"/>
	<path class="st7" d="M-198.7,233.9l3.3,6.7c0,0.1,0.1,0.1,0.2,0.1l7.4,1.1c0.2,0,0.3,0.3,0.1,0.4l-5.3,5.2
		c-0.1,0.1-0.1,0.1-0.1,0.2l1.3,7.3c0,0.2-0.2,0.4-0.4,0.3l-6.6-3.5c-0.1,0-0.2,0-0.2,0l-6.6,3.5c-0.2,0.1-0.4-0.1-0.4-0.3l1.3-7.3
		c0-0.1,0-0.2-0.1-0.2l-5.3-5.2c-0.1-0.1-0.1-0.4,0.1-0.4l7.4-1.1c0.1,0,0.2-0.1,0.2-0.1l3.3-6.7
		C-199.1,233.7-198.8,233.7-198.7,233.9z"/>
	<path class="st7" d="M-198.5,234l3.3,6.7c0,0.1,0.1,0.1,0.2,0.1l7.4,1.1c0.2,0,0.3,0.3,0.1,0.4l-5.3,5.2c-0.1,0.1-0.1,0.1-0.1,0.2
		l1.3,7.3c0,0.2-0.2,0.4-0.4,0.3l-6.6-3.5c-0.1,0-0.2,0-0.2,0l-6.6,3.5c-0.2,0.1-0.4-0.1-0.4-0.3l1.3-7.3c0-0.1,0-0.2-0.1-0.2
		l-5.3-5.2c-0.1-0.1-0.1-0.4,0.1-0.4l7.4-1.1c0.1,0,0.2-0.1,0.2-0.1l3.3-6.7C-198.9,233.8-198.6,233.8-198.5,234z"/>
	<path class="st7" d="M-198.3,234.1l3.3,6.7c0,0.1,0.1,0.1,0.2,0.1l7.4,1.1c0.2,0,0.3,0.3,0.1,0.4l-5.3,5.2
		c-0.1,0.1-0.1,0.1-0.1,0.2l1.3,7.3c0,0.2-0.2,0.4-0.4,0.3l-6.6-3.5c-0.1,0-0.2,0-0.2,0l-6.6,3.5c-0.2,0.1-0.4-0.1-0.4-0.3l1.3-7.3
		c0-0.1,0-0.2-0.1-0.2l-5.3-5.2c-0.1-0.1-0.1-0.4,0.1-0.4l7.4-1.1c0.1,0,0.2-0.1,0.2-0.1l3.3-6.7
		C-198.7,233.9-198.4,233.9-198.3,234.1z"/>
	<path class="st7" d="M-198.2,234.2l3.3,6.7c0,0.1,0.1,0.1,0.2,0.1l7.4,1.1c0.2,0,0.3,0.3,0.1,0.4l-5.3,5.2
		c-0.1,0.1-0.1,0.1-0.1,0.2l1.3,7.3c0,0.2-0.2,0.4-0.4,0.3l-6.6-3.5c-0.1,0-0.2,0-0.2,0l-6.6,3.5c-0.2,0.1-0.4-0.1-0.4-0.3l1.3-7.3
		c0-0.1,0-0.2-0.1-0.2l-5.3-5.2c-0.1-0.1-0.1-0.4,0.1-0.4l7.4-1.1c0.1,0,0.2-0.1,0.2-0.1l3.3-6.7C-198.5,234-198.3,234-198.2,234.2z
		"/>
	<path class="st7" d="M-198,234.4l3.3,6.7c0,0.1,0.1,0.1,0.2,0.1l7.4,1.1c0.2,0,0.3,0.3,0.1,0.4l-5.3,5.2c-0.1,0.1-0.1,0.1-0.1,0.2
		l1.3,7.3c0,0.2-0.2,0.4-0.4,0.3l-6.6-3.5c-0.1,0-0.2,0-0.2,0l-6.6,3.5c-0.2,0.1-0.4-0.1-0.4-0.3l1.3-7.3c0-0.1,0-0.2-0.1-0.2
		l-5.3-5.2c-0.1-0.1-0.1-0.4,0.1-0.4l7.4-1.1c0.1,0,0.2-0.1,0.2-0.1l3.3-6.7C-198.3,234.2-198.1,234.2-198,234.4z"/>
	<path class="st7" d="M-197.8,234.5l3.3,6.7c0,0.1,0.1,0.1,0.2,0.1l7.4,1.1c0.2,0,0.3,0.3,0.1,0.4l-5.3,5.2
		c-0.1,0.1-0.1,0.1-0.1,0.2l1.3,7.3c0,0.2-0.2,0.4-0.4,0.3l-6.6-3.5c-0.1,0-0.2,0-0.2,0l-6.6,3.5c-0.2,0.1-0.4-0.1-0.4-0.3l1.3-7.3
		c0-0.1,0-0.2-0.1-0.2l-5.3-5.2c-0.1-0.1-0.1-0.4,0.1-0.4l7.4-1.1c0.1,0,0.2-0.1,0.2-0.1l3.3-6.7
		C-198.2,234.3-197.9,234.3-197.8,234.5z"/>
	<path class="st7" d="M-197.6,234.6l3.3,6.7c0,0.1,0.1,0.1,0.2,0.1l7.4,1.1c0.2,0,0.3,0.3,0.1,0.4l-5.3,5.2
		c-0.1,0.1-0.1,0.1-0.1,0.2l1.3,7.3c0,0.2-0.2,0.4-0.4,0.3l-6.6-3.5c-0.1,0-0.2,0-0.2,0l-6.6,3.5c-0.2,0.1-0.4-0.1-0.4-0.3l1.3-7.3
		c0-0.1,0-0.2-0.1-0.2l-5.3-5.2c-0.1-0.1-0.1-0.4,0.1-0.4l7.4-1.1c0.1,0,0.2-0.1,0.2-0.1l3.3-6.7
		C-198,234.4-197.7,234.4-197.6,234.6z"/>
	<path class="st7" d="M-197.4,234.7l3.3,6.7c0,0.1,0.1,0.1,0.2,0.1l7.4,1.1c0.2,0,0.3,0.3,0.1,0.4l-5.3,5.2
		c-0.1,0.1-0.1,0.1-0.1,0.2l1.3,7.3c0,0.2-0.2,0.4-0.4,0.3l-6.6-3.5c-0.1,0-0.2,0-0.2,0l-6.6,3.5c-0.2,0.1-0.4-0.1-0.4-0.3l1.3-7.3
		c0-0.1,0-0.2-0.1-0.2l-5.3-5.2c-0.1-0.1-0.1-0.4,0.1-0.4l7.4-1.1c0.1,0,0.2-0.1,0.2-0.1l3.3-6.7
		C-197.8,234.6-197.5,234.6-197.4,234.7z"/>
	<path class="st7" d="M-197.3,234.9l3.3,6.7c0,0.1,0.1,0.1,0.2,0.1l7.4,1.1c0.2,0,0.3,0.3,0.1,0.4l-5.3,5.2
		c-0.1,0.1-0.1,0.1-0.1,0.2l1.3,7.3c0,0.2-0.2,0.4-0.4,0.3l-6.6-3.5c-0.1,0-0.2,0-0.2,0l-6.6,3.5c-0.2,0.1-0.4-0.1-0.4-0.3l1.3-7.3
		c0-0.1,0-0.2-0.1-0.2l-5.3-5.2c-0.1-0.1-0.1-0.4,0.1-0.4l7.4-1.1c0.1,0,0.2-0.1,0.2-0.1l3.3-6.7
		C-197.6,234.7-197.4,234.7-197.3,234.9z"/>
	<path class="st7" d="M-197.1,235l3.3,6.7c0,0.1,0.1,0.1,0.2,0.1l7.4,1.1c0.2,0,0.3,0.3,0.1,0.4l-5.3,5.2c-0.1,0.1-0.1,0.1-0.1,0.2
		l1.3,7.3c0,0.2-0.2,0.4-0.4,0.3l-6.6-3.5c-0.1,0-0.2,0-0.2,0l-6.6,3.5c-0.2,0.1-0.4-0.1-0.4-0.3l1.3-7.3c0-0.1,0-0.2-0.1-0.2
		l-5.3-5.2c-0.1-0.1-0.1-0.4,0.1-0.4l7.4-1.1c0.1,0,0.2-0.1,0.2-0.1l3.3-6.7C-197.4,234.8-197.2,234.8-197.1,235z"/>
	<path class="st7" d="M-196.9,235.1l3.3,6.7c0,0.1,0.1,0.1,0.2,0.1l7.4,1.1c0.2,0,0.3,0.3,0.1,0.4l-5.3,5.2
		c-0.1,0.1-0.1,0.1-0.1,0.2l1.3,7.3c0,0.2-0.2,0.4-0.4,0.3l-6.6-3.5c-0.1,0-0.2,0-0.2,0l-6.6,3.5c-0.2,0.1-0.4-0.1-0.4-0.3l1.3-7.3
		c0-0.1,0-0.2-0.1-0.2l-5.3-5.2c-0.1-0.1-0.1-0.4,0.1-0.4l7.4-1.1c0.1,0,0.2-0.1,0.2-0.1l3.3-6.7
		C-197.3,234.9-197,234.9-196.9,235.1z"/>
	<path class="st7" d="M-196.7,235.2l3.3,6.7c0,0.1,0.1,0.1,0.2,0.1l7.4,1.1c0.2,0,0.3,0.3,0.1,0.4l-5.3,5.2
		c-0.1,0.1-0.1,0.1-0.1,0.2l1.3,7.3c0,0.2-0.2,0.4-0.4,0.3l-6.6-3.5c-0.1,0-0.2,0-0.2,0l-6.6,3.5c-0.2,0.1-0.4-0.1-0.4-0.3l1.3-7.3
		c0-0.1,0-0.2-0.1-0.2l-5.3-5.2c-0.1-0.1-0.1-0.4,0.1-0.4l7.4-1.1c0.1,0,0.2-0.1,0.2-0.1l3.3-6.7
		C-197.1,235.1-196.8,235.1-196.7,235.2z"/>
	<path class="st7" d="M-196.6,235.4l3.3,6.7c0,0.1,0.1,0.1,0.2,0.1l7.4,1.1c0.2,0,0.3,0.3,0.1,0.4l-5.3,5.2
		c-0.1,0.1-0.1,0.1-0.1,0.2l1.3,7.3c0,0.2-0.2,0.4-0.4,0.3l-6.6-3.5c-0.1,0-0.2,0-0.2,0l-6.6,3.5c-0.2,0.1-0.4-0.1-0.4-0.3l1.3-7.3
		c0-0.1,0-0.2-0.1-0.2l-5.3-5.2c-0.1-0.1-0.1-0.4,0.1-0.4l7.4-1.1c0.1,0,0.2-0.1,0.2-0.1l3.3-6.7
		C-196.9,235.2-196.6,235.2-196.6,235.4z"/>
	<path class="st7" d="M-196.4,235.5l3.3,6.7c0,0.1,0.1,0.1,0.2,0.1l7.4,1.1c0.2,0,0.3,0.3,0.1,0.4l-5.3,5.2
		c-0.1,0.1-0.1,0.1-0.1,0.2l1.3,7.3c0,0.2-0.2,0.4-0.4,0.3l-6.6-3.5c-0.1,0-0.2,0-0.2,0l-6.6,3.5c-0.2,0.1-0.4-0.1-0.4-0.3l1.3-7.3
		c0-0.1,0-0.2-0.1-0.2l-5.3-5.2c-0.1-0.1-0.1-0.4,0.1-0.4l7.4-1.1c0.1,0,0.2-0.1,0.2-0.1l3.3-6.7
		C-196.7,235.3-196.5,235.3-196.4,235.5z"/>
	<path class="st7" d="M-196.2,235.6l3.3,6.7c0,0.1,0.1,0.1,0.2,0.1l7.4,1.1c0.2,0,0.3,0.3,0.1,0.4l-5.3,5.2
		c-0.1,0.1-0.1,0.1-0.1,0.2l1.3,7.3c0,0.2-0.2,0.4-0.4,0.3l-6.6-3.5c-0.1,0-0.2,0-0.2,0l-6.6,3.5c-0.2,0.1-0.4-0.1-0.4-0.3l1.3-7.3
		c0-0.1,0-0.2-0.1-0.2l-5.3-5.2c-0.1-0.1-0.1-0.4,0.1-0.4l7.4-1.1c0.1,0,0.2-0.1,0.2-0.1l3.3-6.7
		C-196.6,235.4-196.3,235.4-196.2,235.6z"/>
	<path class="st7" d="M-196,235.8l3.3,6.7c0,0.1,0.1,0.1,0.2,0.1l7.4,1.1c0.2,0,0.3,0.3,0.1,0.4l-5.3,5.2c-0.1,0.1-0.1,0.1-0.1,0.2
		l1.3,7.3c0,0.2-0.2,0.4-0.4,0.3l-6.6-3.5c-0.1,0-0.2,0-0.2,0l-6.6,3.5c-0.2,0.1-0.4-0.1-0.4-0.3l1.3-7.3c0-0.1,0-0.2-0.1-0.2
		l-5.3-5.2c-0.1-0.1-0.1-0.4,0.1-0.4l7.4-1.1c0.1,0,0.2-0.1,0.2-0.1l3.3-6.7C-196.4,235.6-196.1,235.6-196,235.8z"/>
	<path class="st7" d="M-195.8,235.9l3.3,6.7c0,0.1,0.1,0.1,0.2,0.1l7.4,1.1c0.2,0,0.3,0.3,0.1,0.4l-5.3,5.2
		c-0.1,0.1-0.1,0.1-0.1,0.2l1.3,7.3c0,0.2-0.2,0.4-0.4,0.3l-6.6-3.5c-0.1,0-0.2,0-0.2,0l-6.6,3.5c-0.2,0.1-0.4-0.1-0.4-0.3l1.3-7.3
		c0-0.1,0-0.2-0.1-0.2l-5.3-5.2c-0.1-0.1-0.1-0.4,0.1-0.4l7.4-1.1c0.1,0,0.2-0.1,0.2-0.1l3.3-6.7
		C-196.2,235.7-195.9,235.7-195.8,235.9z"/>
	<path class="st7" d="M-195.7,236l3.3,6.7c0,0.1,0.1,0.1,0.2,0.1l7.4,1.1c0.2,0,0.3,0.3,0.1,0.4l-5.3,5.2c-0.1,0.1-0.1,0.1-0.1,0.2
		l1.3,7.3c0,0.2-0.2,0.4-0.4,0.3l-6.6-3.5c-0.1,0-0.2,0-0.2,0l-6.6,3.5c-0.2,0.1-0.4-0.1-0.4-0.3l1.3-7.3c0-0.1,0-0.2-0.1-0.2
		l-5.3-5.2c-0.1-0.1-0.1-0.4,0.1-0.4l7.4-1.1c0.1,0,0.2-0.1,0.2-0.1l3.3-6.7C-196,235.8-195.8,235.8-195.7,236z"/>
	<path class="st7" d="M-195.5,236.1l3.3,6.7c0,0.1,0.1,0.1,0.2,0.1l7.4,1.1c0.2,0,0.3,0.3,0.1,0.4l-5.3,5.2
		c-0.1,0.1-0.1,0.1-0.1,0.2l1.3,7.3c0,0.2-0.2,0.4-0.4,0.3l-6.6-3.5c-0.1,0-0.2,0-0.2,0l-6.6,3.5c-0.2,0.1-0.4-0.1-0.4-0.3l1.3-7.3
		c0-0.1,0-0.2-0.1-0.2l-5.3-5.2c-0.1-0.1-0.1-0.4,0.1-0.4l7.4-1.1c0.1,0,0.2-0.1,0.2-0.1l3.3-6.7
		C-195.8,235.9-195.6,235.9-195.5,236.1z"/>
	<path class="st7" d="M-195.3,236.3l3.3,6.7c0,0.1,0.1,0.1,0.2,0.1l7.4,1.1c0.2,0,0.3,0.3,0.1,0.4l-5.3,5.2
		c-0.1,0.1-0.1,0.1-0.1,0.2l1.3,7.3c0,0.2-0.2,0.4-0.4,0.3l-6.6-3.5c-0.1,0-0.2,0-0.2,0l-6.6,3.5c-0.2,0.1-0.4-0.1-0.4-0.3l1.3-7.3
		c0-0.1,0-0.2-0.1-0.2l-5.3-5.2c-0.1-0.1-0.1-0.4,0.1-0.4l7.4-1.1c0.1,0,0.2-0.1,0.2-0.1l3.3-6.7
		C-195.7,236.1-195.4,236.1-195.3,236.3z"/>
	<path class="st7" d="M-195.1,236.4l3.3,6.7c0,0.1,0.1,0.1,0.2,0.1l7.4,1.1c0.2,0,0.3,0.3,0.1,0.4l-5.3,5.2
		c-0.1,0.1-0.1,0.1-0.1,0.2l1.3,7.3c0,0.2-0.2,0.4-0.4,0.3l-6.6-3.5c-0.1,0-0.2,0-0.2,0l-6.6,3.5c-0.2,0.1-0.4-0.1-0.4-0.3l1.3-7.3
		c0-0.1,0-0.2-0.1-0.2l-5.3-5.2c-0.1-0.1-0.1-0.4,0.1-0.4l7.4-1.1c0.1,0,0.2-0.1,0.2-0.1l3.3-6.7
		C-195.5,236.2-195.2,236.2-195.1,236.4z"/>
	<path class="st7" d="M-194.9,236.5l3.3,6.7c0,0.1,0.1,0.1,0.2,0.1l7.4,1.1c0.2,0,0.3,0.3,0.1,0.4l-5.3,5.2
		c-0.1,0.1-0.1,0.1-0.1,0.2l1.3,7.3c0,0.2-0.2,0.4-0.4,0.3l-6.6-3.5c-0.1,0-0.2,0-0.2,0l-6.6,3.5c-0.2,0.1-0.4-0.1-0.4-0.3l1.3-7.3
		c0-0.1,0-0.2-0.1-0.2l-5.3-5.2c-0.1-0.1-0.1-0.4,0.1-0.4l7.4-1.1c0.1,0,0.2-0.1,0.2-0.1l3.3-6.7
		C-195.3,236.3-195,236.3-194.9,236.5z"/>
	<path class="st7" d="M-194.8,236.6l3.3,6.7c0,0.1,0.1,0.1,0.2,0.1l7.4,1.1c0.2,0,0.3,0.3,0.1,0.4l-5.3,5.2
		c-0.1,0.1-0.1,0.1-0.1,0.2l1.3,7.3c0,0.2-0.2,0.4-0.4,0.3l-6.6-3.5c-0.1,0-0.2,0-0.2,0l-6.6,3.5c-0.2,0.1-0.4-0.1-0.4-0.3l1.3-7.3
		c0-0.1,0-0.2-0.1-0.2l-5.3-5.2c-0.1-0.1-0.1-0.4,0.1-0.4l7.4-1.1c0.1,0,0.2-0.1,0.2-0.1l3.3-6.7
		C-195.1,236.4-194.9,236.4-194.8,236.6z"/>
	<path class="st7" d="M-194.6,236.8l3.3,6.7c0,0.1,0.1,0.1,0.2,0.1l7.4,1.1c0.2,0,0.3,0.3,0.1,0.4l-5.3,5.2
		c-0.1,0.1-0.1,0.1-0.1,0.2l1.3,7.3c0,0.2-0.2,0.4-0.4,0.3l-6.6-3.5c-0.1,0-0.2,0-0.2,0l-6.6,3.5c-0.2,0.1-0.4-0.1-0.4-0.3l1.3-7.3
		c0-0.1,0-0.2-0.1-0.2l-5.3-5.2c-0.1-0.1-0.1-0.4,0.1-0.4l7.4-1.1c0.1,0,0.2-0.1,0.2-0.1l3.3-6.7
		C-195,236.6-194.7,236.6-194.6,236.8z"/>
	<path class="st7" d="M-194.4,236.9l3.3,6.7c0,0.1,0.1,0.1,0.2,0.1l7.4,1.1c0.2,0,0.3,0.3,0.1,0.4l-5.3,5.2
		c-0.1,0.1-0.1,0.1-0.1,0.2l1.3,7.3c0,0.2-0.2,0.4-0.4,0.3l-6.6-3.5c-0.1,0-0.2,0-0.2,0l-6.6,3.5c-0.2,0.1-0.4-0.1-0.4-0.3l1.3-7.3
		c0-0.1,0-0.2-0.1-0.2l-5.3-5.2c-0.1-0.1-0.1-0.4,0.1-0.4l7.4-1.1c0.1,0,0.2-0.1,0.2-0.1l3.3-6.7
		C-194.8,236.7-194.5,236.7-194.4,236.9z"/>
	<path class="st7" d="M-194.2,237l3.3,6.7c0,0.1,0.1,0.1,0.2,0.1l7.4,1.1c0.2,0,0.3,0.3,0.1,0.4l-5.3,5.2c-0.1,0.1-0.1,0.1-0.1,0.2
		l1.3,7.3c0,0.2-0.2,0.4-0.4,0.3l-6.6-3.5c-0.1,0-0.2,0-0.2,0l-6.6,3.5c-0.2,0.1-0.4-0.1-0.4-0.3l1.3-7.3c0-0.1,0-0.2-0.1-0.2
		l-5.3-5.2c-0.1-0.1-0.1-0.4,0.1-0.4l7.4-1.1c0.1,0,0.2-0.1,0.2-0.1l3.3-6.7C-194.6,236.8-194.3,236.8-194.2,237z"/>
	<path class="st7" d="M-194.1,237.1l3.3,6.7c0,0.1,0.1,0.1,0.2,0.1l7.4,1.1c0.2,0,0.3,0.3,0.1,0.4l-5.3,5.2
		c-0.1,0.1-0.1,0.1-0.1,0.2l1.3,7.3c0,0.2-0.2,0.4-0.4,0.3l-6.6-3.5c-0.1,0-0.2,0-0.2,0l-6.6,3.5c-0.2,0.1-0.4-0.1-0.4-0.3l1.3-7.3
		c0-0.1,0-0.2-0.1-0.2l-5.3-5.2c-0.1-0.1-0.1-0.4,0.1-0.4l7.4-1.1c0.1,0,0.2-0.1,0.2-0.1l3.3-6.7C-194.4,237-194.1,237-194.1,237.1z
		"/>
	<path class="st7" d="M-193.9,237.3l3.3,6.7c0,0.1,0.1,0.1,0.2,0.1l7.4,1.1c0.2,0,0.3,0.3,0.1,0.4l-5.3,5.2
		c-0.1,0.1-0.1,0.1-0.1,0.2l1.3,7.3c0,0.2-0.2,0.4-0.4,0.3l-6.6-3.5c-0.1,0-0.2,0-0.2,0l-6.6,3.5c-0.2,0.1-0.4-0.1-0.4-0.3l1.3-7.3
		c0-0.1,0-0.2-0.1-0.2l-5.3-5.2c-0.1-0.1-0.1-0.4,0.1-0.4l7.4-1.1c0.1,0,0.2-0.1,0.2-0.1l3.3-6.7
		C-194.2,237.1-194,237.1-193.9,237.3z"/>
	<path class="st7" d="M-193.7,237.4l3.3,6.7c0,0.1,0.1,0.1,0.2,0.1l7.4,1.1c0.2,0,0.3,0.3,0.1,0.4l-5.3,5.2
		c-0.1,0.1-0.1,0.1-0.1,0.2l1.3,7.3c0,0.2-0.2,0.4-0.4,0.3l-6.6-3.5c-0.1,0-0.2,0-0.2,0l-6.6,3.5c-0.2,0.1-0.4-0.1-0.4-0.3l1.3-7.3
		c0-0.1,0-0.2-0.1-0.2l-5.3-5.2c-0.1-0.1-0.1-0.4,0.1-0.4l7.4-1.1c0.1,0,0.2-0.1,0.2-0.1l3.3-6.7
		C-194.1,237.2-193.8,237.2-193.7,237.4z"/>
	<path class="st7" d="M-193.5,237.5l3.3,6.7c0,0.1,0.1,0.1,0.2,0.1l7.4,1.1c0.2,0,0.3,0.3,0.1,0.4l-5.3,5.2
		c-0.1,0.1-0.1,0.1-0.1,0.2l1.3,7.3c0,0.2-0.2,0.4-0.4,0.3l-6.6-3.5c-0.1,0-0.2,0-0.2,0l-6.6,3.5c-0.2,0.1-0.4-0.1-0.4-0.3l1.3-7.3
		c0-0.1,0-0.2-0.1-0.2l-5.3-5.2c-0.1-0.1-0.1-0.4,0.1-0.4l7.4-1.1c0.1,0,0.2-0.1,0.2-0.1l3.3-6.7
		C-193.9,237.3-193.6,237.3-193.5,237.5z"/>
	<path class="st7" d="M-193.3,237.6l3.3,6.7c0,0.1,0.1,0.1,0.2,0.1l7.4,1.1c0.2,0,0.3,0.3,0.1,0.4l-5.3,5.2
		c-0.1,0.1-0.1,0.1-0.1,0.2l1.3,7.3c0,0.2-0.2,0.4-0.4,0.3l-6.6-3.5c-0.1,0-0.2,0-0.2,0l-6.6,3.5c-0.2,0.1-0.4-0.1-0.4-0.3l1.3-7.3
		c0-0.1,0-0.2-0.1-0.2l-5.3-5.2c-0.1-0.1-0.1-0.4,0.1-0.4l7.4-1.1c0.1,0,0.2-0.1,0.2-0.1l3.3-6.7
		C-193.7,237.5-193.4,237.5-193.3,237.6z"/>
	<path class="st7" d="M-193.2,237.8l3.3,6.7c0,0.1,0.1,0.1,0.2,0.1l7.4,1.1c0.2,0,0.3,0.3,0.1,0.4l-5.3,5.2
		c-0.1,0.1-0.1,0.1-0.1,0.2l1.3,7.3c0,0.2-0.2,0.4-0.4,0.3l-6.6-3.5c-0.1,0-0.2,0-0.2,0l-6.6,3.5c-0.2,0.1-0.4-0.1-0.4-0.3l1.3-7.3
		c0-0.1,0-0.2-0.1-0.2l-5.3-5.2c-0.1-0.1-0.1-0.4,0.1-0.4l7.4-1.1c0.1,0,0.2-0.1,0.2-0.1l3.3-6.7
		C-193.5,237.6-193.3,237.6-193.2,237.8z"/>
	<path class="st7" d="M-193,237.9l3.3,6.7c0,0.1,0.1,0.1,0.2,0.1l7.4,1.1c0.2,0,0.3,0.3,0.1,0.4l-5.3,5.2c-0.1,0.1-0.1,0.1-0.1,0.2
		l1.3,7.3c0,0.2-0.2,0.4-0.4,0.3l-6.6-3.5c-0.1,0-0.2,0-0.2,0l-6.6,3.5c-0.2,0.1-0.4-0.1-0.4-0.3l1.3-7.3c0-0.1,0-0.2-0.1-0.2
		l-5.3-5.2c-0.1-0.1-0.1-0.4,0.1-0.4l7.4-1.1c0.1,0,0.2-0.1,0.2-0.1l3.3-6.7C-193.3,237.7-193.1,237.7-193,237.9z"/>
	<path class="st7" d="M-192.8,238l3.3,6.7c0,0.1,0.1,0.1,0.2,0.1l7.4,1.1c0.2,0,0.3,0.3,0.1,0.4l-5.3,5.2c-0.1,0.1-0.1,0.1-0.1,0.2
		l1.3,7.3c0,0.2-0.2,0.4-0.4,0.3l-6.6-3.5c-0.1,0-0.2,0-0.2,0l-6.6,3.5c-0.2,0.1-0.4-0.1-0.4-0.3l1.3-7.3c0-0.1,0-0.2-0.1-0.2
		l-5.3-5.2c-0.1-0.1-0.1-0.4,0.1-0.4l7.4-1.1c0.1,0,0.2-0.1,0.2-0.1l3.3-6.7C-193.2,237.8-192.9,237.8-192.8,238z"/>
	<path class="st7" d="M-192.6,238.2l3.3,6.7c0,0.1,0.1,0.1,0.2,0.1l7.4,1.1c0.2,0,0.3,0.3,0.1,0.4l-5.4,5.2
		c-0.1,0.1-0.1,0.1-0.1,0.2l1.3,7.3c0,0.2-0.2,0.4-0.4,0.3l-6.6-3.5c-0.1,0-0.2,0-0.2,0l-6.6,3.5c-0.2,0.1-0.4-0.1-0.4-0.3l1.3-7.3
		c0-0.1,0-0.2-0.1-0.2l-5.3-5.2c-0.1-0.1-0.1-0.4,0.1-0.4l7.4-1.1c0.1,0,0.2-0.1,0.2-0.1l3.3-6.7C-193,238-192.7,238-192.6,238.2z"
		/>
	<path class="st7" d="M-192.5,238.3l3.3,6.7c0,0.1,0.1,0.1,0.2,0.1l7.4,1.1c0.2,0,0.3,0.3,0.1,0.4l-5.3,5.2
		c-0.1,0.1-0.1,0.1-0.1,0.2l1.3,7.3c0,0.2-0.2,0.4-0.4,0.3l-6.6-3.5c-0.1,0-0.2,0-0.2,0l-6.6,3.5c-0.2,0.1-0.4-0.1-0.4-0.3l1.3-7.3
		c0-0.1,0-0.2-0.1-0.2l-5.3-5.2c-0.1-0.1-0.1-0.4,0.1-0.4l7.4-1.1c0.1,0,0.2-0.1,0.2-0.1l3.3-6.7
		C-192.8,238.1-192.5,238.1-192.5,238.3z"/>
	<path class="st7" d="M-192.3,238.4l3.3,6.7c0,0.1,0.1,0.1,0.2,0.1l7.4,1.1c0.2,0,0.3,0.3,0.1,0.4l-5.3,5.2
		c-0.1,0.1-0.1,0.1-0.1,0.2l1.3,7.3c0,0.2-0.2,0.4-0.4,0.3l-6.6-3.5c-0.1,0-0.2,0-0.2,0l-6.6,3.5c-0.2,0.1-0.4-0.1-0.4-0.3l1.3-7.3
		c0-0.1,0-0.2-0.1-0.2l-5.3-5.2c-0.1-0.1-0.1-0.4,0.1-0.4l7.4-1.1c0.1,0,0.2-0.1,0.2-0.1l3.3-6.7
		C-192.6,238.2-192.4,238.2-192.3,238.4z"/>
	<path class="st7" d="M-192.1,238.5l3.3,6.7c0,0.1,0.1,0.1,0.2,0.1l7.4,1.1c0.2,0,0.3,0.3,0.1,0.4l-5.3,5.2
		c-0.1,0.1-0.1,0.1-0.1,0.2l1.3,7.3c0,0.2-0.2,0.4-0.4,0.3l-6.6-3.5c-0.1,0-0.2,0-0.2,0l-6.6,3.5c-0.2,0.1-0.4-0.1-0.4-0.3l1.3-7.3
		c0-0.1,0-0.2-0.1-0.2l-5.3-5.2c-0.1-0.1-0.1-0.4,0.1-0.4l7.4-1.1c0.1,0,0.2-0.1,0.2-0.1l3.3-6.7
		C-192.5,238.3-192.2,238.3-192.1,238.5z"/>
	<path class="st7" d="M-191.9,238.7l3.3,6.7c0,0.1,0.1,0.1,0.2,0.1l7.4,1.1c0.2,0,0.3,0.3,0.1,0.4l-5.3,5.2
		c-0.1,0.1-0.1,0.1-0.1,0.2l1.3,7.3c0,0.2-0.2,0.4-0.4,0.3l-6.6-3.5c-0.1,0-0.2,0-0.2,0l-6.6,3.5c-0.2,0.1-0.4-0.1-0.4-0.3l1.3-7.3
		c0-0.1,0-0.2-0.1-0.2l-5.3-5.2c-0.1-0.1-0.1-0.4,0.1-0.4l7.4-1.1c0.1,0,0.2-0.1,0.2-0.1l3.3-6.7
		C-192.3,238.5-192,238.5-191.9,238.7z"/>
	<path class="st7" d="M-191.7,238.8l3.3,6.7c0,0.1,0.1,0.1,0.2,0.1l7.4,1.1c0.2,0,0.3,0.3,0.1,0.4l-5.3,5.2
		c-0.1,0.1-0.1,0.1-0.1,0.2l1.3,7.3c0,0.2-0.2,0.4-0.4,0.3l-6.6-3.5c-0.1,0-0.2,0-0.2,0l-6.6,3.5c-0.2,0.1-0.4-0.1-0.4-0.3l1.3-7.3
		c0-0.1,0-0.2-0.1-0.2l-5.3-5.2c-0.1-0.1-0.1-0.4,0.1-0.4l7.4-1.1c0.1,0,0.2-0.1,0.2-0.1l3.3-6.7
		C-192.1,238.6-191.8,238.6-191.7,238.8z"/>
	<path class="st7" d="M-191.6,238.9l3.3,6.7c0,0.1,0.1,0.1,0.2,0.1l7.4,1.1c0.2,0,0.3,0.3,0.1,0.4l-5.3,5.2
		c-0.1,0.1-0.1,0.1-0.1,0.2l1.3,7.3c0,0.2-0.2,0.4-0.4,0.3l-6.6-3.5c-0.1,0-0.2,0-0.2,0l-6.6,3.5c-0.2,0.1-0.4-0.1-0.4-0.3l1.3-7.3
		c0-0.1,0-0.2-0.1-0.2l-5.3-5.2c-0.1-0.1-0.1-0.4,0.1-0.4l7.4-1.1c0.1,0,0.2-0.1,0.2-0.1l3.3-6.7
		C-191.9,238.7-191.7,238.7-191.6,238.9z"/>
	<path class="st7" d="M-191.4,239l3.3,6.7c0,0.1,0.1,0.1,0.2,0.1l7.4,1.1c0.2,0,0.3,0.3,0.1,0.4l-5.3,5.2c-0.1,0.1-0.1,0.1-0.1,0.2
		l1.3,7.3c0,0.2-0.2,0.4-0.4,0.3l-6.6-3.5c-0.1,0-0.2,0-0.2,0l-6.6,3.5c-0.2,0.1-0.4-0.1-0.4-0.3l1.3-7.3c0-0.1,0-0.2-0.1-0.2
		l-5.3-5.2c-0.1-0.1-0.1-0.4,0.1-0.4l7.4-1.1c0.1,0,0.2-0.1,0.2-0.1l3.3-6.7C-191.7,238.8-191.5,238.8-191.4,239z"/>
	<path class="st7" d="M-191.2,239.2l3.3,6.7c0,0.1,0.1,0.1,0.2,0.1l7.4,1.1c0.2,0,0.3,0.3,0.1,0.4l-5.3,5.2
		c-0.1,0.1-0.1,0.1-0.1,0.2l1.3,7.3c0,0.2-0.2,0.4-0.4,0.3l-6.6-3.5c-0.1,0-0.2,0-0.2,0l-6.6,3.5c-0.2,0.1-0.4-0.1-0.4-0.3l1.3-7.3
		c0-0.1,0-0.2-0.1-0.2l-5.3-5.2c-0.1-0.1-0.1-0.4,0.1-0.4l7.4-1.1c0.1,0,0.2-0.1,0.2-0.1l3.3-6.7C-191.6,239-191.3,239-191.2,239.2z
		"/>
	<path class="st7" d="M-191,239.3l3.3,6.7c0,0.1,0.1,0.1,0.2,0.1l7.4,1.1c0.2,0,0.3,0.3,0.1,0.4l-5.3,5.2c-0.1,0.1-0.1,0.1-0.1,0.2
		l1.3,7.3c0,0.2-0.2,0.4-0.4,0.3l-6.6-3.5c-0.1,0-0.2,0-0.2,0l-6.6,3.5c-0.2,0.1-0.4-0.1-0.4-0.3l1.3-7.3c0-0.1,0-0.2-0.1-0.2
		l-5.3-5.2c-0.1-0.1-0.1-0.4,0.1-0.4l7.4-1.1c0.1,0,0.2-0.1,0.2-0.1l3.3-6.7C-191.4,239.1-191.1,239.1-191,239.3z"/>
	<path class="st7" d="M-190.8,239.4l3.3,6.7c0,0.1,0.1,0.1,0.2,0.1l7.4,1.1c0.2,0,0.3,0.3,0.1,0.4l-5.3,5.2
		c-0.1,0.1-0.1,0.1-0.1,0.2l1.3,7.3c0,0.2-0.2,0.4-0.4,0.3l-6.6-3.5c-0.1,0-0.2,0-0.2,0l-6.6,3.5c-0.2,0.1-0.4-0.1-0.4-0.3l1.3-7.3
		c0-0.1,0-0.2-0.1-0.2l-5.3-5.2c-0.1-0.1-0.1-0.4,0.1-0.4l7.4-1.1c0.1,0,0.2-0.1,0.2-0.1l3.3-6.7
		C-191.2,239.2-190.9,239.2-190.8,239.4z"/>
	<path class="st7" d="M-190.7,239.5l3.3,6.7c0,0.1,0.1,0.1,0.2,0.1l7.4,1.1c0.2,0,0.3,0.3,0.1,0.4l-5.3,5.2
		c-0.1,0.1-0.1,0.1-0.1,0.2l1.3,7.3c0,0.2-0.2,0.4-0.4,0.3l-6.6-3.5c-0.1,0-0.2,0-0.2,0l-6.6,3.5c-0.2,0.1-0.4-0.1-0.4-0.3l1.3-7.3
		c0-0.1,0-0.2-0.1-0.2l-5.3-5.2c-0.1-0.1-0.1-0.4,0.1-0.4l7.4-1.1c0.1,0,0.2-0.1,0.2-0.1l3.3-6.7
		C-191,239.4-190.8,239.4-190.7,239.5z"/>
	<path class="st7" d="M-190.5,239.7l3.3,6.7c0,0.1,0.1,0.1,0.2,0.1l7.4,1.1c0.2,0,0.3,0.3,0.1,0.4l-5.3,5.2
		c-0.1,0.1-0.1,0.1-0.1,0.2l1.3,7.3c0,0.2-0.2,0.4-0.4,0.3l-6.6-3.5c-0.1,0-0.2,0-0.2,0l-6.6,3.5c-0.2,0.1-0.4-0.1-0.4-0.3l1.3-7.3
		c0-0.1,0-0.2-0.1-0.2l-5.3-5.2c-0.1-0.1-0.1-0.4,0.1-0.4l7.4-1.1c0.1,0,0.2-0.1,0.2-0.1l3.3-6.7
		C-190.8,239.5-190.6,239.5-190.5,239.7z"/>
	<path class="st7" d="M-190.3,239.8l3.3,6.7c0,0.1,0.1,0.1,0.2,0.1l7.4,1.1c0.2,0,0.3,0.3,0.1,0.4l-5.3,5.2
		c-0.1,0.1-0.1,0.1-0.1,0.2l1.3,7.3c0,0.2-0.2,0.4-0.4,0.3l-6.6-3.5c-0.1,0-0.2,0-0.2,0l-6.6,3.5c-0.2,0.1-0.4-0.1-0.4-0.3l1.3-7.3
		c0-0.1,0-0.2-0.1-0.2l-5.3-5.2c-0.1-0.1-0.1-0.4,0.1-0.4l7.4-1.1c0.1,0,0.2-0.1,0.2-0.1l3.3-6.7
		C-190.7,239.6-190.4,239.6-190.3,239.8z"/>
	<path class="st7" d="M-190.1,239.9l3.3,6.7c0,0.1,0.1,0.1,0.2,0.1l7.4,1.1c0.2,0,0.3,0.3,0.1,0.4l-5.3,5.2
		c-0.1,0.1-0.1,0.1-0.1,0.2l1.3,7.3c0,0.2-0.2,0.4-0.4,0.3l-6.6-3.5c-0.1,0-0.2,0-0.2,0l-6.6,3.5c-0.2,0.1-0.4-0.1-0.4-0.3l1.3-7.3
		c0-0.1,0-0.2-0.1-0.2l-5.3-5.2c-0.1-0.1-0.1-0.4,0.1-0.4l7.4-1.1c0.1,0,0.2-0.1,0.2-0.1l3.3-6.7
		C-190.5,239.7-190.2,239.7-190.1,239.9z"/>
	<path class="st7" d="M-190,240l3.3,6.7c0,0.1,0.1,0.1,0.2,0.1l7.4,1.1c0.2,0,0.3,0.3,0.1,0.4l-5.3,5.2c-0.1,0.1-0.1,0.1-0.1,0.2
		l1.3,7.3c0,0.2-0.2,0.4-0.4,0.3l-6.6-3.5c-0.1,0-0.2,0-0.2,0l-6.6,3.5c-0.2,0.1-0.4-0.1-0.4-0.3l1.3-7.3c0-0.1,0-0.2-0.1-0.2
		l-5.3-5.2c-0.1-0.1-0.1-0.4,0.1-0.4l7.4-1.1c0.1,0,0.2-0.1,0.2-0.1l3.3-6.7C-190.3,239.9-190,239.9-190,240z"/>
	<path class="st7" d="M-189.8,240.2l3.3,6.7c0,0.1,0.1,0.1,0.2,0.1l7.4,1.1c0.2,0,0.3,0.3,0.1,0.4l-5.3,5.2
		c-0.1,0.1-0.1,0.1-0.1,0.2l1.3,7.3c0,0.2-0.2,0.4-0.4,0.3l-6.6-3.5c-0.1,0-0.2,0-0.2,0l-6.6,3.5c-0.2,0.1-0.4-0.1-0.4-0.3l1.3-7.3
		c0-0.1,0-0.2-0.1-0.2l-5.3-5.2c-0.1-0.1-0.1-0.4,0.1-0.4l7.4-1.1c0.1,0,0.2-0.1,0.2-0.1l3.3-6.7C-190.1,240-189.9,240-189.8,240.2z
		"/>
	<path class="st7" d="M-189.6,240.3l3.3,6.7c0,0.1,0.1,0.1,0.2,0.1l7.4,1.1c0.2,0,0.3,0.3,0.1,0.4l-5.3,5.2
		c-0.1,0.1-0.1,0.1-0.1,0.2l1.3,7.3c0,0.2-0.2,0.4-0.4,0.3l-6.6-3.5c-0.1,0-0.2,0-0.2,0l-6.6,3.5c-0.2,0.1-0.4-0.1-0.4-0.3l1.3-7.3
		c0-0.1,0-0.2-0.1-0.2l-5.3-5.2c-0.1-0.1-0.1-0.4,0.1-0.4l7.4-1.1c0.1,0,0.2-0.1,0.2-0.1l3.3-6.7
		C-190,240.1-189.7,240.1-189.6,240.3z"/>
	<path class="st7" d="M-189.4,240.4l3.3,6.7c0,0.1,0.1,0.1,0.2,0.1l7.4,1.1c0.2,0,0.3,0.3,0.1,0.4l-5.3,5.2
		c-0.1,0.1-0.1,0.1-0.1,0.2l1.3,7.3c0,0.2-0.2,0.4-0.4,0.3l-6.6-3.5c-0.1,0-0.2,0-0.2,0l-6.6,3.5c-0.2,0.1-0.4-0.1-0.4-0.3l1.3-7.3
		c0-0.1,0-0.2-0.1-0.2l-5.3-5.2c-0.1-0.1-0.1-0.4,0.1-0.4l7.4-1.1c0.1,0,0.2-0.1,0.2-0.1l3.3-6.7
		C-189.8,240.2-189.5,240.2-189.4,240.4z"/>
	<path class="st7" d="M-189.2,240.6l3.3,6.7c0,0.1,0.1,0.1,0.2,0.1l7.4,1.1c0.2,0,0.3,0.3,0.1,0.4l-5.3,5.2
		c-0.1,0.1-0.1,0.1-0.1,0.2l1.3,7.3c0,0.2-0.2,0.4-0.4,0.3l-6.6-3.5c-0.1,0-0.2,0-0.2,0l-6.6,3.5c-0.2,0.1-0.4-0.1-0.4-0.3l1.3-7.3
		c0-0.1,0-0.2-0.1-0.2l-5.3-5.2c-0.1-0.1-0.1-0.4,0.1-0.4l7.4-1.1c0.1,0,0.2-0.1,0.2-0.1l3.3-6.7
		C-189.6,240.4-189.3,240.4-189.2,240.6z"/>
	<path class="st7" d="M-189.1,240.7l3.3,6.7c0,0.1,0.1,0.1,0.2,0.1l7.4,1.1c0.2,0,0.3,0.3,0.1,0.4l-5.3,5.2
		c-0.1,0.1-0.1,0.1-0.1,0.2l1.3,7.3c0,0.2-0.2,0.4-0.4,0.3l-6.6-3.5c-0.1,0-0.2,0-0.2,0l-6.6,3.5c-0.2,0.1-0.4-0.1-0.4-0.3l1.3-7.3
		c0-0.1,0-0.2-0.1-0.2l-5.3-5.2c-0.1-0.1-0.1-0.4,0.1-0.4l7.4-1.1c0.1,0,0.2-0.1,0.2-0.1l3.3-6.7
		C-189.4,240.5-189.2,240.5-189.1,240.7z"/>
	<path class="st7" d="M-188.9,240.8l3.3,6.7c0,0.1,0.1,0.1,0.2,0.1l7.4,1.1c0.2,0,0.3,0.3,0.1,0.4l-5.3,5.2
		c-0.1,0.1-0.1,0.1-0.1,0.2l1.3,7.3c0,0.2-0.2,0.4-0.4,0.3l-6.6-3.4c-0.1,0-0.2,0-0.2,0l-6.6,3.5c-0.2,0.1-0.4-0.1-0.4-0.3l1.3-7.3
		c0-0.1,0-0.2-0.1-0.2l-5.3-5.2c-0.1-0.1-0.1-0.4,0.1-0.4l7.4-1.1c0.1,0,0.2-0.1,0.2-0.1l3.3-6.7
		C-189.2,240.6-189,240.6-188.9,240.8z"/>
	<path class="st7" d="M-188.7,240.9l3.3,6.7c0,0.1,0.1,0.1,0.2,0.1l7.4,1.1c0.2,0,0.3,0.3,0.1,0.4l-5.3,5.2
		c-0.1,0.1-0.1,0.1-0.1,0.2l1.3,7.3c0,0.2-0.2,0.4-0.4,0.3l-6.6-3.5c-0.1,0-0.2,0-0.2,0l-6.6,3.5c-0.2,0.1-0.4-0.1-0.4-0.3l1.3-7.3
		c0-0.1,0-0.2-0.1-0.2l-5.3-5.2c-0.1-0.1-0.1-0.4,0.1-0.4l7.4-1.1c0.1,0,0.2-0.1,0.2-0.1l3.3-6.7
		C-189.1,240.7-188.8,240.7-188.7,240.9z"/>
	<path class="st7" d="M-188.5,241.1l3.3,6.7c0,0.1,0.1,0.1,0.2,0.1l7.4,1.1c0.2,0,0.3,0.3,0.1,0.4l-5.3,5.2
		c-0.1,0.1-0.1,0.1-0.1,0.2l1.3,7.3c0,0.2-0.2,0.4-0.4,0.3l-6.6-3.5c-0.1,0-0.2,0-0.2,0l-6.6,3.5c-0.2,0.1-0.4-0.1-0.4-0.3l1.3-7.3
		c0-0.1,0-0.2-0.1-0.2l-5.3-5.2c-0.1-0.1-0.1-0.4,0.1-0.4l7.4-1.1c0.1,0,0.2-0.1,0.2-0.1l3.3-6.7
		C-188.9,240.9-188.6,240.9-188.5,241.1z"/>
	<path class="st7" d="M-188.3,241.2l3.3,6.7c0,0.1,0.1,0.1,0.2,0.1l7.4,1.1c0.2,0,0.3,0.3,0.1,0.4l-5.3,5.2
		c-0.1,0.1-0.1,0.1-0.1,0.2l1.3,7.3c0,0.2-0.2,0.4-0.4,0.3l-6.6-3.5c-0.1,0-0.2,0-0.2,0l-6.6,3.5c-0.2,0.1-0.4-0.1-0.4-0.3l1.3-7.3
		c0-0.1,0-0.2-0.1-0.2l-5.3-5.2c-0.1-0.1-0.1-0.4,0.1-0.4l7.4-1.1c0.1,0,0.2-0.1,0.2-0.1l3.3-6.7C-188.7,241-188.4,241-188.3,241.2z
		"/>
	<path class="st7" d="M-188.2,241.3l3.3,6.7c0,0.1,0.1,0.1,0.2,0.1l7.4,1.1c0.2,0,0.3,0.3,0.1,0.4l-5.3,5.2
		c-0.1,0.1-0.1,0.1-0.1,0.2l1.3,7.3c0,0.2-0.2,0.4-0.4,0.3l-6.6-3.5c-0.1,0-0.2,0-0.2,0l-6.6,3.5c-0.2,0.1-0.4-0.1-0.4-0.3l1.3-7.3
		c0-0.1,0-0.2-0.1-0.2l-5.3-5.2c-0.1-0.1-0.1-0.4,0.1-0.4l7.4-1.1c0.1,0,0.2-0.1,0.2-0.1l3.3-6.7
		C-188.5,241.1-188.3,241.1-188.2,241.3z"/>
	<path class="st7" d="M-188,241.4l3.3,6.7c0,0.1,0.1,0.1,0.2,0.1l7.4,1.1c0.2,0,0.3,0.3,0.1,0.4l-5.3,5.2c-0.1,0.1-0.1,0.1-0.1,0.2
		l1.3,7.3c0,0.2-0.2,0.4-0.4,0.3l-6.6-3.5c-0.1,0-0.2,0-0.2,0l-6.6,3.5c-0.2,0.1-0.4-0.1-0.4-0.3l1.3-7.3c0-0.1,0-0.2-0.1-0.2
		l-5.3-5.2c-0.1-0.1-0.1-0.4,0.1-0.4l7.4-1.1c0.1,0,0.2-0.1,0.2-0.1l3.3-6.7C-188.4,241.3-188.1,241.3-188,241.4z"/>
	<path class="st7" d="M-187.8,241.6l3.3,6.7c0,0.1,0.1,0.1,0.2,0.1l7.4,1.1c0.2,0,0.3,0.3,0.1,0.4l-5.3,5.2
		c-0.1,0.1-0.1,0.1-0.1,0.2l1.3,7.3c0,0.2-0.2,0.4-0.4,0.3l-6.6-3.5c-0.1,0-0.2,0-0.2,0l-6.6,3.5c-0.2,0.1-0.4-0.1-0.4-0.3l1.3-7.3
		c0-0.1,0-0.2-0.1-0.2l-5.3-5.2c-0.1-0.1-0.1-0.4,0.1-0.4l7.4-1.1c0.1,0,0.2-0.1,0.2-0.1l3.3-6.7
		C-188.2,241.4-187.9,241.4-187.8,241.6z"/>
	<path class="st7" d="M-187.6,241.7l3.3,6.7c0,0.1,0.1,0.1,0.2,0.1l7.4,1.1c0.2,0,0.3,0.3,0.1,0.4l-5.3,5.2
		c-0.1,0.1-0.1,0.1-0.1,0.2l1.3,7.3c0,0.2-0.2,0.4-0.4,0.3l-6.6-3.5c-0.1,0-0.2,0-0.2,0l-6.6,3.5c-0.2,0.1-0.4-0.1-0.4-0.3l1.3-7.3
		c0-0.1,0-0.2-0.1-0.2l-5.3-5.2c-0.1-0.1-0.1-0.4,0.1-0.4l7.4-1.1c0.1,0,0.2-0.1,0.2-0.1l3.3-6.7
		C-188,241.5-187.7,241.5-187.6,241.7z"/>
	<path class="st7" d="M-187.5,241.8l3.3,6.7c0,0.1,0.1,0.1,0.2,0.1l7.4,1.1c0.2,0,0.3,0.3,0.1,0.4l-5.3,5.2
		c-0.1,0.1-0.1,0.1-0.1,0.2l1.3,7.3c0,0.2-0.2,0.4-0.4,0.3l-6.6-3.5c-0.1,0-0.2,0-0.2,0l-6.6,3.5c-0.2,0.1-0.4-0.1-0.4-0.3l1.3-7.3
		c0-0.1,0-0.2-0.1-0.2l-5.3-5.2c-0.1-0.1-0.1-0.4,0.1-0.4l7.4-1.1c0.1,0,0.2-0.1,0.2-0.1l3.3-6.7
		C-187.8,241.6-187.5,241.6-187.5,241.8z"/>
	<path class="st7" d="M-187.3,241.9l3.3,6.7c0,0.1,0.1,0.1,0.2,0.1l7.4,1.1c0.2,0,0.3,0.3,0.1,0.4l-5.3,5.2
		c-0.1,0.1-0.1,0.1-0.1,0.2l1.3,7.3c0,0.2-0.2,0.4-0.4,0.3l-6.6-3.5c-0.1,0-0.2,0-0.2,0l-6.6,3.5c-0.2,0.1-0.4-0.1-0.4-0.3l1.3-7.3
		c0-0.1,0-0.2-0.1-0.2l-5.3-5.2c-0.1-0.1-0.1-0.4,0.1-0.4l7.4-1.1c0.1,0,0.2-0.1,0.2-0.1l3.3-6.7
		C-187.6,241.8-187.4,241.8-187.3,241.9z"/>
	<path class="st7" d="M-187.1,242.1l3.3,6.7c0,0.1,0.1,0.1,0.2,0.1l7.4,1.1c0.2,0,0.3,0.3,0.1,0.4l-5.3,5.2
		c-0.1,0.1-0.1,0.1-0.1,0.2l1.3,7.3c0,0.2-0.2,0.4-0.4,0.3l-6.6-3.5c-0.1,0-0.2,0-0.2,0l-6.6,3.5c-0.2,0.1-0.4-0.1-0.4-0.3l1.3-7.3
		c0-0.1,0-0.2-0.1-0.2l-5.3-5.2c-0.1-0.1-0.1-0.4,0.1-0.4l7.4-1.1c0.1,0,0.2-0.1,0.2-0.1l3.3-6.7
		C-187.5,241.9-187.2,241.9-187.1,242.1z"/>
	<path class="st7" d="M-186.9,242.2l3.3,6.7c0,0.1,0.1,0.1,0.2,0.1l7.4,1.1c0.2,0,0.3,0.3,0.1,0.4l-5.3,5.2
		c-0.1,0.1-0.1,0.1-0.1,0.2l1.3,7.3c0,0.2-0.2,0.4-0.4,0.3l-6.6-3.5c-0.1,0-0.2,0-0.2,0l-6.6,3.5c-0.2,0.1-0.4-0.1-0.4-0.3l1.3-7.3
		c0-0.1,0-0.2-0.1-0.2l-5.3-5.2c-0.1-0.1-0.1-0.4,0.1-0.4l7.4-1.1c0.1,0,0.2-0.1,0.2-0.1l3.3-6.7C-187.3,242-187,242-186.9,242.2z"
		/>
	<path class="st7" d="M-186.7,242.3l3.3,6.7c0,0.1,0.1,0.1,0.2,0.1l7.4,1.1c0.2,0,0.3,0.3,0.1,0.4l-5.3,5.2
		c-0.1,0.1-0.1,0.1-0.1,0.2l1.3,7.3c0,0.2-0.2,0.4-0.4,0.3l-6.6-3.5c-0.1,0-0.2,0-0.2,0l-6.6,3.5c-0.2,0.1-0.4-0.1-0.4-0.3l1.3-7.3
		c0-0.1,0-0.2-0.1-0.2l-5.3-5.2c-0.1-0.1-0.1-0.4,0.1-0.4l7.4-1.1c0.1,0,0.2-0.1,0.2-0.1l3.3-6.7
		C-187.1,242.1-186.8,242.1-186.7,242.3z"/>
	<path class="st7" d="M-186.6,242.4l3.3,6.7c0,0.1,0.1,0.1,0.2,0.1l7.4,1.1c0.2,0,0.3,0.3,0.1,0.4l-5.3,5.2
		c-0.1,0.1-0.1,0.1-0.1,0.2l1.3,7.3c0,0.2-0.2,0.4-0.4,0.3l-6.6-3.5c-0.1,0-0.2,0-0.2,0l-6.6,3.5c-0.2,0.1-0.4-0.1-0.4-0.3l1.3-7.3
		c0-0.1,0-0.2-0.1-0.2l-5.3-5.2c-0.1-0.1-0.1-0.4,0.1-0.4l7.4-1.1c0.1,0,0.2-0.1,0.2-0.1l3.3-6.7
		C-186.9,242.3-186.7,242.3-186.6,242.4z"/>
	<path class="st7" d="M-186.4,242.6l3.3,6.7c0,0.1,0.1,0.1,0.2,0.1l7.4,1.1c0.2,0,0.3,0.3,0.1,0.4l-5.3,5.2
		c-0.1,0.1-0.1,0.1-0.1,0.2l1.3,7.3c0,0.2-0.2,0.4-0.4,0.3l-6.6-3.5c-0.1,0-0.2,0-0.2,0l-6.6,3.5c-0.2,0.1-0.4-0.1-0.4-0.3l1.3-7.3
		c0-0.1,0-0.2-0.1-0.2l-5.3-5.2c-0.1-0.1-0.1-0.4,0.1-0.4l7.4-1.1c0.1,0,0.2-0.1,0.2-0.1l3.3-6.7
		C-186.7,242.4-186.5,242.4-186.4,242.6z"/>
	<path class="st7" d="M-186.2,242.7l3.3,6.7c0,0.1,0.1,0.1,0.2,0.1l7.4,1.1c0.2,0,0.3,0.3,0.1,0.4l-5.3,5.2
		c-0.1,0.1-0.1,0.1-0.1,0.2l1.3,7.3c0,0.2-0.2,0.4-0.4,0.3l-6.6-3.5c-0.1,0-0.2,0-0.2,0l-6.6,3.5c-0.2,0.1-0.4-0.1-0.4-0.3l1.3-7.3
		c0-0.1,0-0.2-0.1-0.2l-5.3-5.2c-0.1-0.1-0.1-0.4,0.1-0.4l7.4-1.1c0.1,0,0.2-0.1,0.2-0.1l3.3-6.7
		C-186.6,242.5-186.3,242.5-186.2,242.7z"/>
	<path class="st7" d="M-186,242.8l3.3,6.7c0,0.1,0.1,0.1,0.2,0.1l7.4,1.1c0.2,0,0.3,0.3,0.1,0.4l-5.3,5.2c-0.1,0.1-0.1,0.1-0.1,0.2
		l1.3,7.3c0,0.2-0.2,0.4-0.4,0.3l-6.6-3.5c-0.1,0-0.2,0-0.2,0l-6.6,3.5c-0.2,0.1-0.4-0.1-0.4-0.3l1.3-7.3c0-0.1,0-0.2-0.1-0.2
		l-5.3-5.2c-0.1-0.1-0.1-0.4,0.1-0.4l7.4-1.1c0.1,0,0.2-0.1,0.2-0.1l3.3-6.7C-186.4,242.6-186.1,242.6-186,242.8z"/>
	<path class="st7" d="M-185.9,243l3.3,6.7c0,0.1,0.1,0.1,0.2,0.1l7.4,1.1c0.2,0,0.3,0.3,0.1,0.4l-5.3,5.2c-0.1,0.1-0.1,0.1-0.1,0.2
		l1.3,7.3c0,0.2-0.2,0.4-0.4,0.3l-6.6-3.5c-0.1,0-0.2,0-0.2,0l-6.6,3.5c-0.2,0.1-0.4-0.1-0.4-0.3l1.3-7.3c0-0.1,0-0.2-0.1-0.2
		l-5.3-5.2c-0.1-0.1-0.1-0.4,0.1-0.4l7.4-1.1c0.1,0,0.2-0.1,0.2-0.1l3.3-6.7C-186.2,242.8-185.9,242.8-185.9,243z"/>
	<path class="st7" d="M-185.7,243.1l3.3,6.7c0,0.1,0.1,0.1,0.2,0.1l7.4,1.1c0.2,0,0.3,0.3,0.1,0.4l-5.3,5.2
		c-0.1,0.1-0.1,0.1-0.1,0.2l1.3,7.3c0,0.2-0.2,0.4-0.4,0.3l-6.6-3.5c-0.1,0-0.2,0-0.2,0l-6.6,3.5c-0.2,0.1-0.4-0.1-0.4-0.3l1.3-7.3
		c0-0.1,0-0.2-0.1-0.2l-5.3-5.2c-0.1-0.1-0.1-0.4,0.1-0.4l7.4-1.1c0.1,0,0.2-0.1,0.2-0.1l3.3-6.7
		C-186,242.9-185.8,242.9-185.7,243.1z"/>
	<path class="st7" d="M-185.5,243.2l3.3,6.7c0,0.1,0.1,0.1,0.2,0.1l7.4,1.1c0.2,0,0.3,0.3,0.1,0.4l-5.3,5.2
		c-0.1,0.1-0.1,0.1-0.1,0.2l1.3,7.3c0,0.2-0.2,0.4-0.4,0.3l-6.6-3.5c-0.1,0-0.2,0-0.2,0l-6.6,3.5c-0.2,0.1-0.4-0.1-0.4-0.3l1.3-7.3
		c0-0.1,0-0.2-0.1-0.2l-5.3-5.2c-0.1-0.1-0.1-0.4,0.1-0.4l7.4-1.1c0.1,0,0.2-0.1,0.2-0.1l3.3-6.7C-185.9,243-185.6,243-185.5,243.2z
		"/>
	<path class="st7" d="M-185.3,243.3l3.3,6.7c0,0.1,0.1,0.1,0.2,0.1l7.4,1.1c0.2,0,0.3,0.3,0.1,0.4l-5.3,5.2
		c-0.1,0.1-0.1,0.1-0.1,0.2l1.3,7.3c0,0.2-0.2,0.4-0.4,0.3l-6.6-3.5c-0.1,0-0.2,0-0.2,0l-6.6,3.5c-0.2,0.1-0.4-0.1-0.4-0.3l1.3-7.3
		c0-0.1,0-0.2-0.1-0.2l-5.3-5.2c-0.1-0.1-0.1-0.4,0.1-0.4l7.4-1.1c0.1,0,0.2-0.1,0.2-0.1l3.3-6.7
		C-185.7,243.1-185.4,243.1-185.3,243.3z"/>
	<path class="st7" d="M-185.1,243.5l3.3,6.7c0,0.1,0.1,0.1,0.2,0.1l7.4,1.1c0.2,0,0.3,0.3,0.1,0.4l-5.3,5.2
		c-0.1,0.1-0.1,0.1-0.1,0.2l1.3,7.3c0,0.2-0.2,0.4-0.4,0.3l-6.6-3.5c-0.1,0-0.2,0-0.2,0l-6.6,3.5c-0.2,0.1-0.4-0.1-0.4-0.3l1.3-7.3
		c0-0.1,0-0.2-0.1-0.2l-5.3-5.2c-0.1-0.1-0.1-0.4,0.1-0.4l7.4-1.1c0.1,0,0.2-0.1,0.2-0.1l3.3-6.7
		C-185.5,243.3-185.2,243.3-185.1,243.5z"/>
	<path class="st7" d="M-185,243.6l3.3,6.7c0,0.1,0.1,0.1,0.2,0.1l7.4,1.1c0.2,0,0.3,0.3,0.1,0.4l-5.3,5.2c-0.1,0.1-0.1,0.1-0.1,0.2
		l1.3,7.3c0,0.2-0.2,0.4-0.4,0.3l-6.6-3.5c-0.1,0-0.2,0-0.2,0l-6.6,3.5c-0.2,0.1-0.4-0.1-0.4-0.3l1.3-7.3c0-0.1,0-0.2-0.1-0.2
		l-5.3-5.2c-0.1-0.1-0.1-0.4,0.1-0.4l7.4-1.1c0.1,0,0.2-0.1,0.2-0.1l3.3-6.7C-185.3,243.4-185.1,243.4-185,243.6z"/>
	<path class="st7" d="M-184.8,243.7l3.3,6.7c0,0.1,0.1,0.1,0.2,0.1l7.4,1.1c0.2,0,0.3,0.3,0.1,0.4l-5.3,5.2
		c-0.1,0.1-0.1,0.1-0.1,0.2l1.3,7.3c0,0.2-0.2,0.4-0.4,0.3l-6.6-3.5c-0.1,0-0.2,0-0.2,0l-6.6,3.5c-0.2,0.1-0.4-0.1-0.4-0.3l1.3-7.3
		c0-0.1,0-0.2-0.1-0.2l-5.3-5.2c-0.1-0.1-0.1-0.4,0.1-0.4l7.4-1.1c0.1,0,0.2-0.1,0.2-0.1l3.3-6.7
		C-185.1,243.5-184.9,243.5-184.8,243.7z"/>
	<path class="st7" d="M-184.6,243.8l3.3,6.7c0,0.1,0.1,0.1,0.2,0.1l7.4,1.1c0.2,0,0.3,0.3,0.1,0.4l-5.3,5.2
		c-0.1,0.1-0.1,0.1-0.1,0.2l1.3,7.3c0,0.2-0.2,0.4-0.4,0.3l-6.6-3.5c-0.1,0-0.2,0-0.2,0l-6.6,3.5c-0.2,0.1-0.4-0.1-0.4-0.3l1.3-7.3
		c0-0.1,0-0.2-0.1-0.2l-5.3-5.2c-0.1-0.1-0.1-0.4,0.1-0.4l7.4-1.1c0.1,0,0.2-0.1,0.2-0.1l3.3-6.7
		C-185,243.7-184.7,243.7-184.6,243.8z"/>
	<path class="st7" d="M-184.4,244l3.3,6.7c0,0.1,0.1,0.1,0.2,0.1l7.4,1.1c0.2,0,0.3,0.3,0.1,0.4l-5.3,5.2c-0.1,0.1-0.1,0.1-0.1,0.2
		l1.3,7.3c0,0.2-0.2,0.4-0.4,0.3l-6.6-3.5c-0.1,0-0.2,0-0.2,0l-6.6,3.5c-0.2,0.1-0.4-0.1-0.4-0.3l1.3-7.3c0-0.1,0-0.2-0.1-0.2
		l-5.3-5.2c-0.1-0.1-0.1-0.4,0.1-0.4l7.4-1.1c0.1,0,0.2-0.1,0.2-0.1l3.3-6.7C-184.8,243.8-184.5,243.8-184.4,244z"/>
	<path class="st7" d="M-184.2,244.1l3.3,6.7c0,0.1,0.1,0.1,0.2,0.1l7.4,1.1c0.2,0,0.3,0.3,0.1,0.4l-5.3,5.2
		c-0.1,0.1-0.1,0.1-0.1,0.2l1.3,7.3c0,0.2-0.2,0.4-0.4,0.3l-6.6-3.5c-0.1,0-0.2,0-0.2,0l-6.6,3.5c-0.2,0.1-0.4-0.1-0.4-0.3l1.3-7.3
		c0-0.1,0-0.2-0.1-0.2l-5.3-5.2c-0.1-0.1-0.1-0.4,0.1-0.4l7.4-1.1c0.1,0,0.2-0.1,0.2-0.1l3.3-6.7
		C-184.6,243.9-184.3,243.9-184.2,244.1z"/>
	<path class="st7" d="M-184.1,244.2l3.3,6.7c0,0.1,0.1,0.1,0.2,0.1l7.4,1.1c0.2,0,0.3,0.3,0.1,0.4l-5.3,5.2
		c-0.1,0.1-0.1,0.1-0.1,0.2l1.3,7.3c0,0.2-0.2,0.4-0.4,0.3l-6.6-3.5c-0.1,0-0.2,0-0.2,0l-6.6,3.5c-0.2,0.1-0.4-0.1-0.4-0.3l1.3-7.3
		c0-0.1,0-0.2-0.1-0.2l-5.3-5.2c-0.1-0.1-0.1-0.4,0.1-0.4l7.4-1.1c0.1,0,0.2-0.1,0.2-0.1l3.3-6.7C-184.4,244-184.2,244-184.1,244.2z
		"/>
	<path class="st7" d="M-183.9,244.3l3.3,6.7c0,0.1,0.1,0.1,0.2,0.1l7.4,1.1c0.2,0,0.3,0.3,0.1,0.4l-5.3,5.2
		c-0.1,0.1-0.1,0.1-0.1,0.2l1.3,7.3c0,0.2-0.2,0.4-0.4,0.3l-6.6-3.5c-0.1,0-0.2,0-0.2,0l-6.6,3.5c-0.2,0.1-0.4-0.1-0.4-0.3l1.3-7.3
		c0-0.1,0-0.2-0.1-0.2l-5.3-5.2c-0.1-0.1-0.1-0.4,0.1-0.4l7.4-1.1c0.1,0,0.2-0.1,0.2-0.1l3.3-6.7
		C-184.2,244.2-184,244.2-183.9,244.3z"/>
	<path class="st7" d="M-183.7,244.5l3.3,6.7c0,0.1,0.1,0.1,0.2,0.1l7.4,1.1c0.2,0,0.3,0.3,0.1,0.4l-5.3,5.2
		c-0.1,0.1-0.1,0.1-0.1,0.2l1.3,7.3c0,0.2-0.2,0.4-0.4,0.3l-6.6-3.5c-0.1,0-0.2,0-0.2,0l-6.6,3.5c-0.2,0.1-0.4-0.1-0.4-0.3l1.3-7.3
		c0-0.1,0-0.2-0.1-0.2l-5.3-5.2c-0.1-0.1-0.1-0.4,0.1-0.4l7.4-1.1c0.1,0,0.2-0.1,0.2-0.1l3.3-6.7
		C-184.1,244.3-183.8,244.3-183.7,244.5z"/>
	<path class="st7" d="M-183.5,244.6l3.3,6.7c0,0.1,0.1,0.1,0.2,0.1l7.4,1.1c0.2,0,0.3,0.3,0.1,0.4l-5.3,5.2
		c-0.1,0.1-0.1,0.1-0.1,0.2l1.3,7.3c0,0.2-0.2,0.4-0.4,0.3l-6.6-3.5c-0.1,0-0.2,0-0.2,0l-6.6,3.5c-0.2,0.1-0.4-0.1-0.4-0.3l1.3-7.3
		c0-0.1,0-0.2-0.1-0.2l-5.3-5.2c-0.1-0.1-0.1-0.4,0.1-0.4l7.4-1.1c0.1,0,0.2-0.1,0.2-0.1l3.3-6.7
		C-183.9,244.4-183.6,244.4-183.5,244.6z"/>
	<path class="st7" d="M-183.4,244.7l3.3,6.7c0,0.1,0.1,0.1,0.2,0.1l7.4,1.1c0.2,0,0.3,0.3,0.1,0.4l-5.3,5.2
		c-0.1,0.1-0.1,0.1-0.1,0.2l1.3,7.3c0,0.2-0.2,0.4-0.4,0.3l-6.6-3.5c-0.1,0-0.2,0-0.2,0l-6.6,3.5c-0.2,0.1-0.4-0.1-0.4-0.3l1.3-7.3
		c0-0.1,0-0.2-0.1-0.2l-5.3-5.2c-0.1-0.1-0.1-0.4,0.1-0.4l7.4-1.1c0.1,0,0.2-0.1,0.2-0.1l3.3-6.7
		C-183.7,244.5-183.4,244.5-183.4,244.7z"/>
	<path class="st7" d="M-183.2,244.8l3.3,6.7c0,0.1,0.1,0.1,0.2,0.1l7.4,1.1c0.2,0,0.3,0.3,0.1,0.4l-5.3,5.2
		c-0.1,0.1-0.1,0.1-0.1,0.2l1.3,7.3c0,0.2-0.2,0.4-0.4,0.3l-6.6-3.5c-0.1,0-0.2,0-0.2,0l-6.6,3.5c-0.2,0.1-0.4-0.1-0.4-0.3l1.3-7.3
		c0-0.1,0-0.2-0.1-0.2l-5.3-5.2c-0.1-0.1-0.1-0.4,0.1-0.4l7.4-1.1c0.1,0,0.2-0.1,0.2-0.1l3.3-6.7
		C-183.5,244.7-183.3,244.7-183.2,244.8z"/>
	<path class="st7" d="M-183,245l3.3,6.7c0,0.1,0.1,0.1,0.2,0.1l7.4,1.1c0.2,0,0.3,0.3,0.1,0.4l-5.3,5.2c-0.1,0.1-0.1,0.1-0.1,0.2
		l1.3,7.3c0,0.2-0.2,0.4-0.4,0.3l-6.6-3.5c-0.1,0-0.2,0-0.2,0l-6.6,3.5c-0.2,0.1-0.4-0.1-0.4-0.3l1.3-7.3c0-0.1,0-0.2-0.1-0.2
		l-5.3-5.2c-0.1-0.1-0.1-0.4,0.1-0.4l7.4-1.1c0.1,0,0.2-0.1,0.2-0.1l3.3-6.7C-183.4,244.8-183.1,244.8-183,245z"/>
	<path class="st7" d="M-182.8,245.1l3.3,6.7c0,0.1,0.1,0.1,0.2,0.1l7.4,1.1c0.2,0,0.3,0.3,0.1,0.4l-5.3,5.2
		c-0.1,0.1-0.1,0.1-0.1,0.2l1.3,7.3c0,0.2-0.2,0.4-0.4,0.3l-6.6-3.5c-0.1,0-0.2,0-0.2,0l-6.6,3.5c-0.2,0.1-0.4-0.1-0.4-0.3l1.3-7.3
		c0-0.1,0-0.2-0.1-0.2l-5.3-5.2c-0.1-0.1-0.1-0.4,0.1-0.4l7.4-1.1c0.1,0,0.2-0.1,0.2-0.1l3.3-6.7
		C-183.2,244.9-182.9,244.9-182.8,245.1z"/>
	<path class="st7" d="M-182.6,245.2l3.3,6.7c0,0.1,0.1,0.1,0.2,0.1l7.4,1.1c0.2,0,0.3,0.3,0.1,0.4l-5.4,5.2
		c-0.1,0.1-0.1,0.1-0.1,0.2l1.3,7.3c0,0.2-0.2,0.4-0.4,0.3l-6.6-3.5c-0.1,0-0.2,0-0.2,0l-6.6,3.5c-0.2,0.1-0.4-0.1-0.4-0.3l1.3-7.3
		c0-0.1,0-0.2-0.1-0.2l-5.3-5.2c-0.1-0.1-0.1-0.4,0.1-0.4l7.4-1.1c0.1,0,0.2-0.1,0.2-0.1l3.3-6.7C-183,245-182.7,245-182.6,245.2z"
		/>
	<path class="st7" d="M-182.5,245.4l3.3,6.7c0,0.1,0.1,0.1,0.2,0.1l7.4,1.1c0.2,0,0.3,0.3,0.1,0.4l-5.3,5.2
		c-0.1,0.1-0.1,0.1-0.1,0.2l1.3,7.3c0,0.2-0.2,0.4-0.4,0.3l-6.6-3.5c-0.1,0-0.2,0-0.2,0l-6.6,3.5c-0.2,0.1-0.4-0.1-0.4-0.3l1.3-7.3
		c0-0.1,0-0.2-0.1-0.2l-5.3-5.2c-0.1-0.1-0.1-0.4,0.1-0.4l7.4-1.1c0.1,0,0.2-0.1,0.2-0.1l3.3-6.7
		C-182.8,245.2-182.6,245.2-182.5,245.4z"/>
	<path class="st7" d="M-182.3,245.5l3.3,6.7c0,0.1,0.1,0.1,0.2,0.1l7.4,1.1c0.2,0,0.3,0.3,0.1,0.4l-5.3,5.2
		c-0.1,0.1-0.1,0.1-0.1,0.2l1.3,7.3c0,0.2-0.2,0.4-0.4,0.3l-6.6-3.5c-0.1,0-0.2,0-0.2,0l-6.6,3.5c-0.2,0.1-0.4-0.1-0.4-0.3l1.3-7.3
		c0-0.1,0-0.2-0.1-0.2l-5.3-5.2c-0.1-0.1-0.1-0.4,0.1-0.4l7.4-1.1c0.1,0,0.2-0.1,0.2-0.1l3.3-6.7
		C-182.6,245.3-182.4,245.3-182.3,245.5z"/>
	<path class="st7" d="M-182.1,245.6l3.3,6.7c0,0.1,0.1,0.1,0.2,0.1l7.4,1.1c0.2,0,0.3,0.3,0.1,0.4l-5.3,5.2
		c-0.1,0.1-0.1,0.1-0.1,0.2l1.3,7.3c0,0.2-0.2,0.4-0.4,0.3l-6.6-3.5c-0.1,0-0.2,0-0.2,0l-6.6,3.5c-0.2,0.1-0.4-0.1-0.4-0.3l1.3-7.3
		c0-0.1,0-0.2-0.1-0.2l-5.3-5.2c-0.1-0.1-0.1-0.4,0.1-0.4l7.4-1.1c0.1,0,0.2-0.1,0.2-0.1l3.3-6.7
		C-182.5,245.4-182.2,245.4-182.1,245.6z"/>
	<path class="st7" d="M-181.9,245.7l3.3,6.7c0,0.1,0.1,0.1,0.2,0.1l7.4,1.1c0.2,0,0.3,0.3,0.1,0.4l-5.3,5.2
		c-0.1,0.1-0.1,0.1-0.1,0.2l1.3,7.3c0,0.2-0.2,0.4-0.4,0.3l-6.6-3.5c-0.1,0-0.2,0-0.2,0l-6.6,3.5c-0.2,0.1-0.4-0.1-0.4-0.3l1.3-7.3
		c0-0.1,0-0.2-0.1-0.2l-5.3-5.2c-0.1-0.1-0.1-0.4,0.1-0.4l7.4-1.1c0.1,0,0.2-0.1,0.2-0.1l3.3-6.7
		C-182.3,245.5-182,245.5-181.9,245.7z"/>
	<path class="st7" d="M-181.7,245.9l3.3,6.7c0,0.1,0.1,0.1,0.2,0.1l7.4,1.1c0.2,0,0.3,0.3,0.1,0.4l-5.3,5.2
		c-0.1,0.1-0.1,0.1-0.1,0.2l1.3,7.3c0,0.2-0.2,0.4-0.4,0.3l-6.6-3.5c-0.1,0-0.2,0-0.2,0l-6.6,3.5c-0.2,0.1-0.4-0.1-0.4-0.3l1.3-7.3
		c0-0.1,0-0.2-0.1-0.2l-5.3-5.2c-0.1-0.1-0.1-0.4,0.1-0.4l7.4-1.1c0.1,0,0.2-0.1,0.2-0.1l3.3-6.7
		C-182.1,245.7-181.8,245.7-181.7,245.9z"/>
	<path class="st7" d="M-181.6,246l3.3,6.7c0,0.1,0.1,0.1,0.2,0.1l7.4,1.1c0.2,0,0.3,0.3,0.1,0.4l-5.3,5.2c-0.1,0.1-0.1,0.1-0.1,0.2
		l1.3,7.3c0,0.2-0.2,0.4-0.4,0.3l-6.6-3.5c-0.1,0-0.2,0-0.2,0l-6.6,3.5c-0.2,0.1-0.4-0.1-0.4-0.3l1.3-7.3c0-0.1,0-0.2-0.1-0.2
		l-5.3-5.2c-0.1-0.1-0.1-0.4,0.1-0.4l7.4-1.1c0.1,0,0.2-0.1,0.2-0.1l3.3-6.7C-181.9,245.8-181.7,245.8-181.6,246z"/>
	<path class="st7" d="M-181.4,246.1l3.3,6.7c0,0.1,0.1,0.1,0.2,0.1l7.4,1.1c0.2,0,0.3,0.3,0.1,0.4l-5.3,5.2
		c-0.1,0.1-0.1,0.1-0.1,0.2l1.3,7.3c0,0.2-0.2,0.4-0.4,0.3l-6.6-3.5c-0.1,0-0.2,0-0.2,0l-6.6,3.5c-0.2,0.1-0.4-0.1-0.4-0.3l1.3-7.3
		c0-0.1,0-0.2-0.1-0.2l-5.3-5.2c-0.1-0.1-0.1-0.4,0.1-0.4l7.4-1.1c0.1,0,0.2-0.1,0.2-0.1l3.3-6.7
		C-181.8,245.9-181.5,245.9-181.4,246.1z"/>
	<path class="st7" d="M-181.2,246.2l3.3,6.7c0,0.1,0.1,0.1,0.2,0.1l7.4,1.1c0.2,0,0.3,0.3,0.1,0.4l-5.3,5.2
		c-0.1,0.1-0.1,0.1-0.1,0.2l1.3,7.3c0,0.2-0.2,0.4-0.4,0.3l-6.6-3.5c-0.1,0-0.2,0-0.2,0l-6.6,3.5c-0.2,0.1-0.4-0.1-0.4-0.3l1.3-7.3
		c0-0.1,0-0.2-0.1-0.2l-5.3-5.2c-0.1-0.1-0.1-0.4,0.1-0.4l7.4-1.1c0.1,0,0.2-0.1,0.2-0.1l3.3-6.7
		C-181.6,246.1-181.3,246.1-181.2,246.2z"/>
	<path class="st7" d="M-181,246.4l3.3,6.7c0,0.1,0.1,0.1,0.2,0.1l7.4,1.1c0.2,0,0.3,0.3,0.1,0.4l-5.3,5.2c-0.1,0.1-0.1,0.1-0.1,0.2
		l1.3,7.3c0,0.2-0.2,0.4-0.4,0.3l-6.6-3.5c-0.1,0-0.2,0-0.2,0l-6.7,3.5c-0.2,0.1-0.4-0.1-0.4-0.3l1.3-7.3c0-0.1,0-0.2-0.1-0.2
		l-5.3-5.2c-0.1-0.1-0.1-0.4,0.1-0.4l7.4-1.1c0.1,0,0.2-0.1,0.2-0.1l3.3-6.7C-181.4,246.2-181.1,246.2-181,246.4z"/>
	<path class="st7" d="M-180.9,246.5l3.3,6.7c0,0.1,0.1,0.1,0.2,0.1l7.4,1.1c0.2,0,0.3,0.3,0.1,0.4l-5.3,5.2
		c-0.1,0.1-0.1,0.1-0.1,0.2l1.3,7.3c0,0.2-0.2,0.4-0.4,0.3l-6.6-3.5c-0.1,0-0.2,0-0.2,0l-6.6,3.5c-0.2,0.1-0.4-0.1-0.4-0.3l1.3-7.3
		c0-0.1,0-0.2-0.1-0.2l-5.3-5.2c-0.1-0.1-0.1-0.4,0.1-0.4l7.4-1.1c0.1,0,0.2-0.1,0.2-0.1l3.3-6.7
		C-181.2,246.3-181,246.3-180.9,246.5z"/>
	<path class="st7" d="M-180.7,246.6l3.3,6.7c0,0.1,0.1,0.1,0.2,0.1l7.4,1.1c0.2,0,0.3,0.3,0.1,0.4l-5.3,5.2
		c-0.1,0.1-0.1,0.1-0.1,0.2l1.3,7.3c0,0.2-0.2,0.4-0.4,0.3l-6.6-3.5c-0.1,0-0.2,0-0.2,0l-6.6,3.5c-0.2,0.1-0.4-0.1-0.4-0.3l1.3-7.3
		c0-0.1,0-0.2-0.1-0.2l-5.3-5.2c-0.1-0.1-0.1-0.4,0.1-0.4l7.4-1.1c0.1,0,0.2-0.1,0.2-0.1l3.3-6.7
		C-181,246.4-180.8,246.4-180.7,246.6z"/>
	<path class="st7" d="M-180.5,246.7l3.3,6.7c0,0.1,0.1,0.1,0.2,0.1l7.4,1.1c0.2,0,0.3,0.3,0.1,0.4l-5.3,5.2
		c-0.1,0.1-0.1,0.1-0.1,0.2l1.3,7.3c0,0.2-0.2,0.4-0.4,0.3l-6.6-3.5c-0.1,0-0.2,0-0.2,0l-6.6,3.5c-0.2,0.1-0.4-0.1-0.4-0.3l1.3-7.3
		c0-0.1,0-0.2-0.1-0.2l-5.3-5.2c-0.1-0.1-0.1-0.4,0.1-0.4l7.4-1.1c0.1,0,0.2-0.1,0.2-0.1l3.3-6.7
		C-180.9,246.6-180.6,246.6-180.5,246.7z"/>
	<path class="st7" d="M-180.3,246.9l3.3,6.7c0,0.1,0.1,0.1,0.2,0.1l7.4,1.1c0.2,0,0.3,0.3,0.1,0.4l-5.3,5.2
		c-0.1,0.1-0.1,0.1-0.1,0.2l1.3,7.3c0,0.2-0.2,0.4-0.4,0.3l-6.6-3.5c-0.1,0-0.2,0-0.2,0l-6.6,3.5c-0.2,0.1-0.4-0.1-0.4-0.3l1.3-7.3
		c0-0.1,0-0.2-0.1-0.2l-5.3-5.2c-0.1-0.1-0.1-0.4,0.1-0.4l7.4-1.1c0.1,0,0.2-0.1,0.2-0.1l3.3-6.7
		C-180.7,246.7-180.4,246.7-180.3,246.9z"/>
	<path class="st7" d="M-180.1,247l3.3,6.7c0,0.1,0.1,0.1,0.2,0.1l7.4,1.1c0.2,0,0.3,0.3,0.1,0.4l-5.3,5.2c-0.1,0.1-0.1,0.1-0.1,0.2
		l1.3,7.3c0,0.2-0.2,0.4-0.4,0.3l-6.6-3.5c-0.1,0-0.2,0-0.2,0l-6.6,3.5c-0.2,0.1-0.4-0.1-0.4-0.3l1.3-7.3c0-0.1,0-0.2-0.1-0.2
		l-5.3-5.2c-0.1-0.1-0.1-0.4,0.1-0.4l7.4-1.1c0.1,0,0.2-0.1,0.2-0.1l3.3-6.7C-180.5,246.8-180.2,246.8-180.1,247z"/>
	<path class="st7" d="M-180,247.1l3.3,6.7c0,0.1,0.1,0.1,0.2,0.1l7.4,1.1c0.2,0,0.3,0.3,0.1,0.4l-5.3,5.2c-0.1,0.1-0.1,0.1-0.1,0.2
		l1.3,7.3c0,0.2-0.2,0.4-0.4,0.3l-6.6-3.5c-0.1,0-0.2,0-0.2,0l-6.6,3.5c-0.2,0.1-0.4-0.1-0.4-0.3l1.3-7.3c0-0.1,0-0.2-0.1-0.2
		l-5.3-5.2c-0.1-0.1-0.1-0.4,0.1-0.4l7.4-1.1c0.1,0,0.2-0.1,0.2-0.1l3.3-6.7C-180.3,246.9-180.1,246.9-180,247.1z"/>
	<path class="st7" d="M-179.8,247.3l3.3,6.7c0,0.1,0.1,0.1,0.2,0.1l7.4,1.1c0.2,0,0.3,0.3,0.1,0.4l-5.3,5.2
		c-0.1,0.1-0.1,0.1-0.1,0.2l1.3,7.3c0,0.2-0.2,0.4-0.4,0.3l-6.6-3.5c-0.1,0-0.2,0-0.2,0l-6.6,3.5c-0.2,0.1-0.4-0.1-0.4-0.3l1.3-7.3
		c0-0.1,0-0.2-0.1-0.2l-5.3-5.2c-0.1-0.1-0.1-0.4,0.1-0.4l7.4-1.1c0.1,0,0.2-0.1,0.2-0.1l3.3-6.7
		C-180.1,247.1-179.9,247.1-179.8,247.3z"/>
	<path class="st7" d="M-179.6,247.4l3.3,6.7c0,0.1,0.1,0.1,0.2,0.1l7.4,1.1c0.2,0,0.3,0.3,0.1,0.4l-5.3,5.2
		c-0.1,0.1-0.1,0.1-0.1,0.2l1.3,7.3c0,0.2-0.2,0.4-0.4,0.3l-6.6-3.5c-0.1,0-0.2,0-0.2,0l-6.6,3.5c-0.2,0.1-0.4-0.1-0.4-0.3l1.3-7.3
		c0-0.1,0-0.2-0.1-0.2l-5.3-5.2c-0.1-0.1-0.1-0.4,0.1-0.4l7.4-1.1c0.1,0,0.2-0.1,0.2-0.1l3.3-6.7
		C-180,247.2-179.7,247.2-179.6,247.4z"/>
	<path class="st7" d="M-179.4,247.5l3.3,6.7c0,0.1,0.1,0.1,0.2,0.1l7.4,1.1c0.2,0,0.3,0.3,0.1,0.4l-5.3,5.2
		c-0.1,0.1-0.1,0.1-0.1,0.2l1.3,7.3c0,0.2-0.2,0.4-0.4,0.3l-6.6-3.5c-0.1,0-0.2,0-0.2,0l-6.6,3.5c-0.2,0.1-0.4-0.1-0.4-0.3l1.3-7.3
		c0-0.1,0-0.2-0.1-0.2l-5.3-5.2c-0.1-0.1-0.1-0.4,0.1-0.4l7.4-1.1c0.1,0,0.2-0.1,0.2-0.1l3.3-6.7
		C-179.8,247.3-179.5,247.3-179.4,247.5z"/>
	<path class="st7" d="M-179.3,247.6l3.3,6.7c0,0.1,0.1,0.1,0.2,0.1l7.4,1.1c0.2,0,0.3,0.3,0.1,0.4l-5.3,5.2
		c-0.1,0.1-0.1,0.1-0.1,0.2l1.3,7.3c0,0.2-0.2,0.4-0.4,0.3l-6.6-3.5c-0.1,0-0.2,0-0.2,0l-6.6,3.5c-0.2,0.1-0.4-0.1-0.4-0.3l1.3-7.3
		c0-0.1,0-0.2-0.1-0.2l-5.3-5.2c-0.1-0.1-0.1-0.4,0.1-0.4l7.4-1.1c0.1,0,0.2-0.1,0.2-0.1l3.3-6.7
		C-179.6,247.4-179.3,247.4-179.3,247.6z"/>
	<path class="st7" d="M-179.1,247.8l3.3,6.7c0,0.1,0.1,0.1,0.2,0.1l7.4,1.1c0.2,0,0.3,0.3,0.1,0.4l-5.3,5.2
		c-0.1,0.1-0.1,0.1-0.1,0.2l1.3,7.3c0,0.2-0.2,0.4-0.4,0.3l-6.6-3.5c-0.1,0-0.2,0-0.2,0l-6.6,3.5c-0.2,0.1-0.4-0.1-0.4-0.3l1.3-7.3
		c0-0.1,0-0.2-0.1-0.2l-5.3-5.2c-0.1-0.1-0.1-0.4,0.1-0.4l7.4-1.1c0.1,0,0.2-0.1,0.2-0.1l3.3-6.7
		C-179.4,247.6-179.2,247.6-179.1,247.8z"/>
	<path class="st7" d="M-178.9,247.9l3.3,6.7c0,0.1,0.1,0.1,0.2,0.1l7.4,1.1c0.2,0,0.3,0.3,0.1,0.4l-5.3,5.2
		c-0.1,0.1-0.1,0.1-0.1,0.2l1.3,7.3c0,0.2-0.2,0.4-0.4,0.3l-6.6-3.5c-0.1,0-0.2,0-0.2,0l-6.6,3.5c-0.2,0.1-0.4-0.1-0.4-0.3l1.3-7.3
		c0-0.1,0-0.2-0.1-0.2l-5.3-5.2c-0.1-0.1-0.1-0.4,0.1-0.4l7.4-1.1c0.1,0,0.2-0.1,0.2-0.1l3.3-6.7
		C-179.3,247.7-179,247.7-178.9,247.9z"/>
	<path class="st7" d="M-178.7,248l3.3,6.7c0,0.1,0.1,0.1,0.2,0.1l7.4,1.1c0.2,0,0.3,0.3,0.1,0.4l-5.3,5.2c-0.1,0.1-0.1,0.1-0.1,0.2
		l1.3,7.3c0,0.2-0.2,0.4-0.4,0.3l-6.6-3.5c-0.1,0-0.2,0-0.2,0l-6.6,3.5c-0.2,0.1-0.4-0.1-0.4-0.3l1.3-7.3c0-0.1,0-0.2-0.1-0.2
		l-5.3-5.2c-0.1-0.1-0.1-0.4,0.1-0.4l7.4-1.1c0.1,0,0.2-0.1,0.2-0.1l3.3-6.7C-179.1,247.8-178.8,247.8-178.7,248z"/>
	<path class="st7" d="M-178.5,248.1l3.3,6.7c0,0.1,0.1,0.1,0.2,0.1l7.4,1.1c0.2,0,0.3,0.3,0.1,0.4l-5.3,5.2
		c-0.1,0.1-0.1,0.1-0.1,0.2l1.3,7.3c0,0.2-0.2,0.4-0.4,0.3l-6.6-3.5c-0.1,0-0.2,0-0.2,0l-6.6,3.5c-0.2,0.1-0.4-0.1-0.4-0.3l1.3-7.3
		c0-0.1,0-0.2-0.1-0.2l-5.3-5.2c-0.1-0.1-0.1-0.4,0.1-0.4l7.4-1.1c0.1,0,0.2-0.1,0.2-0.1l3.3-6.7
		C-178.9,247.9-178.6,247.9-178.5,248.1z"/>
	<path class="st7" d="M-178.4,248.3l3.3,6.7c0,0.1,0.1,0.1,0.2,0.1l7.4,1.1c0.2,0,0.3,0.3,0.1,0.4l-5.3,5.2
		c-0.1,0.1-0.1,0.1-0.1,0.2l1.3,7.3c0,0.2-0.2,0.4-0.4,0.3l-6.6-3.5c-0.1,0-0.2,0-0.2,0l-6.6,3.5c-0.2,0.1-0.4-0.1-0.4-0.3l1.3-7.3
		c0-0.1,0-0.2-0.1-0.2l-5.3-5.2c-0.1-0.1-0.1-0.4,0.1-0.4l7.4-1.1c0.1,0,0.2-0.1,0.2-0.1l3.3-6.7
		C-178.7,248.1-178.5,248.1-178.4,248.3z"/>
	<path class="st7" d="M-178.2,248.4l3.3,6.7c0,0.1,0.1,0.1,0.2,0.1l7.4,1.1c0.2,0,0.3,0.3,0.1,0.4l-5.3,5.2
		c-0.1,0.1-0.1,0.1-0.1,0.2l1.3,7.3c0,0.2-0.2,0.4-0.4,0.3l-6.6-3.5c-0.1,0-0.2,0-0.2,0l-6.6,3.5c-0.2,0.1-0.4-0.1-0.4-0.3l1.3-7.3
		c0-0.1,0-0.2-0.1-0.2l-5.3-5.2c-0.1-0.1-0.1-0.4,0.1-0.4l7.4-1.1c0.1,0,0.2-0.1,0.2-0.1l3.3-6.7
		C-178.5,248.2-178.3,248.2-178.2,248.4z"/>
	<path class="st7" d="M-178,248.5l3.3,6.7c0,0.1,0.1,0.1,0.2,0.1l7.4,1.1c0.2,0,0.3,0.3,0.1,0.4l-5.3,5.2c-0.1,0.1-0.1,0.1-0.1,0.2
		l1.3,7.3c0,0.2-0.2,0.4-0.4,0.3l-6.6-3.5c-0.1,0-0.2,0-0.2,0l-6.6,3.5c-0.2,0.1-0.4-0.1-0.4-0.3l1.3-7.3c0-0.1,0-0.2-0.1-0.2
		l-5.3-5.2c-0.1-0.1-0.1-0.4,0.1-0.4l7.4-1.1c0.1,0,0.2-0.1,0.2-0.1l3.3-6.7C-178.4,248.3-178.1,248.3-178,248.5z"/>
	<path class="st7" d="M-177.8,248.6l3.3,6.7c0,0.1,0.1,0.1,0.2,0.1l7.4,1.1c0.2,0,0.3,0.3,0.1,0.4l-5.3,5.2
		c-0.1,0.1-0.1,0.1-0.1,0.2l1.3,7.3c0,0.2-0.2,0.4-0.4,0.3l-6.6-3.5c-0.1,0-0.2,0-0.2,0l-6.6,3.5c-0.2,0.1-0.4-0.1-0.4-0.3l1.3-7.3
		c0-0.1,0-0.2-0.1-0.2l-5.3-5.2c-0.1-0.1-0.1-0.4,0.1-0.4l7.4-1.1c0.1,0,0.2-0.1,0.2-0.1l3.3-6.7
		C-178.2,248.5-177.9,248.5-177.8,248.6z"/>
	<path class="st7" d="M-177.6,248.8l3.3,6.7c0,0.1,0.1,0.1,0.2,0.1l7.4,1.1c0.2,0,0.3,0.3,0.1,0.4l-5.3,5.2
		c-0.1,0.1-0.1,0.1-0.1,0.2l1.3,7.3c0,0.2-0.2,0.4-0.4,0.3l-6.6-3.5c-0.1,0-0.2,0-0.2,0l-6.6,3.5c-0.2,0.1-0.4-0.1-0.4-0.3l1.3-7.3
		c0-0.1,0-0.2-0.1-0.2l-5.3-5.2c-0.1-0.1-0.1-0.4,0.1-0.4l7.4-1.1c0.1,0,0.2-0.1,0.2-0.1l3.3-6.7
		C-178,248.6-177.7,248.6-177.6,248.8z"/>
	<path class="st7" d="M-177.5,248.9l3.3,6.7c0,0.1,0.1,0.1,0.2,0.1l7.4,1.1c0.2,0,0.3,0.3,0.1,0.4l-5.3,5.2
		c-0.1,0.1-0.1,0.1-0.1,0.2l1.3,7.3c0,0.2-0.2,0.4-0.4,0.3l-6.6-3.5c-0.1,0-0.2,0-0.2,0l-6.6,3.5c-0.2,0.1-0.4-0.1-0.4-0.3l1.3-7.3
		c0-0.1,0-0.2-0.1-0.2l-5.3-5.2c-0.1-0.1-0.1-0.4,0.1-0.4l7.4-1.1c0.1,0,0.2-0.1,0.2-0.1l3.3-6.7
		C-177.8,248.7-177.6,248.7-177.5,248.9z"/>
	<path class="st7" d="M-177.3,249l3.3,6.7c0,0.1,0.1,0.1,0.2,0.1l7.4,1.1c0.2,0,0.3,0.3,0.1,0.4l-5.3,5.2c-0.1,0.1-0.1,0.1-0.1,0.2
		l1.3,7.3c0,0.2-0.2,0.4-0.4,0.3l-6.6-3.5c-0.1,0-0.2,0-0.2,0l-6.6,3.5c-0.2,0.1-0.4-0.1-0.4-0.3l1.3-7.3c0-0.1,0-0.2-0.1-0.2
		l-5.3-5.2c-0.1-0.1-0.1-0.4,0.1-0.4l7.4-1.1c0.1,0,0.2-0.1,0.2-0.1l3.3-6.7C-177.6,248.8-177.4,248.8-177.3,249z"/>
	<path class="st7" d="M-177.1,249.1l3.3,6.7c0,0.1,0.1,0.1,0.2,0.1l7.4,1.1c0.2,0,0.3,0.3,0.1,0.4l-5.3,5.2
		c-0.1,0.1-0.1,0.1-0.1,0.2l1.3,7.3c0,0.2-0.2,0.4-0.4,0.3l-6.6-3.5c-0.1,0-0.2,0-0.2,0l-6.6,3.5c-0.2,0.1-0.4-0.1-0.4-0.3l1.3-7.3
		c0-0.1,0-0.2-0.1-0.2l-5.3-5.2c-0.1-0.1-0.1-0.4,0.1-0.4l7.4-1.1c0.1,0,0.2-0.1,0.2-0.1l3.3-6.7C-177.5,249-177.2,249-177.1,249.1z
		"/>
	<path class="st7" d="M-176.9,249.3l3.3,6.7c0,0.1,0.1,0.1,0.2,0.1l7.4,1.1c0.2,0,0.3,0.3,0.1,0.4l-5.3,5.2
		c-0.1,0.1-0.1,0.1-0.1,0.2l1.3,7.3c0,0.2-0.2,0.4-0.4,0.3l-6.6-3.5c-0.1,0-0.2,0-0.2,0l-6.6,3.5c-0.2,0.1-0.4-0.1-0.4-0.3l1.3-7.3
		c0-0.1,0-0.2-0.1-0.2l-5.3-5.2c-0.1-0.1-0.1-0.4,0.1-0.4l7.4-1.1c0.1,0,0.2-0.1,0.2-0.1l3.3-6.7
		C-177.3,249.1-177,249.1-176.9,249.3z"/>
	<path class="st7" d="M-176.8,249.4l3.3,6.7c0,0.1,0.1,0.1,0.2,0.1l7.4,1.1c0.2,0,0.3,0.3,0.1,0.4l-5.3,5.2
		c-0.1,0.1-0.1,0.1-0.1,0.2l1.3,7.3c0,0.2-0.2,0.4-0.4,0.3l-6.6-3.5c-0.1,0-0.2,0-0.2,0l-6.6,3.5c-0.2,0.1-0.4-0.1-0.4-0.3l1.3-7.3
		c0-0.1,0-0.2-0.1-0.2l-5.3-5.2c-0.1-0.1-0.1-0.4,0.1-0.4l7.4-1.1c0.1,0,0.2-0.1,0.2-0.1l3.3-6.7
		C-177.1,249.2-176.8,249.2-176.8,249.4z"/>
	<path class="st7" d="M-176.6,249.5l3.3,6.7c0,0.1,0.1,0.1,0.2,0.1l7.4,1.1c0.2,0,0.3,0.3,0.1,0.4l-5.3,5.2
		c-0.1,0.1-0.1,0.1-0.1,0.2l1.3,7.3c0,0.2-0.2,0.4-0.4,0.3l-6.6-3.5c-0.1,0-0.2,0-0.2,0l-6.6,3.5c-0.2,0.1-0.4-0.1-0.4-0.3l1.3-7.3
		c0-0.1,0-0.2-0.1-0.2l-5.3-5.2c-0.1-0.1-0.1-0.4,0.1-0.4l7.4-1.1c0.1,0,0.2-0.1,0.2-0.1l3.3-6.7
		C-176.9,249.3-176.7,249.3-176.6,249.5z"/>
	<path class="st7" d="M-176.4,249.7l3.3,6.7c0,0.1,0.1,0.1,0.2,0.1l7.4,1.1c0.2,0,0.3,0.3,0.1,0.4l-5.3,5.2
		c-0.1,0.1-0.1,0.1-0.1,0.2l1.3,7.3c0,0.2-0.2,0.4-0.4,0.3l-6.6-3.5c-0.1,0-0.2,0-0.2,0l-6.6,3.5c-0.2,0.1-0.4-0.1-0.4-0.3l1.3-7.3
		c0-0.1,0-0.2-0.1-0.2l-5.3-5.2c-0.1-0.1-0.1-0.4,0.1-0.4l7.4-1.1c0.1,0,0.2-0.1,0.2-0.1l3.3-6.7
		C-176.8,249.5-176.5,249.5-176.4,249.7z"/>
	<path class="st7" d="M-176.2,249.8l3.3,6.7c0,0.1,0.1,0.1,0.2,0.1l7.4,1.1c0.2,0,0.3,0.3,0.1,0.4l-5.3,5.2
		c-0.1,0.1-0.1,0.1-0.1,0.2l1.3,7.3c0,0.2-0.2,0.4-0.4,0.3l-6.6-3.5c-0.1,0-0.2,0-0.2,0l-6.6,3.5c-0.2,0.1-0.4-0.1-0.4-0.3l1.3-7.3
		c0-0.1,0-0.2-0.1-0.2l-5.3-5.2c-0.1-0.1-0.1-0.4,0.1-0.4l7.4-1.1c0.1,0,0.2-0.1,0.2-0.1l3.3-6.7
		C-176.6,249.6-176.3,249.6-176.2,249.8z"/>
	<path class="st7" d="M-176,249.9l3.3,6.7c0,0.1,0.1,0.1,0.2,0.1l7.4,1.1c0.2,0,0.3,0.3,0.1,0.4l-5.3,5.2c-0.1,0.1-0.1,0.1-0.1,0.2
		l1.3,7.3c0,0.2-0.2,0.4-0.4,0.3l-6.6-3.5c-0.1,0-0.2,0-0.2,0l-6.6,3.5c-0.2,0.1-0.4-0.1-0.4-0.3l1.3-7.3c0-0.1,0-0.2-0.1-0.2
		l-5.3-5.2c-0.1-0.1-0.1-0.4,0.1-0.4l7.4-1.1c0.1,0,0.2-0.1,0.2-0.1l3.3-6.7C-176.4,249.7-176.1,249.7-176,249.9z"/>
	<path class="st7" d="M-175.9,250l3.3,6.7c0,0.1,0.1,0.1,0.2,0.1l7.4,1.1c0.2,0,0.3,0.3,0.1,0.4l-5.3,5.2c-0.1,0.1-0.1,0.1-0.1,0.2
		l1.3,7.3c0,0.2-0.2,0.4-0.4,0.3l-6.6-3.5c-0.1,0-0.2,0-0.2,0l-6.6,3.5c-0.2,0.1-0.4-0.1-0.4-0.3l1.3-7.3c0-0.1,0-0.2-0.1-0.2
		l-5.3-5.2c-0.1-0.1-0.1-0.4,0.1-0.4l7.4-1.1c0.1,0,0.2-0.1,0.2-0.1l3.3-6.7C-176.2,249.8-176,249.8-175.9,250z"/>
	<path class="st7" d="M-175.7,250.2l3.3,6.7c0,0.1,0.1,0.1,0.2,0.1l7.4,1.1c0.2,0,0.3,0.3,0.1,0.4l-5.3,5.2
		c-0.1,0.1-0.1,0.1-0.1,0.2l1.3,7.3c0,0.2-0.2,0.4-0.4,0.3l-6.6-3.5c-0.1,0-0.2,0-0.2,0l-6.6,3.5c-0.2,0.1-0.4-0.1-0.4-0.3l1.3-7.3
		c0-0.1,0-0.2-0.1-0.2l-5.3-5.2c-0.1-0.1-0.1-0.4,0.1-0.4l7.4-1.1c0.1,0,0.2-0.1,0.2-0.1l3.3-6.7C-176,250-175.8,250-175.7,250.2z"
		/>
	<path class="st7" d="M-175.5,250.3l3.3,6.7c0,0.1,0.1,0.1,0.2,0.1l7.4,1.1c0.2,0,0.3,0.3,0.1,0.4l-5.3,5.2
		c-0.1,0.1-0.1,0.1-0.1,0.2l1.3,7.3c0,0.2-0.2,0.4-0.4,0.3l-6.6-3.5c-0.1,0-0.2,0-0.2,0l-6.6,3.5c-0.2,0.1-0.4-0.1-0.4-0.3l1.3-7.3
		c0-0.1,0-0.2-0.1-0.2l-5.3-5.2c-0.1-0.1-0.1-0.4,0.1-0.4l7.4-1.1c0.1,0,0.2-0.1,0.2-0.1l3.3-6.7
		C-175.9,250.1-175.6,250.1-175.5,250.3z"/>
	<path class="st7" d="M-175.3,250.4l3.3,6.7c0,0.1,0.1,0.1,0.2,0.1l7.4,1.1c0.2,0,0.3,0.3,0.1,0.4l-5.3,5.2
		c-0.1,0.1-0.1,0.1-0.1,0.2l1.3,7.3c0,0.2-0.2,0.4-0.4,0.3l-6.6-3.5c-0.1,0-0.2,0-0.2,0l-6.6,3.5c-0.2,0.1-0.4-0.1-0.4-0.3l1.3-7.3
		c0-0.1,0-0.2-0.1-0.2l-5.3-5.2c-0.1-0.1-0.1-0.4,0.1-0.4l7.4-1.1c0.1,0,0.2-0.1,0.2-0.1l3.3-6.7
		C-175.7,250.2-175.4,250.2-175.3,250.4z"/>
	<path class="st7" d="M-175.2,250.5l3.3,6.7c0,0.1,0.1,0.1,0.2,0.1l7.4,1.1c0.2,0,0.3,0.3,0.1,0.4l-5.3,5.2
		c-0.1,0.1-0.1,0.1-0.1,0.2l1.3,7.3c0,0.2-0.2,0.4-0.4,0.3l-6.6-3.5c-0.1,0-0.2,0-0.2,0l-6.6,3.5c-0.2,0.1-0.4-0.1-0.4-0.3l1.3-7.3
		c0-0.1,0-0.2-0.1-0.2l-5.3-5.2c-0.1-0.1-0.1-0.4,0.1-0.4l7.4-1.1c0.1,0,0.2-0.1,0.2-0.1l3.3-6.7
		C-175.5,250.3-175.2,250.3-175.2,250.5z"/>
	<path class="st7" d="M-175,250.7l3.3,6.7c0,0.1,0.1,0.1,0.2,0.1l7.4,1.1c0.2,0,0.3,0.3,0.1,0.4l-5.3,5.2c-0.1,0.1-0.1,0.1-0.1,0.2
		l1.3,7.3c0,0.2-0.2,0.4-0.4,0.3l-6.6-3.5c-0.1,0-0.2,0-0.2,0l-6.6,3.5c-0.2,0.1-0.4-0.1-0.4-0.3l1.3-7.3c0-0.1,0-0.2-0.1-0.2
		l-5.3-5.2c-0.1-0.1-0.1-0.4,0.1-0.4l7.4-1.1c0.1,0,0.2-0.1,0.2-0.1l3.3-6.7C-175.3,250.5-175.1,250.5-175,250.7z"/>
	<path class="st7" d="M-174.8,250.8l3.3,6.7c0,0.1,0.1,0.1,0.2,0.1l7.4,1.1c0.2,0,0.3,0.3,0.1,0.4l-5.3,5.2
		c-0.1,0.1-0.1,0.1-0.1,0.2l1.3,7.3c0,0.2-0.2,0.4-0.4,0.3l-6.6-3.5c-0.1,0-0.2,0-0.2,0l-6.6,3.5c-0.2,0.1-0.4-0.1-0.4-0.3l1.3-7.3
		c0-0.1,0-0.2-0.1-0.2l-5.3-5.2c-0.1-0.1-0.1-0.4,0.1-0.4l7.4-1.1c0.1,0,0.2-0.1,0.2-0.1l3.3-6.7
		C-175.2,250.6-174.9,250.6-174.8,250.8z"/>
	<path class="st7" d="M-174.6,250.9l3.3,6.7c0,0.1,0.1,0.1,0.2,0.1l7.4,1.1c0.2,0,0.3,0.3,0.1,0.4l-5.3,5.2
		c-0.1,0.1-0.1,0.1-0.1,0.2l1.3,7.3c0,0.2-0.2,0.4-0.4,0.3l-6.6-3.5c-0.1,0-0.2,0-0.2,0l-6.6,3.5c-0.2,0.1-0.4-0.1-0.4-0.3l1.3-7.3
		c0-0.1,0-0.2-0.1-0.2l-5.3-5.2c-0.1-0.1-0.1-0.4,0.1-0.4l7.4-1.1c0.1,0,0.2-0.1,0.2-0.1l3.3-6.7
		C-175,250.7-174.7,250.7-174.6,250.9z"/>
</g>
<path class="st4" d="M-205.1,229.3l3.3,6.7c0,0.1,0.1,0.1,0.2,0.1l7.4,1.1c0.2,0,0.3,0.3,0.1,0.4l-5.3,5.2c-0.1,0.1-0.1,0.1-0.1,0.2
	l1.3,7.3c0,0.2-0.2,0.4-0.4,0.3l-6.6-3.5c-0.1,0-0.2,0-0.2,0l-6.6,3.5c-0.2,0.1-0.4-0.1-0.4-0.3l1.3-7.3c0-0.1,0-0.2-0.1-0.2
	l-5.3-5.2c-0.1-0.1-0.1-0.4,0.1-0.4l7.4-1.1c0.1,0,0.2-0.1,0.2-0.1l3.3-6.7C-205.5,229.1-205.2,229.1-205.1,229.3z"/>
<g id="Shape_2_">
	<g>
		<circle class="st8" cx="-205" cy="240.7" r="20.8"/>
	</g>
</g>
</svg>
