<?xml version="1.0" encoding="utf-8"?>
<!-- Generator: Adobe Illustrator 19.0.0, SVG Export Plug-In . SVG Version: 6.00 Build 0)  -->
<svg version="1.1" id="Layer_1" xmlns="http://www.w3.org/2000/svg" xmlns:xlink="http://www.w3.org/1999/xlink" x="0px" y="0px"
	 viewBox="39 -39 128 128" style="enable-background:new 39 -39 128 128;" xml:space="preserve">
<style type="text/css">
	.st0{fill:#FFFFFF;}
</style>
<path class="st0" d="M148.7-13.4l-2.1-2.7l-2.9-2.2l-5.5-2l-3.5-0.8l-2.6-0.2l-3.1,0.4l-3.3,0.8l-3.4,2.2l-6.2,7.7l6.2-11.8
	l-8.6,3.8l-3.5,2.3l-3.1,2.5l-3,3.9l-2.6,5.2L95.2,9.6l0.6-4.3l1.4-5.7l1.1-3l1.2-3.6l-3.7,1.5l-4.2,2.5l-2.6,2l-4.1,3.6l-2.6,2.9
	l-2.2,3.1L76,15.2l-2.6,6.7l-2,7.9L70,40.1l0-5.1l0.5-6.8l2.6-11.3l-2.7,2.9l-1.3,1.4l-1,1.7l-1.8,2.8l-1.6,4.1l-0.8,3l-0.3,4.8
	l0.4,3.2l-2.9-1.4l1.7,5.8l-5-0.7l2.9,3.6l2.8,4.8l0.1,0c-3.4,6.9-6,13.8-7.9,20.6l4.2-0.8C63.2,61,68.7,49,76.3,37.4
	c17-25.7,41.4-43.2,62-47.2c2.9-0.4,5.8-0.6,8.5-0.4c-21.4,4.7-43,14.8-66,45.8c-4,5.4-7.6,11.7-10.6,17.9l3.4,0.9l5,1.7l-3.1-2.6
	h12.7l-4.4-1.8L81,50.6l-2.5-1.9l-1.3-1.2h3.1l5.4-0.1l5.5-1l3.4-0.8l5.7-1.8l8.3-3.7l3.1-2.2l-5-0.5l-4.1-1l4.3-1.7l4.1-1.6
	l3.1-1.7l3.6-2.5l3.6-2.8l2.8-2.3l2.7-1.8l3.4-2.3l4.8-4l-4.8,1l-6,0.8l-5.7,0.2l-2.6,0.2l-3.8-0.3l-3.7-0.8l-3.3-1.2l9.5,0.2
	l6.5-0.2l5-0.8l1.8-0.3l3.9-1.2l4.2-2l3.2-2l3.2-2.6l1.1-1.3l4.1-4.8L149-3l0.5-3.4v-3.1L148.7-13.4z"/>
</svg>
