<?xml version="1.0" encoding="utf-8"?>
<!-- Generator: Adobe Illustrator 19.0.0, SVG Export Plug-In . SVG Version: 6.00 Build 0)  -->
<svg version="1.1" id="Layer_1" xmlns="http://www.w3.org/2000/svg" xmlns:xlink="http://www.w3.org/1999/xlink" x="0px" y="0px"
	 viewBox="-57 59 64 64" style="enable-background:new -57 59 64 64;" xml:space="preserve">
<style type="text/css">
	.st0{fill:#CACBCC;}
	.st1{fill:#666666;}
	.st2{fill:#C95757;}
	.st3{fill:#EA5C6D;}
	.st4{fill:#E3E6E8;}
	.st5{fill:#FFFFFF;}
</style>
<title></title>
<g id="Question">
	<path class="st0" d="M2.4,112l2.1,7c0.2,0.5-0.1,1.1-0.7,1.2c-0.2,0.1-0.4,0.1-0.6,0L-3,118c-0.8-0.3-1.7-0.2-2.5,0.2
		c-3.2,1.9-6.8,2.9-10.5,2.9c-3.2-0.2-6.3-0.9-9.2-2.1h0c-6.7-3.9-11.4-10.2-11.7-18.1c-0.4-11.5,8.5-21.2,19.9-21.8
		c11.6-0.6,21.4,8.3,22,19.9c0.2,3.8-0.6,7.6-2.4,10.9C2.2,110.5,2.1,111.3,2.4,112z"/>
	<path class="st1" d="M-44.5,111c0.8-0.3,1.8-0.2,2.6,0.2c4.1,2.5,8.7,3.8,13.5,3.8c14.8-0.1,26.6-12.2,26.5-27
		c0.1-14.8-11.7-26.9-26.5-27C-43.3,61.1-55.1,73.2-55,88c0,4.5,1.1,8.9,3.2,12.9c0.4,0.7,0.4,1.5,0.2,2.3l-2.9,9.9
		c-0.2,0.5,0.2,1.1,0.7,1.2c0.2,0.1,0.4,0.1,0.6,0L-44.5,111z"/>
	<polygon class="st2" points="-25,119 -25,119 -25,119 	"/>
	<polygon class="st2" points="-25,115 -25,115 -25,115 	"/>
	<polygon class="st3" points="-26,119 -26,119 -26,119 	"/>
	<path class="st4" d="M-41.2,115.8c-0.5-0.2-1.1-0.5-1.6-0.7l0.3-0.1C-42.1,115.3-41.7,115.6-41.2,115.8z"/>
	<path class="st5" d="M-26,94h-5v-3.7c0-1.9,1.5-3.5,3.3-3.7c2.2-0.2,3.8-2.1,3.7-4.3c0-0.1,0-0.3-0.1-0.4c-0.3-2-1.8-3.6-3.8-3.8
		c-1.3-0.2-2.7,0.2-3.7,1.1c-0.8,0.7-1.4,1.8-1.5,2.9h-5c0-2.6,1.1-5.1,3.2-6.7c2.1-1.8,4.9-2.6,7.6-2.3c4.3,0.6,7.7,4,8.2,8.3
		c0.5,4.8-2,8.9-7,9.9V94z"/>
	<rect x="-31" y="97" class="st5" width="5" height="5"/>
</g>
</svg>
