<?xml version="1.0" encoding="utf-8"?>
<!-- Generator: Adobe Illustrator 19.0.0, SVG Export Plug-In . SVG Version: 6.00 Build 0)  -->
<svg version="1.1" id="Layer_1" xmlns="http://www.w3.org/2000/svg" xmlns:xlink="http://www.w3.org/1999/xlink" x="0px" y="0px"
	 viewBox="-31 -6 160 160" style="enable-background:new -31 -6 160 160;" xml:space="preserve">
<style type="text/css">
	.st0{fill:#FFFFFF;}
</style>
<g id="XMLID_2_">
	<g id="XMLID_3_">
		<path id="XMLID_5_" class="st0" d="M62.3-3.4c0,0,34.3,16.3,31.3,52.4c-2.6,30.8-23.4,62-29.4,70.4h-6.8
			c3.8-6.6,26.3-47,24.5-78.2C79.9,7.1,51.3-3.2,51.3-3.2s9.1,65.9-0.3,122.5h-3.7C37.8,62.8,46.9-3.1,46.9-3.1S18.4,7.2,16.3,41.3
			c-1.8,31.2,20.6,71.6,24.5,78.2H34C28,111,7.1,79.9,4.6,49C1.6,12.9,35.9-3.4,35.9-3.4C9.6-5.1-21,18-18.2,49.8
			c2.4,28.7,40,64.2,47.3,70.7c-0.8,0.8-1.1,2.1-0.4,3.4c1.1,2.1,4,3.7,6.5,3.7h27.7c2.5,0,5.4-1.6,6.5-3.7c0.7-1.3,0.5-2.6-0.4-3.4
			c7.3-6.6,44.8-42,47.3-70.8C119.2,18,88.6-5.1,62.3-3.4z"/>
		<path id="XMLID_4_" class="st0" d="M65.4,132h-9.3v1.8c0,2.5-2.1,4.6-4.6,4.6h-4.7c-2.5,0-4.6-2.1-4.6-4.6V132h-9.3
			c-3.6,0-5.2,3.7-3.9,7.7l2.6,7.8c0.8,2.3,3.1,4,5.4,4h24.4c2.2,0,4.6-1.7,5.4-4l2.6-7.8C70.6,135.7,68.9,132,65.4,132z"/>
	</g>
</g>
</svg>
