<?xml version="1.0" encoding="utf-8"?>
<!-- Generator: Adobe Illustrator 19.0.0, SVG Export Plug-In . SVG Version: 6.00 Build 0)  -->
<svg version="1.1" id="Layer_1" xmlns="http://www.w3.org/2000/svg" xmlns:xlink="http://www.w3.org/1999/xlink" x="0px" y="0px"
	 viewBox="0 0 160 160" style="enable-background:new 0 0 160 160;" xml:space="preserve">
<style type="text/css">
	.st0{fill:#555655;}
</style>
<g id="XMLID_2_">
	<g id="XMLID_3_">
		<path id="XMLID_5_" class="st0" d="M93.2,2.6c0,0,34.3,16.3,31.3,52.4c-2.6,30.8-23.4,62-29.4,70.4h-6.8
			c3.8-6.6,26.3-47,24.5-78.2c-2-34.1-30.6-44.4-30.6-44.4s9.1,65.9-0.3,122.5h-3.7C68.7,68.8,77.8,2.9,77.8,2.9
			S49.3,13.2,47.2,47.3c-1.8,31.2,20.6,71.6,24.5,78.2h-6.8C58.9,117,38,85.9,35.5,55c-3-36.1,31.3-52.4,31.3-52.4
			C40.5,0.9,9.9,24,12.7,55.8C15.1,84.5,52.7,120,60,126.5c-0.8,0.8-1.1,2.1-0.4,3.4c1.1,2.1,4,3.7,6.5,3.7h27.7
			c2.5,0,5.4-1.6,6.5-3.7c0.7-1.3,0.5-2.6-0.4-3.4c7.3-6.6,44.8-42,47.3-70.8C150.1,24,119.5,0.9,93.2,2.6z"/>
		<path id="XMLID_4_" class="st0" d="M96.3,138H87v1.8c0,2.5-2.1,4.6-4.6,4.6h-4.7c-2.5,0-4.6-2.1-4.6-4.6V138h-9.3
			c-3.6,0-5.2,3.7-3.9,7.7l2.6,7.8c0.8,2.3,3.1,4,5.4,4h24.4c2.2,0,4.6-1.7,5.4-4l2.6-7.8C101.5,141.7,99.8,138,96.3,138z"/>
	</g>
</g>
</svg>
