<?xml version="1.0" encoding="utf-8"?>
<!-- Generator: Adobe Illustrator 19.0.0, SVG Export Plug-In . SVG Version: 6.00 Build 0)  -->
<svg version="1.1"
	 id="svg8736" xmlns:svg="http://www.w3.org/2000/svg" xmlns:rdf="http://www.w3.org/1999/02/22-rdf-syntax-ns#" xmlns:cc="http://creativecommons.org/ns#" xmlns:inkscape="http://www.inkscape.org/namespaces/inkscape" xmlns:dc="http://purl.org/dc/elements/1.1/" xmlns:sodipodi="http://sodipodi.sourceforge.net/DTD/sodipodi-0.dtd"
	 xmlns="http://www.w3.org/2000/svg" xmlns:xlink="http://www.w3.org/1999/xlink" x="0px" y="0px" viewBox="-87 51 48 48"
	 style="enable-background:new -87 51 48 48;" xml:space="preserve">
<style type="text/css">
	.st0{fill:#FFFFFF;}
</style>
<g id="layer1">
	<path id="path9246" class="st0" d="M-74.8,52l21.7,2c3.3,0.3,5.5,3.3,5.5,6.2v31.7c0,0.9,0.1,1.6-0.3,2.3c2.5-0.1,4.1-2.2,4.1-4.7
		V56.8c0-2.6-2.1-4.8-4.7-4.8C-53.4,52-65,52-74.8,52z M-77.8,52.9c-2.4,0-4.3,1.9-4.3,4.4v33.2c0,2.7,2.2,5,4.8,5.3L-54,98
		c2.7,0.2,4.8-1.7,4.8-4.4V60.3c0-2.8-2.2-5-4.8-5.3l-23.3-2.1C-77.5,52.9-77.7,52.9-77.8,52.9L-77.8,52.9z M-65.7,63.4
		c5.4,0.2,9.8,4.7,9.8,10.1c0,5.3-4.2,9.5-9.4,9.5c-0.1,0-0.2,0-0.3,0c0,0-0.1,0-0.1,0c-0.1,0-0.1,0-0.2,0c-0.1,0-0.1,0-0.2,0
		c-5.2-0.4-9.4-4.8-9.4-10.1C-75.5,67.5-71.1,63.2-65.7,63.4L-65.7,63.4z M-65.7,64.3c-0.1,0-0.1,0-0.2,0c-1.4,1-2.6,2.3-3.4,3.8
		c1.1,0.4,2.3,0.7,3.6,0.7c1.2,0,2.4-0.1,3.5-0.5c-0.8-1.6-2-3-3.4-4.1C-65.6,64.3-65.6,64.3-65.7,64.3L-65.7,64.3z M-67.6,64.5
		c-1.7,0.3-3.2,1.1-4.3,2.2c0.6,0.4,1.2,0.8,1.8,1.1C-69.4,66.5-68.6,65.4-67.6,64.5z M-63.8,64.6c1,1,1.9,2.2,2.5,3.5
		c0.6-0.3,1.3-0.6,1.8-1C-60.6,65.9-62.1,65-63.8,64.6z M-72.5,67.4c-1.1,1.4-1.8,3.1-2,5l3.2,0.1c0.1-1.4,0.3-2.7,0.8-3.9
		C-71.2,68.3-71.9,67.9-72.5,67.4L-72.5,67.4z M-58.8,67.8c-0.6,0.4-1.3,0.8-2.1,1.1c0.5,1.2,0.8,2.6,0.8,3.9l3.2,0.1
		C-56.9,71-57.7,69.3-58.8,67.8z M-69.6,69c-0.4,1.1-0.7,2.3-0.7,3.5l9.3,0.3c-0.1-1.3-0.3-2.5-0.7-3.6c-1.2,0.4-2.5,0.6-3.9,0.6
		C-67.1,69.8-68.4,69.5-69.6,69z M-74.5,73.4c0.1,2,0.8,3.8,2,5.2c0.6-0.4,1.3-0.8,2-1.1c-0.5-1.2-0.8-2.6-0.8-4
		C-71.3,73.5-74.5,73.4-74.5,73.4z M-70.4,73.5c0.1,1.3,0.3,2.5,0.8,3.6c1.2-0.4,2.6-0.6,4-0.6c1.4,0,2.7,0.3,3.9,0.8
		c0.4-1.1,0.7-2.3,0.7-3.5C-61,73.8-70.4,73.5-70.4,73.5z M-60.1,73.8c-0.1,1.4-0.3,2.7-0.8,3.9c0.7,0.3,1.4,0.8,2.1,1.3
		c1.1-1.4,1.8-3.1,1.9-5L-60.1,73.8z M-65.7,77.5c-1.2,0-2.4,0.1-3.5,0.5c0.8,1.6,2,3,3.4,4c0,0,0.1,0,0.1,0c0,0,0.1,0,0.1,0
		c1.4-1,2.6-2.3,3.4-3.8C-63.3,77.8-64.4,77.5-65.7,77.5L-65.7,77.5z M-70.1,78.3c-0.6,0.3-1.2,0.6-1.8,1c1.2,1.2,2.7,2.1,4.3,2.5
		C-68.6,80.8-69.4,79.6-70.1,78.3z M-61.3,78.6c-0.6,1.3-1.5,2.4-2.6,3.3c1.7-0.3,3.2-1.1,4.4-2.2C-60,79.2-60.6,78.9-61.3,78.6z
		 M-74.5,85.6l17.6,1.4c1.3,0.1,2.4,1.3,2.4,2.6s-1.1,2.3-2.4,2.2l-17.6-1.4c-1.3-0.1-2.4-1.3-2.4-2.6
		C-76.8,86.5-75.8,85.5-74.5,85.6z"/>
</g>
</svg>
