<?xml version="1.0" ?><svg id="Layer_1" style="enable-background:new 0 0 100 100;" version="1.1" viewBox="0 0 100 100" xml:space="preserve" xmlns="http://www.w3.org/2000/svg" xmlns:xlink="http://www.w3.org/1999/xlink"><style type="text/css">
	.st0{fill:#3B4652;}
</style><path class="st0" d="M90.6,26.9c-0.5-2.6-2.4-4.7-4.9-5.4C62,15,38.4,15,14.8,21.5c-2.5,0.7-4.3,2.7-4.9,5.2  c-3.5,15.6-3.5,31.1,0,46.7c0.6,2.5,2.4,4.5,4.9,5.2C38.4,85,62,85,85.7,78.6c2.6-0.7,4.5-2.8,4.9-5.4  C93.4,57.7,93.4,42.3,90.6,26.9z M65,51.9L43.8,65.8c-1.3,0.9-2.9-0.2-2.9-1.9V36.2c0-1.7,1.6-2.8,2.9-1.9L65,48.1  C66.3,48.9,66.3,51.1,65,51.9z" id="XMLID_1032_"/></svg>